<?xml version="1.0" encoding="utf-8" standalone="no"?>
<!DOCTYPE svg PUBLIC "-//W3C//DTD SVG 1.1//EN"
  "http://www.w3.org/Graphics/SVG/1.1/DTD/svg11.dtd">
<svg xmlns:xlink="http://www.w3.org/1999/xlink" width="392.14375pt" height="392.51625pt" viewBox="0 0 392.14375 392.51625" xmlns="http://www.w3.org/2000/svg" version="1.1">
 <metadata>
  <rdf:RDF xmlns:dc="http://purl.org/dc/elements/1.1/" xmlns:cc="http://creativecommons.org/ns#" xmlns:rdf="http://www.w3.org/1999/02/22-rdf-syntax-ns#">
   <cc:Work>
    <dc:type rdf:resource="http://purl.org/dc/dcmitype/StillImage"/>
    <dc:date>2023-09-08T08:57:27.118433</dc:date>
    <dc:format>image/svg+xml</dc:format>
    <dc:creator>
     <cc:Agent>
      <dc:title>Matplotlib v3.7.0, https://matplotlib.org/</dc:title>
     </cc:Agent>
    </dc:creator>
   </cc:Work>
  </rdf:RDF>
 </metadata>
 <defs>
  <style type="text/css">*{stroke-linejoin: round; stroke-linecap: butt}</style>
 </defs>
 <g id="figure_1">
  <g id="patch_1">
   <path d="M 0 392.51625 
L 392.14375 392.51625 
L 392.14375 0 
L 0 0 
z
" style="fill: #ffffff"/>
  </g>
  <g id="axes_1">
   <g id="patch_2">
    <path d="M 50.14375 354.96 
L 384.94375 354.96 
L 384.94375 22.32 
L 50.14375 22.32 
z
" style="fill: #ffffff"/>
   </g>
   <g id="matplotlib.axis_1">
    <g id="xtick_1">
     <g id="line2d_1">
      <path d="M 50.14375 354.96 
L 50.14375 22.32 
" clip-path="url(#p9d6ca268a8)" style="fill: none; stroke-dasharray: 0.8,1.32; stroke-dashoffset: 0; stroke: #d9d9d9; stroke-width: 0.8"/>
     </g>
     <g id="line2d_2">
      <defs>
       <path id="m1dbd7b28cf" d="M 0 0 
L 0 3.5 
" style="stroke: #000000; stroke-width: 0.8"/>
      </defs>
      <g>
       <use xlink:href="#m1dbd7b28cf" x="50.14375" y="354.96" style="stroke: #000000; stroke-width: 0.8"/>
      </g>
     </g>
     <g id="text_1">
      <!-- .00 -->
      <g transform="translate(42.192188 369.558437) scale(0.1 -0.1)">
       <defs>
        <path id="DejaVuSans-2e" d="M 684 794 
L 1344 794 
L 1344 0 
L 684 0 
L 684 794 
z
" transform="scale(0.015625)"/>
        <path id="DejaVuSans-30" d="M 2034 4250 
Q 1547 4250 1301 3770 
Q 1056 3291 1056 2328 
Q 1056 1369 1301 889 
Q 1547 409 2034 409 
Q 2525 409 2770 889 
Q 3016 1369 3016 2328 
Q 3016 3291 2770 3770 
Q 2525 4250 2034 4250 
z
M 2034 4750 
Q 2819 4750 3233 4129 
Q 3647 3509 3647 2328 
Q 3647 1150 3233 529 
Q 2819 -91 2034 -91 
Q 1250 -91 836 529 
Q 422 1150 422 2328 
Q 422 3509 836 4129 
Q 1250 4750 2034 4750 
z
" transform="scale(0.015625)"/>
       </defs>
       <use xlink:href="#DejaVuSans-2e"/>
       <use xlink:href="#DejaVuSans-30" x="31.787109"/>
       <use xlink:href="#DejaVuSans-30" x="95.410156"/>
      </g>
     </g>
    </g>
    <g id="xtick_2">
     <g id="line2d_3">
      <path d="M 66.88375 354.96 
L 66.88375 22.32 
" clip-path="url(#p9d6ca268a8)" style="fill: none; stroke-dasharray: 0.8,1.32; stroke-dashoffset: 0; stroke: #d9d9d9; stroke-width: 0.8"/>
     </g>
     <g id="line2d_4">
      <g>
       <use xlink:href="#m1dbd7b28cf" x="66.88375" y="354.96" style="stroke: #000000; stroke-width: 0.8"/>
      </g>
     </g>
     <g id="text_2">
      <!-- .05 -->
      <g transform="translate(58.932188 369.558437) scale(0.1 -0.1)">
       <defs>
        <path id="DejaVuSans-35" d="M 691 4666 
L 3169 4666 
L 3169 4134 
L 1269 4134 
L 1269 2991 
Q 1406 3038 1543 3061 
Q 1681 3084 1819 3084 
Q 2600 3084 3056 2656 
Q 3513 2228 3513 1497 
Q 3513 744 3044 326 
Q 2575 -91 1722 -91 
Q 1428 -91 1123 -41 
Q 819 9 494 109 
L 494 744 
Q 775 591 1075 516 
Q 1375 441 1709 441 
Q 2250 441 2565 725 
Q 2881 1009 2881 1497 
Q 2881 1984 2565 2268 
Q 2250 2553 1709 2553 
Q 1456 2553 1204 2497 
Q 953 2441 691 2322 
L 691 4666 
z
" transform="scale(0.015625)"/>
       </defs>
       <use xlink:href="#DejaVuSans-2e"/>
       <use xlink:href="#DejaVuSans-30" x="31.787109"/>
       <use xlink:href="#DejaVuSans-35" x="95.410156"/>
      </g>
     </g>
    </g>
    <g id="xtick_3">
     <g id="line2d_5">
      <path d="M 83.62375 354.96 
L 83.62375 22.32 
" clip-path="url(#p9d6ca268a8)" style="fill: none; stroke-dasharray: 0.8,1.32; stroke-dashoffset: 0; stroke: #d9d9d9; stroke-width: 0.8"/>
     </g>
     <g id="line2d_6">
      <g>
       <use xlink:href="#m1dbd7b28cf" x="83.62375" y="354.96" style="stroke: #000000; stroke-width: 0.8"/>
      </g>
     </g>
     <g id="text_3">
      <!-- .10 -->
      <g transform="translate(75.672188 369.558437) scale(0.1 -0.1)">
       <defs>
        <path id="DejaVuSans-31" d="M 794 531 
L 1825 531 
L 1825 4091 
L 703 3866 
L 703 4441 
L 1819 4666 
L 2450 4666 
L 2450 531 
L 3481 531 
L 3481 0 
L 794 0 
L 794 531 
z
" transform="scale(0.015625)"/>
       </defs>
       <use xlink:href="#DejaVuSans-2e"/>
       <use xlink:href="#DejaVuSans-31" x="31.787109"/>
       <use xlink:href="#DejaVuSans-30" x="95.410156"/>
      </g>
     </g>
    </g>
    <g id="xtick_4">
     <g id="line2d_7">
      <path d="M 100.363752 354.96 
L 100.363752 22.32 
" clip-path="url(#p9d6ca268a8)" style="fill: none; stroke-dasharray: 0.8,1.32; stroke-dashoffset: 0; stroke: #d9d9d9; stroke-width: 0.8"/>
     </g>
     <g id="line2d_8">
      <g>
       <use xlink:href="#m1dbd7b28cf" x="100.363752" y="354.96" style="stroke: #000000; stroke-width: 0.8"/>
      </g>
     </g>
     <g id="text_4">
      <!-- .15 -->
      <g transform="translate(92.412189 369.558437) scale(0.1 -0.1)">
       <use xlink:href="#DejaVuSans-2e"/>
       <use xlink:href="#DejaVuSans-31" x="31.787109"/>
       <use xlink:href="#DejaVuSans-35" x="95.410156"/>
      </g>
     </g>
    </g>
    <g id="xtick_5">
     <g id="line2d_9">
      <path d="M 117.103751 354.96 
L 117.103751 22.32 
" clip-path="url(#p9d6ca268a8)" style="fill: none; stroke-dasharray: 0.8,1.32; stroke-dashoffset: 0; stroke: #d9d9d9; stroke-width: 0.8"/>
     </g>
     <g id="line2d_10">
      <g>
       <use xlink:href="#m1dbd7b28cf" x="117.103751" y="354.96" style="stroke: #000000; stroke-width: 0.8"/>
      </g>
     </g>
     <g id="text_5">
      <!-- .20 -->
      <g transform="translate(109.152188 369.558437) scale(0.1 -0.1)">
       <defs>
        <path id="DejaVuSans-32" d="M 1228 531 
L 3431 531 
L 3431 0 
L 469 0 
L 469 531 
Q 828 903 1448 1529 
Q 2069 2156 2228 2338 
Q 2531 2678 2651 2914 
Q 2772 3150 2772 3378 
Q 2772 3750 2511 3984 
Q 2250 4219 1831 4219 
Q 1534 4219 1204 4116 
Q 875 4013 500 3803 
L 500 4441 
Q 881 4594 1212 4672 
Q 1544 4750 1819 4750 
Q 2544 4750 2975 4387 
Q 3406 4025 3406 3419 
Q 3406 3131 3298 2873 
Q 3191 2616 2906 2266 
Q 2828 2175 2409 1742 
Q 1991 1309 1228 531 
z
" transform="scale(0.015625)"/>
       </defs>
       <use xlink:href="#DejaVuSans-2e"/>
       <use xlink:href="#DejaVuSans-32" x="31.787109"/>
       <use xlink:href="#DejaVuSans-30" x="95.410156"/>
      </g>
     </g>
    </g>
    <g id="xtick_6">
     <g id="line2d_11">
      <path d="M 133.84375 354.96 
L 133.84375 22.32 
" clip-path="url(#p9d6ca268a8)" style="fill: none; stroke-dasharray: 0.8,1.32; stroke-dashoffset: 0; stroke: #d9d9d9; stroke-width: 0.8"/>
     </g>
     <g id="line2d_12">
      <g>
       <use xlink:href="#m1dbd7b28cf" x="133.84375" y="354.96" style="stroke: #000000; stroke-width: 0.8"/>
      </g>
     </g>
     <g id="text_6">
      <!-- .25 -->
      <g transform="translate(125.892188 369.558437) scale(0.1 -0.1)">
       <use xlink:href="#DejaVuSans-2e"/>
       <use xlink:href="#DejaVuSans-32" x="31.787109"/>
       <use xlink:href="#DejaVuSans-35" x="95.410156"/>
      </g>
     </g>
    </g>
    <g id="xtick_7">
     <g id="line2d_13">
      <path d="M 150.583754 354.96 
L 150.583754 22.32 
" clip-path="url(#p9d6ca268a8)" style="fill: none; stroke-dasharray: 0.8,1.32; stroke-dashoffset: 0; stroke: #d9d9d9; stroke-width: 0.8"/>
     </g>
     <g id="line2d_14">
      <g>
       <use xlink:href="#m1dbd7b28cf" x="150.583754" y="354.96" style="stroke: #000000; stroke-width: 0.8"/>
      </g>
     </g>
     <g id="text_7">
      <!-- .30 -->
      <g transform="translate(142.632191 369.558437) scale(0.1 -0.1)">
       <defs>
        <path id="DejaVuSans-33" d="M 2597 2516 
Q 3050 2419 3304 2112 
Q 3559 1806 3559 1356 
Q 3559 666 3084 287 
Q 2609 -91 1734 -91 
Q 1441 -91 1130 -33 
Q 819 25 488 141 
L 488 750 
Q 750 597 1062 519 
Q 1375 441 1716 441 
Q 2309 441 2620 675 
Q 2931 909 2931 1356 
Q 2931 1769 2642 2001 
Q 2353 2234 1838 2234 
L 1294 2234 
L 1294 2753 
L 1863 2753 
Q 2328 2753 2575 2939 
Q 2822 3125 2822 3475 
Q 2822 3834 2567 4026 
Q 2313 4219 1838 4219 
Q 1578 4219 1281 4162 
Q 984 4106 628 3988 
L 628 4550 
Q 988 4650 1302 4700 
Q 1616 4750 1894 4750 
Q 2613 4750 3031 4423 
Q 3450 4097 3450 3541 
Q 3450 3153 3228 2886 
Q 3006 2619 2597 2516 
z
" transform="scale(0.015625)"/>
       </defs>
       <use xlink:href="#DejaVuSans-2e"/>
       <use xlink:href="#DejaVuSans-33" x="31.787109"/>
       <use xlink:href="#DejaVuSans-30" x="95.410156"/>
      </g>
     </g>
    </g>
    <g id="xtick_8">
     <g id="line2d_15">
      <path d="M 167.323748 354.96 
L 167.323748 22.32 
" clip-path="url(#p9d6ca268a8)" style="fill: none; stroke-dasharray: 0.8,1.32; stroke-dashoffset: 0; stroke: #d9d9d9; stroke-width: 0.8"/>
     </g>
     <g id="line2d_16">
      <g>
       <use xlink:href="#m1dbd7b28cf" x="167.323748" y="354.96" style="stroke: #000000; stroke-width: 0.8"/>
      </g>
     </g>
     <g id="text_8">
      <!-- .35 -->
      <g transform="translate(159.372186 369.558437) scale(0.1 -0.1)">
       <use xlink:href="#DejaVuSans-2e"/>
       <use xlink:href="#DejaVuSans-33" x="31.787109"/>
       <use xlink:href="#DejaVuSans-35" x="95.410156"/>
      </g>
     </g>
    </g>
    <g id="xtick_9">
     <g id="line2d_17">
      <path d="M 184.063752 354.96 
L 184.063752 22.32 
" clip-path="url(#p9d6ca268a8)" style="fill: none; stroke-dasharray: 0.8,1.32; stroke-dashoffset: 0; stroke: #d9d9d9; stroke-width: 0.8"/>
     </g>
     <g id="line2d_18">
      <g>
       <use xlink:href="#m1dbd7b28cf" x="184.063752" y="354.96" style="stroke: #000000; stroke-width: 0.8"/>
      </g>
     </g>
     <g id="text_9">
      <!-- .40 -->
      <g transform="translate(176.112189 369.558437) scale(0.1 -0.1)">
       <defs>
        <path id="DejaVuSans-34" d="M 2419 4116 
L 825 1625 
L 2419 1625 
L 2419 4116 
z
M 2253 4666 
L 3047 4666 
L 3047 1625 
L 3713 1625 
L 3713 1100 
L 3047 1100 
L 3047 0 
L 2419 0 
L 2419 1100 
L 313 1100 
L 313 1709 
L 2253 4666 
z
" transform="scale(0.015625)"/>
       </defs>
       <use xlink:href="#DejaVuSans-2e"/>
       <use xlink:href="#DejaVuSans-34" x="31.787109"/>
       <use xlink:href="#DejaVuSans-30" x="95.410156"/>
      </g>
     </g>
    </g>
    <g id="xtick_10">
     <g id="line2d_19">
      <path d="M 200.803756 354.96 
L 200.803756 22.32 
" clip-path="url(#p9d6ca268a8)" style="fill: none; stroke-dasharray: 0.8,1.32; stroke-dashoffset: 0; stroke: #d9d9d9; stroke-width: 0.8"/>
     </g>
     <g id="line2d_20">
      <g>
       <use xlink:href="#m1dbd7b28cf" x="200.803756" y="354.96" style="stroke: #000000; stroke-width: 0.8"/>
      </g>
     </g>
     <g id="text_10">
      <!-- .45 -->
      <g transform="translate(192.852193 369.558437) scale(0.1 -0.1)">
       <use xlink:href="#DejaVuSans-2e"/>
       <use xlink:href="#DejaVuSans-34" x="31.787109"/>
       <use xlink:href="#DejaVuSans-35" x="95.410156"/>
      </g>
     </g>
    </g>
    <g id="xtick_11">
     <g id="line2d_21">
      <path d="M 217.54375 354.96 
L 217.54375 22.32 
" clip-path="url(#p9d6ca268a8)" style="fill: none; stroke-dasharray: 0.8,1.32; stroke-dashoffset: 0; stroke: #d9d9d9; stroke-width: 0.8"/>
     </g>
     <g id="line2d_22">
      <g>
       <use xlink:href="#m1dbd7b28cf" x="217.54375" y="354.96" style="stroke: #000000; stroke-width: 0.8"/>
      </g>
     </g>
     <g id="text_11">
      <!-- .50 -->
      <g transform="translate(209.592188 369.558437) scale(0.1 -0.1)">
       <use xlink:href="#DejaVuSans-2e"/>
       <use xlink:href="#DejaVuSans-35" x="31.787109"/>
       <use xlink:href="#DejaVuSans-30" x="95.410156"/>
      </g>
     </g>
    </g>
    <g id="xtick_12">
     <g id="line2d_23">
      <path d="M 234.283754 354.96 
L 234.283754 22.32 
" clip-path="url(#p9d6ca268a8)" style="fill: none; stroke-dasharray: 0.8,1.32; stroke-dashoffset: 0; stroke: #d9d9d9; stroke-width: 0.8"/>
     </g>
     <g id="line2d_24">
      <g>
       <use xlink:href="#m1dbd7b28cf" x="234.283754" y="354.96" style="stroke: #000000; stroke-width: 0.8"/>
      </g>
     </g>
     <g id="text_12">
      <!-- .55 -->
      <g transform="translate(226.332191 369.558437) scale(0.1 -0.1)">
       <use xlink:href="#DejaVuSans-2e"/>
       <use xlink:href="#DejaVuSans-35" x="31.787109"/>
       <use xlink:href="#DejaVuSans-35" x="95.410156"/>
      </g>
     </g>
    </g>
    <g id="xtick_13">
     <g id="line2d_25">
      <path d="M 251.023758 354.96 
L 251.023758 22.32 
" clip-path="url(#p9d6ca268a8)" style="fill: none; stroke-dasharray: 0.8,1.32; stroke-dashoffset: 0; stroke: #d9d9d9; stroke-width: 0.8"/>
     </g>
     <g id="line2d_26">
      <g>
       <use xlink:href="#m1dbd7b28cf" x="251.023758" y="354.96" style="stroke: #000000; stroke-width: 0.8"/>
      </g>
     </g>
     <g id="text_13">
      <!-- .60 -->
      <g transform="translate(243.072195 369.558437) scale(0.1 -0.1)">
       <defs>
        <path id="DejaVuSans-36" d="M 2113 2584 
Q 1688 2584 1439 2293 
Q 1191 2003 1191 1497 
Q 1191 994 1439 701 
Q 1688 409 2113 409 
Q 2538 409 2786 701 
Q 3034 994 3034 1497 
Q 3034 2003 2786 2293 
Q 2538 2584 2113 2584 
z
M 3366 4563 
L 3366 3988 
Q 3128 4100 2886 4159 
Q 2644 4219 2406 4219 
Q 1781 4219 1451 3797 
Q 1122 3375 1075 2522 
Q 1259 2794 1537 2939 
Q 1816 3084 2150 3084 
Q 2853 3084 3261 2657 
Q 3669 2231 3669 1497 
Q 3669 778 3244 343 
Q 2819 -91 2113 -91 
Q 1303 -91 875 529 
Q 447 1150 447 2328 
Q 447 3434 972 4092 
Q 1497 4750 2381 4750 
Q 2619 4750 2861 4703 
Q 3103 4656 3366 4563 
z
" transform="scale(0.015625)"/>
       </defs>
       <use xlink:href="#DejaVuSans-2e"/>
       <use xlink:href="#DejaVuSans-36" x="31.787109"/>
       <use xlink:href="#DejaVuSans-30" x="95.410156"/>
      </g>
     </g>
    </g>
    <g id="xtick_14">
     <g id="line2d_27">
      <path d="M 267.763742 354.96 
L 267.763742 22.32 
" clip-path="url(#p9d6ca268a8)" style="fill: none; stroke-dasharray: 0.8,1.32; stroke-dashoffset: 0; stroke: #d9d9d9; stroke-width: 0.8"/>
     </g>
     <g id="line2d_28">
      <g>
       <use xlink:href="#m1dbd7b28cf" x="267.763742" y="354.96" style="stroke: #000000; stroke-width: 0.8"/>
      </g>
     </g>
     <g id="text_14">
      <!-- .65 -->
      <g transform="translate(259.81218 369.558437) scale(0.1 -0.1)">
       <use xlink:href="#DejaVuSans-2e"/>
       <use xlink:href="#DejaVuSans-36" x="31.787109"/>
       <use xlink:href="#DejaVuSans-35" x="95.410156"/>
      </g>
     </g>
    </g>
    <g id="xtick_15">
     <g id="line2d_29">
      <path d="M 284.503746 354.96 
L 284.503746 22.32 
" clip-path="url(#p9d6ca268a8)" style="fill: none; stroke-dasharray: 0.8,1.32; stroke-dashoffset: 0; stroke: #d9d9d9; stroke-width: 0.8"/>
     </g>
     <g id="line2d_30">
      <g>
       <use xlink:href="#m1dbd7b28cf" x="284.503746" y="354.96" style="stroke: #000000; stroke-width: 0.8"/>
      </g>
     </g>
     <g id="text_15">
      <!-- .70 -->
      <g transform="translate(276.552184 369.558437) scale(0.1 -0.1)">
       <defs>
        <path id="DejaVuSans-37" d="M 525 4666 
L 3525 4666 
L 3525 4397 
L 1831 0 
L 1172 0 
L 2766 4134 
L 525 4134 
L 525 4666 
z
" transform="scale(0.015625)"/>
       </defs>
       <use xlink:href="#DejaVuSans-2e"/>
       <use xlink:href="#DejaVuSans-37" x="31.787109"/>
       <use xlink:href="#DejaVuSans-30" x="95.410156"/>
      </g>
     </g>
    </g>
    <g id="xtick_16">
     <g id="line2d_31">
      <path d="M 301.24375 354.96 
L 301.24375 22.32 
" clip-path="url(#p9d6ca268a8)" style="fill: none; stroke-dasharray: 0.8,1.32; stroke-dashoffset: 0; stroke: #d9d9d9; stroke-width: 0.8"/>
     </g>
     <g id="line2d_32">
      <g>
       <use xlink:href="#m1dbd7b28cf" x="301.24375" y="354.96" style="stroke: #000000; stroke-width: 0.8"/>
      </g>
     </g>
     <g id="text_16">
      <!-- .75 -->
      <g transform="translate(293.292188 369.558437) scale(0.1 -0.1)">
       <use xlink:href="#DejaVuSans-2e"/>
       <use xlink:href="#DejaVuSans-37" x="31.787109"/>
       <use xlink:href="#DejaVuSans-35" x="95.410156"/>
      </g>
     </g>
    </g>
    <g id="xtick_17">
     <g id="line2d_33">
      <path d="M 317.983754 354.96 
L 317.983754 22.32 
" clip-path="url(#p9d6ca268a8)" style="fill: none; stroke-dasharray: 0.8,1.32; stroke-dashoffset: 0; stroke: #d9d9d9; stroke-width: 0.8"/>
     </g>
     <g id="line2d_34">
      <g>
       <use xlink:href="#m1dbd7b28cf" x="317.983754" y="354.96" style="stroke: #000000; stroke-width: 0.8"/>
      </g>
     </g>
     <g id="text_17">
      <!-- .80 -->
      <g transform="translate(310.032191 369.558437) scale(0.1 -0.1)">
       <defs>
        <path id="DejaVuSans-38" d="M 2034 2216 
Q 1584 2216 1326 1975 
Q 1069 1734 1069 1313 
Q 1069 891 1326 650 
Q 1584 409 2034 409 
Q 2484 409 2743 651 
Q 3003 894 3003 1313 
Q 3003 1734 2745 1975 
Q 2488 2216 2034 2216 
z
M 1403 2484 
Q 997 2584 770 2862 
Q 544 3141 544 3541 
Q 544 4100 942 4425 
Q 1341 4750 2034 4750 
Q 2731 4750 3128 4425 
Q 3525 4100 3525 3541 
Q 3525 3141 3298 2862 
Q 3072 2584 2669 2484 
Q 3125 2378 3379 2068 
Q 3634 1759 3634 1313 
Q 3634 634 3220 271 
Q 2806 -91 2034 -91 
Q 1263 -91 848 271 
Q 434 634 434 1313 
Q 434 1759 690 2068 
Q 947 2378 1403 2484 
z
M 1172 3481 
Q 1172 3119 1398 2916 
Q 1625 2713 2034 2713 
Q 2441 2713 2670 2916 
Q 2900 3119 2900 3481 
Q 2900 3844 2670 4047 
Q 2441 4250 2034 4250 
Q 1625 4250 1398 4047 
Q 1172 3844 1172 3481 
z
" transform="scale(0.015625)"/>
       </defs>
       <use xlink:href="#DejaVuSans-2e"/>
       <use xlink:href="#DejaVuSans-38" x="31.787109"/>
       <use xlink:href="#DejaVuSans-30" x="95.410156"/>
      </g>
     </g>
    </g>
    <g id="xtick_18">
     <g id="line2d_35">
      <path d="M 334.723758 354.96 
L 334.723758 22.32 
" clip-path="url(#p9d6ca268a8)" style="fill: none; stroke-dasharray: 0.8,1.32; stroke-dashoffset: 0; stroke: #d9d9d9; stroke-width: 0.8"/>
     </g>
     <g id="line2d_36">
      <g>
       <use xlink:href="#m1dbd7b28cf" x="334.723758" y="354.96" style="stroke: #000000; stroke-width: 0.8"/>
      </g>
     </g>
     <g id="text_18">
      <!-- .85 -->
      <g transform="translate(326.772195 369.558437) scale(0.1 -0.1)">
       <use xlink:href="#DejaVuSans-2e"/>
       <use xlink:href="#DejaVuSans-38" x="31.787109"/>
       <use xlink:href="#DejaVuSans-35" x="95.410156"/>
      </g>
     </g>
    </g>
    <g id="xtick_19">
     <g id="line2d_37">
      <path d="M 351.463742 354.96 
L 351.463742 22.32 
" clip-path="url(#p9d6ca268a8)" style="fill: none; stroke-dasharray: 0.8,1.32; stroke-dashoffset: 0; stroke: #d9d9d9; stroke-width: 0.8"/>
     </g>
     <g id="line2d_38">
      <g>
       <use xlink:href="#m1dbd7b28cf" x="351.463742" y="354.96" style="stroke: #000000; stroke-width: 0.8"/>
      </g>
     </g>
     <g id="text_19">
      <!-- .90 -->
      <g transform="translate(343.51218 369.558437) scale(0.1 -0.1)">
       <defs>
        <path id="DejaVuSans-39" d="M 703 97 
L 703 672 
Q 941 559 1184 500 
Q 1428 441 1663 441 
Q 2288 441 2617 861 
Q 2947 1281 2994 2138 
Q 2813 1869 2534 1725 
Q 2256 1581 1919 1581 
Q 1219 1581 811 2004 
Q 403 2428 403 3163 
Q 403 3881 828 4315 
Q 1253 4750 1959 4750 
Q 2769 4750 3195 4129 
Q 3622 3509 3622 2328 
Q 3622 1225 3098 567 
Q 2575 -91 1691 -91 
Q 1453 -91 1209 -44 
Q 966 3 703 97 
z
M 1959 2075 
Q 2384 2075 2632 2365 
Q 2881 2656 2881 3163 
Q 2881 3666 2632 3958 
Q 2384 4250 1959 4250 
Q 1534 4250 1286 3958 
Q 1038 3666 1038 3163 
Q 1038 2656 1286 2365 
Q 1534 2075 1959 2075 
z
" transform="scale(0.015625)"/>
       </defs>
       <use xlink:href="#DejaVuSans-2e"/>
       <use xlink:href="#DejaVuSans-39" x="31.787109"/>
       <use xlink:href="#DejaVuSans-30" x="95.410156"/>
      </g>
     </g>
    </g>
    <g id="xtick_20">
     <g id="line2d_39">
      <path d="M 368.203746 354.96 
L 368.203746 22.32 
" clip-path="url(#p9d6ca268a8)" style="fill: none; stroke-dasharray: 0.8,1.32; stroke-dashoffset: 0; stroke: #d9d9d9; stroke-width: 0.8"/>
     </g>
     <g id="line2d_40">
      <g>
       <use xlink:href="#m1dbd7b28cf" x="368.203746" y="354.96" style="stroke: #000000; stroke-width: 0.8"/>
      </g>
     </g>
     <g id="text_20">
      <!-- .95 -->
      <g transform="translate(360.252184 369.558437) scale(0.1 -0.1)">
       <use xlink:href="#DejaVuSans-2e"/>
       <use xlink:href="#DejaVuSans-39" x="31.787109"/>
       <use xlink:href="#DejaVuSans-35" x="95.410156"/>
      </g>
     </g>
    </g>
    <g id="text_21">
     <!-- Major self-weight -->
     <g transform="translate(174.855469 383.236562) scale(0.1 -0.1)">
      <defs>
       <path id="DejaVuSans-4d" d="M 628 4666 
L 1569 4666 
L 2759 1491 
L 3956 4666 
L 4897 4666 
L 4897 0 
L 4281 0 
L 4281 4097 
L 3078 897 
L 2444 897 
L 1241 4097 
L 1241 0 
L 628 0 
L 628 4666 
z
" transform="scale(0.015625)"/>
       <path id="DejaVuSans-61" d="M 2194 1759 
Q 1497 1759 1228 1600 
Q 959 1441 959 1056 
Q 959 750 1161 570 
Q 1363 391 1709 391 
Q 2188 391 2477 730 
Q 2766 1069 2766 1631 
L 2766 1759 
L 2194 1759 
z
M 3341 1997 
L 3341 0 
L 2766 0 
L 2766 531 
Q 2569 213 2275 61 
Q 1981 -91 1556 -91 
Q 1019 -91 701 211 
Q 384 513 384 1019 
Q 384 1609 779 1909 
Q 1175 2209 1959 2209 
L 2766 2209 
L 2766 2266 
Q 2766 2663 2505 2880 
Q 2244 3097 1772 3097 
Q 1472 3097 1187 3025 
Q 903 2953 641 2809 
L 641 3341 
Q 956 3463 1253 3523 
Q 1550 3584 1831 3584 
Q 2591 3584 2966 3190 
Q 3341 2797 3341 1997 
z
" transform="scale(0.015625)"/>
       <path id="DejaVuSans-6a" d="M 603 3500 
L 1178 3500 
L 1178 -63 
Q 1178 -731 923 -1031 
Q 669 -1331 103 -1331 
L -116 -1331 
L -116 -844 
L 38 -844 
Q 366 -844 484 -692 
Q 603 -541 603 -63 
L 603 3500 
z
M 603 4863 
L 1178 4863 
L 1178 4134 
L 603 4134 
L 603 4863 
z
" transform="scale(0.015625)"/>
       <path id="DejaVuSans-6f" d="M 1959 3097 
Q 1497 3097 1228 2736 
Q 959 2375 959 1747 
Q 959 1119 1226 758 
Q 1494 397 1959 397 
Q 2419 397 2687 759 
Q 2956 1122 2956 1747 
Q 2956 2369 2687 2733 
Q 2419 3097 1959 3097 
z
M 1959 3584 
Q 2709 3584 3137 3096 
Q 3566 2609 3566 1747 
Q 3566 888 3137 398 
Q 2709 -91 1959 -91 
Q 1206 -91 779 398 
Q 353 888 353 1747 
Q 353 2609 779 3096 
Q 1206 3584 1959 3584 
z
" transform="scale(0.015625)"/>
       <path id="DejaVuSans-72" d="M 2631 2963 
Q 2534 3019 2420 3045 
Q 2306 3072 2169 3072 
Q 1681 3072 1420 2755 
Q 1159 2438 1159 1844 
L 1159 0 
L 581 0 
L 581 3500 
L 1159 3500 
L 1159 2956 
Q 1341 3275 1631 3429 
Q 1922 3584 2338 3584 
Q 2397 3584 2469 3576 
Q 2541 3569 2628 3553 
L 2631 2963 
z
" transform="scale(0.015625)"/>
       <path id="DejaVuSans-20" transform="scale(0.015625)"/>
       <path id="DejaVuSans-73" d="M 2834 3397 
L 2834 2853 
Q 2591 2978 2328 3040 
Q 2066 3103 1784 3103 
Q 1356 3103 1142 2972 
Q 928 2841 928 2578 
Q 928 2378 1081 2264 
Q 1234 2150 1697 2047 
L 1894 2003 
Q 2506 1872 2764 1633 
Q 3022 1394 3022 966 
Q 3022 478 2636 193 
Q 2250 -91 1575 -91 
Q 1294 -91 989 -36 
Q 684 19 347 128 
L 347 722 
Q 666 556 975 473 
Q 1284 391 1588 391 
Q 1994 391 2212 530 
Q 2431 669 2431 922 
Q 2431 1156 2273 1281 
Q 2116 1406 1581 1522 
L 1381 1569 
Q 847 1681 609 1914 
Q 372 2147 372 2553 
Q 372 3047 722 3315 
Q 1072 3584 1716 3584 
Q 2034 3584 2315 3537 
Q 2597 3491 2834 3397 
z
" transform="scale(0.015625)"/>
       <path id="DejaVuSans-65" d="M 3597 1894 
L 3597 1613 
L 953 1613 
Q 991 1019 1311 708 
Q 1631 397 2203 397 
Q 2534 397 2845 478 
Q 3156 559 3463 722 
L 3463 178 
Q 3153 47 2828 -22 
Q 2503 -91 2169 -91 
Q 1331 -91 842 396 
Q 353 884 353 1716 
Q 353 2575 817 3079 
Q 1281 3584 2069 3584 
Q 2775 3584 3186 3129 
Q 3597 2675 3597 1894 
z
M 3022 2063 
Q 3016 2534 2758 2815 
Q 2500 3097 2075 3097 
Q 1594 3097 1305 2825 
Q 1016 2553 972 2059 
L 3022 2063 
z
" transform="scale(0.015625)"/>
       <path id="DejaVuSans-6c" d="M 603 4863 
L 1178 4863 
L 1178 0 
L 603 0 
L 603 4863 
z
" transform="scale(0.015625)"/>
       <path id="DejaVuSans-66" d="M 2375 4863 
L 2375 4384 
L 1825 4384 
Q 1516 4384 1395 4259 
Q 1275 4134 1275 3809 
L 1275 3500 
L 2222 3500 
L 2222 3053 
L 1275 3053 
L 1275 0 
L 697 0 
L 697 3053 
L 147 3053 
L 147 3500 
L 697 3500 
L 697 3744 
Q 697 4328 969 4595 
Q 1241 4863 1831 4863 
L 2375 4863 
z
" transform="scale(0.015625)"/>
       <path id="DejaVuSans-2d" d="M 313 2009 
L 1997 2009 
L 1997 1497 
L 313 1497 
L 313 2009 
z
" transform="scale(0.015625)"/>
       <path id="DejaVuSans-77" d="M 269 3500 
L 844 3500 
L 1563 769 
L 2278 3500 
L 2956 3500 
L 3675 769 
L 4391 3500 
L 4966 3500 
L 4050 0 
L 3372 0 
L 2619 2869 
L 1863 0 
L 1184 0 
L 269 3500 
z
" transform="scale(0.015625)"/>
       <path id="DejaVuSans-69" d="M 603 3500 
L 1178 3500 
L 1178 0 
L 603 0 
L 603 3500 
z
M 603 4863 
L 1178 4863 
L 1178 4134 
L 603 4134 
L 603 4863 
z
" transform="scale(0.015625)"/>
       <path id="DejaVuSans-67" d="M 2906 1791 
Q 2906 2416 2648 2759 
Q 2391 3103 1925 3103 
Q 1463 3103 1205 2759 
Q 947 2416 947 1791 
Q 947 1169 1205 825 
Q 1463 481 1925 481 
Q 2391 481 2648 825 
Q 2906 1169 2906 1791 
z
M 3481 434 
Q 3481 -459 3084 -895 
Q 2688 -1331 1869 -1331 
Q 1566 -1331 1297 -1286 
Q 1028 -1241 775 -1147 
L 775 -588 
Q 1028 -725 1275 -790 
Q 1522 -856 1778 -856 
Q 2344 -856 2625 -561 
Q 2906 -266 2906 331 
L 2906 616 
Q 2728 306 2450 153 
Q 2172 0 1784 0 
Q 1141 0 747 490 
Q 353 981 353 1791 
Q 353 2603 747 3093 
Q 1141 3584 1784 3584 
Q 2172 3584 2450 3431 
Q 2728 3278 2906 2969 
L 2906 3500 
L 3481 3500 
L 3481 434 
z
" transform="scale(0.015625)"/>
       <path id="DejaVuSans-68" d="M 3513 2113 
L 3513 0 
L 2938 0 
L 2938 2094 
Q 2938 2591 2744 2837 
Q 2550 3084 2163 3084 
Q 1697 3084 1428 2787 
Q 1159 2491 1159 1978 
L 1159 0 
L 581 0 
L 581 4863 
L 1159 4863 
L 1159 2956 
Q 1366 3272 1645 3428 
Q 1925 3584 2291 3584 
Q 2894 3584 3203 3211 
Q 3513 2838 3513 2113 
z
" transform="scale(0.015625)"/>
       <path id="DejaVuSans-74" d="M 1172 4494 
L 1172 3500 
L 2356 3500 
L 2356 3053 
L 1172 3053 
L 1172 1153 
Q 1172 725 1289 603 
Q 1406 481 1766 481 
L 2356 481 
L 2356 0 
L 1766 0 
Q 1100 0 847 248 
Q 594 497 594 1153 
L 594 3053 
L 172 3053 
L 172 3500 
L 594 3500 
L 594 4494 
L 1172 4494 
z
" transform="scale(0.015625)"/>
      </defs>
      <use xlink:href="#DejaVuSans-4d"/>
      <use xlink:href="#DejaVuSans-61" x="86.279297"/>
      <use xlink:href="#DejaVuSans-6a" x="147.558594"/>
      <use xlink:href="#DejaVuSans-6f" x="175.341797"/>
      <use xlink:href="#DejaVuSans-72" x="236.523438"/>
      <use xlink:href="#DejaVuSans-20" x="277.636719"/>
      <use xlink:href="#DejaVuSans-73" x="309.423828"/>
      <use xlink:href="#DejaVuSans-65" x="361.523438"/>
      <use xlink:href="#DejaVuSans-6c" x="423.046875"/>
      <use xlink:href="#DejaVuSans-66" x="450.830078"/>
      <use xlink:href="#DejaVuSans-2d" x="480.535156"/>
      <use xlink:href="#DejaVuSans-77" x="516.619141"/>
      <use xlink:href="#DejaVuSans-65" x="598.40625"/>
      <use xlink:href="#DejaVuSans-69" x="659.929688"/>
      <use xlink:href="#DejaVuSans-67" x="687.712891"/>
      <use xlink:href="#DejaVuSans-68" x="751.189453"/>
      <use xlink:href="#DejaVuSans-74" x="814.568359"/>
     </g>
    </g>
   </g>
   <g id="matplotlib.axis_2">
    <g id="ytick_1">
     <g id="line2d_41">
      <path d="M 50.14375 354.96 
L 384.94375 354.96 
" clip-path="url(#p9d6ca268a8)" style="fill: none; stroke-dasharray: 0.8,1.32; stroke-dashoffset: 0; stroke: #d9d9d9; stroke-width: 0.8"/>
     </g>
     <g id="line2d_42">
      <defs>
       <path id="mb6965dd771" d="M 0 0 
L -3.5 0 
" style="stroke: #000000; stroke-width: 0.8"/>
      </defs>
      <g>
       <use xlink:href="#mb6965dd771" x="50.14375" y="354.96" style="stroke: #000000; stroke-width: 0.8"/>
      </g>
     </g>
     <g id="text_22">
      <!-- 0.00 -->
      <g transform="translate(20.878125 358.759219) scale(0.1 -0.1)">
       <use xlink:href="#DejaVuSans-30"/>
       <use xlink:href="#DejaVuSans-2e" x="63.623047"/>
       <use xlink:href="#DejaVuSans-30" x="95.410156"/>
       <use xlink:href="#DejaVuSans-30" x="159.033203"/>
      </g>
     </g>
    </g>
    <g id="ytick_2">
     <g id="line2d_43">
      <path d="M 50.14375 338.328 
L 384.94375 338.328 
" clip-path="url(#p9d6ca268a8)" style="fill: none; stroke-dasharray: 0.8,1.32; stroke-dashoffset: 0; stroke: #d9d9d9; stroke-width: 0.8"/>
     </g>
     <g id="line2d_44">
      <g>
       <use xlink:href="#mb6965dd771" x="50.14375" y="338.328" style="stroke: #000000; stroke-width: 0.8"/>
      </g>
     </g>
     <g id="text_23">
      <!-- 0.05 -->
      <g transform="translate(20.878125 342.127219) scale(0.1 -0.1)">
       <use xlink:href="#DejaVuSans-30"/>
       <use xlink:href="#DejaVuSans-2e" x="63.623047"/>
       <use xlink:href="#DejaVuSans-30" x="95.410156"/>
       <use xlink:href="#DejaVuSans-35" x="159.033203"/>
      </g>
     </g>
    </g>
    <g id="ytick_3">
     <g id="line2d_45">
      <path d="M 50.14375 321.696 
L 384.94375 321.696 
" clip-path="url(#p9d6ca268a8)" style="fill: none; stroke-dasharray: 0.8,1.32; stroke-dashoffset: 0; stroke: #d9d9d9; stroke-width: 0.8"/>
     </g>
     <g id="line2d_46">
      <g>
       <use xlink:href="#mb6965dd771" x="50.14375" y="321.696" style="stroke: #000000; stroke-width: 0.8"/>
      </g>
     </g>
     <g id="text_24">
      <!-- 0.10 -->
      <g transform="translate(20.878125 325.495218) scale(0.1 -0.1)">
       <use xlink:href="#DejaVuSans-30"/>
       <use xlink:href="#DejaVuSans-2e" x="63.623047"/>
       <use xlink:href="#DejaVuSans-31" x="95.410156"/>
       <use xlink:href="#DejaVuSans-30" x="159.033203"/>
      </g>
     </g>
    </g>
    <g id="ytick_4">
     <g id="line2d_47">
      <path d="M 50.14375 305.063998 
L 384.94375 305.063998 
" clip-path="url(#p9d6ca268a8)" style="fill: none; stroke-dasharray: 0.8,1.32; stroke-dashoffset: 0; stroke: #d9d9d9; stroke-width: 0.8"/>
     </g>
     <g id="line2d_48">
      <g>
       <use xlink:href="#mb6965dd771" x="50.14375" y="305.063998" style="stroke: #000000; stroke-width: 0.8"/>
      </g>
     </g>
     <g id="text_25">
      <!-- 0.15 -->
      <g transform="translate(20.878125 308.863217) scale(0.1 -0.1)">
       <use xlink:href="#DejaVuSans-30"/>
       <use xlink:href="#DejaVuSans-2e" x="63.623047"/>
       <use xlink:href="#DejaVuSans-31" x="95.410156"/>
       <use xlink:href="#DejaVuSans-35" x="159.033203"/>
      </g>
     </g>
    </g>
    <g id="ytick_5">
     <g id="line2d_49">
      <path d="M 50.14375 288.431999 
L 384.94375 288.431999 
" clip-path="url(#p9d6ca268a8)" style="fill: none; stroke-dasharray: 0.8,1.32; stroke-dashoffset: 0; stroke: #d9d9d9; stroke-width: 0.8"/>
     </g>
     <g id="line2d_50">
      <g>
       <use xlink:href="#mb6965dd771" x="50.14375" y="288.431999" style="stroke: #000000; stroke-width: 0.8"/>
      </g>
     </g>
     <g id="text_26">
      <!-- 0.20 -->
      <g transform="translate(20.878125 292.231218) scale(0.1 -0.1)">
       <use xlink:href="#DejaVuSans-30"/>
       <use xlink:href="#DejaVuSans-2e" x="63.623047"/>
       <use xlink:href="#DejaVuSans-32" x="95.410156"/>
       <use xlink:href="#DejaVuSans-30" x="159.033203"/>
      </g>
     </g>
    </g>
    <g id="ytick_6">
     <g id="line2d_51">
      <path d="M 50.14375 271.8 
L 384.94375 271.8 
" clip-path="url(#p9d6ca268a8)" style="fill: none; stroke-dasharray: 0.8,1.32; stroke-dashoffset: 0; stroke: #d9d9d9; stroke-width: 0.8"/>
     </g>
     <g id="line2d_52">
      <g>
       <use xlink:href="#mb6965dd771" x="50.14375" y="271.8" style="stroke: #000000; stroke-width: 0.8"/>
      </g>
     </g>
     <g id="text_27">
      <!-- 0.25 -->
      <g transform="translate(20.878125 275.599219) scale(0.1 -0.1)">
       <use xlink:href="#DejaVuSans-30"/>
       <use xlink:href="#DejaVuSans-2e" x="63.623047"/>
       <use xlink:href="#DejaVuSans-32" x="95.410156"/>
       <use xlink:href="#DejaVuSans-35" x="159.033203"/>
      </g>
     </g>
    </g>
    <g id="ytick_7">
     <g id="line2d_53">
      <path d="M 50.14375 255.167996 
L 384.94375 255.167996 
" clip-path="url(#p9d6ca268a8)" style="fill: none; stroke-dasharray: 0.8,1.32; stroke-dashoffset: 0; stroke: #d9d9d9; stroke-width: 0.8"/>
     </g>
     <g id="line2d_54">
      <g>
       <use xlink:href="#mb6965dd771" x="50.14375" y="255.167996" style="stroke: #000000; stroke-width: 0.8"/>
      </g>
     </g>
     <g id="text_28">
      <!-- 0.30 -->
      <g transform="translate(20.878125 258.967215) scale(0.1 -0.1)">
       <use xlink:href="#DejaVuSans-30"/>
       <use xlink:href="#DejaVuSans-2e" x="63.623047"/>
       <use xlink:href="#DejaVuSans-33" x="95.410156"/>
       <use xlink:href="#DejaVuSans-30" x="159.033203"/>
      </g>
     </g>
    </g>
    <g id="ytick_8">
     <g id="line2d_55">
      <path d="M 50.14375 238.536002 
L 384.94375 238.536002 
" clip-path="url(#p9d6ca268a8)" style="fill: none; stroke-dasharray: 0.8,1.32; stroke-dashoffset: 0; stroke: #d9d9d9; stroke-width: 0.8"/>
     </g>
     <g id="line2d_56">
      <g>
       <use xlink:href="#mb6965dd771" x="50.14375" y="238.536002" style="stroke: #000000; stroke-width: 0.8"/>
      </g>
     </g>
     <g id="text_29">
      <!-- 0.35 -->
      <g transform="translate(20.878125 242.335221) scale(0.1 -0.1)">
       <use xlink:href="#DejaVuSans-30"/>
       <use xlink:href="#DejaVuSans-2e" x="63.623047"/>
       <use xlink:href="#DejaVuSans-33" x="95.410156"/>
       <use xlink:href="#DejaVuSans-35" x="159.033203"/>
      </g>
     </g>
    </g>
    <g id="ytick_9">
     <g id="line2d_57">
      <path d="M 50.14375 221.903998 
L 384.94375 221.903998 
" clip-path="url(#p9d6ca268a8)" style="fill: none; stroke-dasharray: 0.8,1.32; stroke-dashoffset: 0; stroke: #d9d9d9; stroke-width: 0.8"/>
     </g>
     <g id="line2d_58">
      <g>
       <use xlink:href="#mb6965dd771" x="50.14375" y="221.903998" style="stroke: #000000; stroke-width: 0.8"/>
      </g>
     </g>
     <g id="text_30">
      <!-- 0.40 -->
      <g transform="translate(20.878125 225.703217) scale(0.1 -0.1)">
       <use xlink:href="#DejaVuSans-30"/>
       <use xlink:href="#DejaVuSans-2e" x="63.623047"/>
       <use xlink:href="#DejaVuSans-34" x="95.410156"/>
       <use xlink:href="#DejaVuSans-30" x="159.033203"/>
      </g>
     </g>
    </g>
    <g id="ytick_10">
     <g id="line2d_59">
      <path d="M 50.14375 205.271994 
L 384.94375 205.271994 
" clip-path="url(#p9d6ca268a8)" style="fill: none; stroke-dasharray: 0.8,1.32; stroke-dashoffset: 0; stroke: #d9d9d9; stroke-width: 0.8"/>
     </g>
     <g id="line2d_60">
      <g>
       <use xlink:href="#mb6965dd771" x="50.14375" y="205.271994" style="stroke: #000000; stroke-width: 0.8"/>
      </g>
     </g>
     <g id="text_31">
      <!-- 0.45 -->
      <g transform="translate(20.878125 209.071213) scale(0.1 -0.1)">
       <use xlink:href="#DejaVuSans-30"/>
       <use xlink:href="#DejaVuSans-2e" x="63.623047"/>
       <use xlink:href="#DejaVuSans-34" x="95.410156"/>
       <use xlink:href="#DejaVuSans-35" x="159.033203"/>
      </g>
     </g>
    </g>
    <g id="ytick_11">
     <g id="line2d_61">
      <path d="M 50.14375 188.64 
L 384.94375 188.64 
" clip-path="url(#p9d6ca268a8)" style="fill: none; stroke-dasharray: 0.8,1.32; stroke-dashoffset: 0; stroke: #d9d9d9; stroke-width: 0.8"/>
     </g>
     <g id="line2d_62">
      <g>
       <use xlink:href="#mb6965dd771" x="50.14375" y="188.64" style="stroke: #000000; stroke-width: 0.8"/>
      </g>
     </g>
     <g id="text_32">
      <!-- 0.50 -->
      <g transform="translate(20.878125 192.439219) scale(0.1 -0.1)">
       <use xlink:href="#DejaVuSans-30"/>
       <use xlink:href="#DejaVuSans-2e" x="63.623047"/>
       <use xlink:href="#DejaVuSans-35" x="95.410156"/>
       <use xlink:href="#DejaVuSans-30" x="159.033203"/>
      </g>
     </g>
    </g>
    <g id="ytick_12">
     <g id="line2d_63">
      <path d="M 50.14375 172.007996 
L 384.94375 172.007996 
" clip-path="url(#p9d6ca268a8)" style="fill: none; stroke-dasharray: 0.8,1.32; stroke-dashoffset: 0; stroke: #d9d9d9; stroke-width: 0.8"/>
     </g>
     <g id="line2d_64">
      <g>
       <use xlink:href="#mb6965dd771" x="50.14375" y="172.007996" style="stroke: #000000; stroke-width: 0.8"/>
      </g>
     </g>
     <g id="text_33">
      <!-- 0.55 -->
      <g transform="translate(20.878125 175.807215) scale(0.1 -0.1)">
       <use xlink:href="#DejaVuSans-30"/>
       <use xlink:href="#DejaVuSans-2e" x="63.623047"/>
       <use xlink:href="#DejaVuSans-35" x="95.410156"/>
       <use xlink:href="#DejaVuSans-35" x="159.033203"/>
      </g>
     </g>
    </g>
    <g id="ytick_13">
     <g id="line2d_65">
      <path d="M 50.14375 155.375992 
L 384.94375 155.375992 
" clip-path="url(#p9d6ca268a8)" style="fill: none; stroke-dasharray: 0.8,1.32; stroke-dashoffset: 0; stroke: #d9d9d9; stroke-width: 0.8"/>
     </g>
     <g id="line2d_66">
      <g>
       <use xlink:href="#mb6965dd771" x="50.14375" y="155.375992" style="stroke: #000000; stroke-width: 0.8"/>
      </g>
     </g>
     <g id="text_34">
      <!-- 0.60 -->
      <g transform="translate(20.878125 159.175211) scale(0.1 -0.1)">
       <use xlink:href="#DejaVuSans-30"/>
       <use xlink:href="#DejaVuSans-2e" x="63.623047"/>
       <use xlink:href="#DejaVuSans-36" x="95.410156"/>
       <use xlink:href="#DejaVuSans-30" x="159.033203"/>
      </g>
     </g>
    </g>
    <g id="ytick_14">
     <g id="line2d_67">
      <path d="M 50.14375 138.744008 
L 384.94375 138.744008 
" clip-path="url(#p9d6ca268a8)" style="fill: none; stroke-dasharray: 0.8,1.32; stroke-dashoffset: 0; stroke: #d9d9d9; stroke-width: 0.8"/>
     </g>
     <g id="line2d_68">
      <g>
       <use xlink:href="#mb6965dd771" x="50.14375" y="138.744008" style="stroke: #000000; stroke-width: 0.8"/>
      </g>
     </g>
     <g id="text_35">
      <!-- 0.65 -->
      <g transform="translate(20.878125 142.543227) scale(0.1 -0.1)">
       <use xlink:href="#DejaVuSans-30"/>
       <use xlink:href="#DejaVuSans-2e" x="63.623047"/>
       <use xlink:href="#DejaVuSans-36" x="95.410156"/>
       <use xlink:href="#DejaVuSans-35" x="159.033203"/>
      </g>
     </g>
    </g>
    <g id="ytick_15">
     <g id="line2d_69">
      <path d="M 50.14375 122.112004 
L 384.94375 122.112004 
" clip-path="url(#p9d6ca268a8)" style="fill: none; stroke-dasharray: 0.8,1.32; stroke-dashoffset: 0; stroke: #d9d9d9; stroke-width: 0.8"/>
     </g>
     <g id="line2d_70">
      <g>
       <use xlink:href="#mb6965dd771" x="50.14375" y="122.112004" style="stroke: #000000; stroke-width: 0.8"/>
      </g>
     </g>
     <g id="text_36">
      <!-- 0.70 -->
      <g transform="translate(20.878125 125.911223) scale(0.1 -0.1)">
       <use xlink:href="#DejaVuSans-30"/>
       <use xlink:href="#DejaVuSans-2e" x="63.623047"/>
       <use xlink:href="#DejaVuSans-37" x="95.410156"/>
       <use xlink:href="#DejaVuSans-30" x="159.033203"/>
      </g>
     </g>
    </g>
    <g id="ytick_16">
     <g id="line2d_71">
      <path d="M 50.14375 105.48 
L 384.94375 105.48 
" clip-path="url(#p9d6ca268a8)" style="fill: none; stroke-dasharray: 0.8,1.32; stroke-dashoffset: 0; stroke: #d9d9d9; stroke-width: 0.8"/>
     </g>
     <g id="line2d_72">
      <g>
       <use xlink:href="#mb6965dd771" x="50.14375" y="105.48" style="stroke: #000000; stroke-width: 0.8"/>
      </g>
     </g>
     <g id="text_37">
      <!-- 0.75 -->
      <g transform="translate(20.878125 109.279219) scale(0.1 -0.1)">
       <use xlink:href="#DejaVuSans-30"/>
       <use xlink:href="#DejaVuSans-2e" x="63.623047"/>
       <use xlink:href="#DejaVuSans-37" x="95.410156"/>
       <use xlink:href="#DejaVuSans-35" x="159.033203"/>
      </g>
     </g>
    </g>
    <g id="ytick_17">
     <g id="line2d_73">
      <path d="M 50.14375 88.847996 
L 384.94375 88.847996 
" clip-path="url(#p9d6ca268a8)" style="fill: none; stroke-dasharray: 0.8,1.32; stroke-dashoffset: 0; stroke: #d9d9d9; stroke-width: 0.8"/>
     </g>
     <g id="line2d_74">
      <g>
       <use xlink:href="#mb6965dd771" x="50.14375" y="88.847996" style="stroke: #000000; stroke-width: 0.8"/>
      </g>
     </g>
     <g id="text_38">
      <!-- 0.80 -->
      <g transform="translate(20.878125 92.647215) scale(0.1 -0.1)">
       <use xlink:href="#DejaVuSans-30"/>
       <use xlink:href="#DejaVuSans-2e" x="63.623047"/>
       <use xlink:href="#DejaVuSans-38" x="95.410156"/>
       <use xlink:href="#DejaVuSans-30" x="159.033203"/>
      </g>
     </g>
    </g>
    <g id="ytick_18">
     <g id="line2d_75">
      <path d="M 50.14375 72.215992 
L 384.94375 72.215992 
" clip-path="url(#p9d6ca268a8)" style="fill: none; stroke-dasharray: 0.8,1.32; stroke-dashoffset: 0; stroke: #d9d9d9; stroke-width: 0.8"/>
     </g>
     <g id="line2d_76">
      <g>
       <use xlink:href="#mb6965dd771" x="50.14375" y="72.215992" style="stroke: #000000; stroke-width: 0.8"/>
      </g>
     </g>
     <g id="text_39">
      <!-- 0.85 -->
      <g transform="translate(20.878125 76.015211) scale(0.1 -0.1)">
       <use xlink:href="#DejaVuSans-30"/>
       <use xlink:href="#DejaVuSans-2e" x="63.623047"/>
       <use xlink:href="#DejaVuSans-38" x="95.410156"/>
       <use xlink:href="#DejaVuSans-35" x="159.033203"/>
      </g>
     </g>
    </g>
    <g id="ytick_19">
     <g id="line2d_77">
      <path d="M 50.14375 55.584008 
L 384.94375 55.584008 
" clip-path="url(#p9d6ca268a8)" style="fill: none; stroke-dasharray: 0.8,1.32; stroke-dashoffset: 0; stroke: #d9d9d9; stroke-width: 0.8"/>
     </g>
     <g id="line2d_78">
      <g>
       <use xlink:href="#mb6965dd771" x="50.14375" y="55.584008" style="stroke: #000000; stroke-width: 0.8"/>
      </g>
     </g>
     <g id="text_40">
      <!-- 0.90 -->
      <g transform="translate(20.878125 59.383227) scale(0.1 -0.1)">
       <use xlink:href="#DejaVuSans-30"/>
       <use xlink:href="#DejaVuSans-2e" x="63.623047"/>
       <use xlink:href="#DejaVuSans-39" x="95.410156"/>
       <use xlink:href="#DejaVuSans-30" x="159.033203"/>
      </g>
     </g>
    </g>
    <g id="ytick_20">
     <g id="line2d_79">
      <path d="M 50.14375 38.952004 
L 384.94375 38.952004 
" clip-path="url(#p9d6ca268a8)" style="fill: none; stroke-dasharray: 0.8,1.32; stroke-dashoffset: 0; stroke: #d9d9d9; stroke-width: 0.8"/>
     </g>
     <g id="line2d_80">
      <g>
       <use xlink:href="#mb6965dd771" x="50.14375" y="38.952004" style="stroke: #000000; stroke-width: 0.8"/>
      </g>
     </g>
     <g id="text_41">
      <!-- 0.95 -->
      <g transform="translate(20.878125 42.751223) scale(0.1 -0.1)">
       <use xlink:href="#DejaVuSans-30"/>
       <use xlink:href="#DejaVuSans-2e" x="63.623047"/>
       <use xlink:href="#DejaVuSans-39" x="95.410156"/>
       <use xlink:href="#DejaVuSans-35" x="159.033203"/>
      </g>
     </g>
    </g>
    <g id="text_42">
     <!-- Minor self-weight -->
     <g transform="translate(14.798438 231.432969) rotate(-90) scale(0.1 -0.1)">
      <defs>
       <path id="DejaVuSans-6e" d="M 3513 2113 
L 3513 0 
L 2938 0 
L 2938 2094 
Q 2938 2591 2744 2837 
Q 2550 3084 2163 3084 
Q 1697 3084 1428 2787 
Q 1159 2491 1159 1978 
L 1159 0 
L 581 0 
L 581 3500 
L 1159 3500 
L 1159 2956 
Q 1366 3272 1645 3428 
Q 1925 3584 2291 3584 
Q 2894 3584 3203 3211 
Q 3513 2838 3513 2113 
z
" transform="scale(0.015625)"/>
      </defs>
      <use xlink:href="#DejaVuSans-4d"/>
      <use xlink:href="#DejaVuSans-69" x="86.279297"/>
      <use xlink:href="#DejaVuSans-6e" x="114.0625"/>
      <use xlink:href="#DejaVuSans-6f" x="177.441406"/>
      <use xlink:href="#DejaVuSans-72" x="238.623047"/>
      <use xlink:href="#DejaVuSans-20" x="279.736328"/>
      <use xlink:href="#DejaVuSans-73" x="311.523438"/>
      <use xlink:href="#DejaVuSans-65" x="363.623047"/>
      <use xlink:href="#DejaVuSans-6c" x="425.146484"/>
      <use xlink:href="#DejaVuSans-66" x="452.929688"/>
      <use xlink:href="#DejaVuSans-2d" x="482.634766"/>
      <use xlink:href="#DejaVuSans-77" x="518.71875"/>
      <use xlink:href="#DejaVuSans-65" x="600.505859"/>
      <use xlink:href="#DejaVuSans-69" x="662.029297"/>
      <use xlink:href="#DejaVuSans-67" x="689.8125"/>
      <use xlink:href="#DejaVuSans-68" x="753.289062"/>
      <use xlink:href="#DejaVuSans-74" x="816.667969"/>
     </g>
    </g>
   </g>
   <g id="PathCollection_1">
    <path d="M 54.926608 354.96 
L 56.83975 352.298878 
L 59.518149 348.3072 
L 63.53575 342.863993 
L 64.492313 341.6544 
L 69.275168 335.0016 
L 70.23175 333.671031 
L 74.058048 328.348801 
L 74.206619 328.142142 
" clip-path="url(#p9d6ca268a8)" style="fill: none; stroke: #440154; stroke-width: 1.5"/>
    <path d="M 93.152476 302.025742 
L 93.363395 301.737601 
L 97.01575 296.747998 
L 98.35494 295.084803 
L 103.103034 288.432004 
L 103.711749 287.600418 
L 108.398938 281.7792 
L 110.407747 278.928002 
L 113.086161 275.126402 
L 117.103746 269.424004 
L 117.847744 268.473603 
L 123.055766 261.8208 
L 123.79975 260.712021 
L 127.984744 255.167996 
L 130.495748 251.841577 
L 133.006737 248.515202 
L 137.191747 241.862411 
L 137.191756 241.862399 
L 142.213733 235.209605 
L 143.88775 232.548449 
L 146.757451 228.556802 
L 150.583754 223.234563 
L 151.540325 221.904008 
L 155.605732 215.251204 
L 157.279748 212.590048 
L 160.149448 208.598401 
L 163.975751 203.276163 
L 164.932323 201.945607 
L 168.758588 195.292804 
L 170.671745 192.631647 
L 173.541445 188.64 
L 177.367748 181.987222 
L 177.367759 181.987206 
L 181.831733 175.334413 
L 184.063742 172.007972 
L 186.295732 168.681599 
L 190.759746 162.028821 
L 190.759756 162.028806 
L 195.223736 155.376012 
L 197.455749 152.049571 
L 199.687736 148.723198 
L 204.151743 143.40096 
L 205.108316 142.070405 
L 209.731768 135.417611 
L 210.847746 133.754424 
L 214.195726 128.764798 
L 217.54375 124.773102 
L 219.775736 122.112004 
L 224.239744 115.459226 
L 224.239754 115.45921 
L 229.979184 108.806397 
L 230.935737 107.475867 
L 234.762032 102.153603 
L 237.631751 98.161908 
L 239.305745 95.50081 
L 242.095739 88.847996 
L 244.327744 82.195224 
L 244.327751 82.195202 
L 245.666934 75.542389 
L 246.762654 68.889595 
L 247.371387 62.236802 
L 247.980107 55.584008 
L 248.588827 48.931194 
L 248.588827 42.278401 
L 249.197557 35.625607 
L 249.349737 28.972794 
L 249.806274 22.32 
" clip-path="url(#p9d6ca268a8)" style="fill: none; stroke: #440154; stroke-width: 1.5"/>
   </g>
   <g id="PathCollection_2">
    <path d="M 73.837294 354.96 
L 76.927749 350.96832 
L 79.159742 348.3072 
L 83.623748 343.4688 
L 85.449929 341.6544 
L 90.319749 335.740782 
L 90.989333 335.0016 
L 97.015743 328.348801 
L 97.01575 328.348792 
L 103.042149 321.696002 
L 103.711749 320.864404 
L 108.919759 315.043201 
L 110.407747 313.380003 
L 114.871752 308.3904 
L 117.103746 305.895609 
L 120.823734 301.737601 
L 123.79975 298.411192 
L 126.775745 295.084803 
L 130.495748 290.926806 
L 133.00675 288.432004 
L 137.191747 283.680014 
L 138.865763 281.7792 
L 143.88775 276.076782 
L 144.844303 275.126402 
L 150.583754 269.423984 
L 151.540305 268.473603 
L 157.279736 261.8208 
L 157.279748 261.820788 
L 159.801031 259.315772 
" clip-path="url(#p9d6ca268a8)" style="fill: none; stroke: #482173; stroke-width: 1.5"/>
    <path d="M 181.566168 235.526251 
L 181.831753 235.209605 
L 184.063742 232.5485 
L 187.411764 228.556802 
L 190.759746 224.565157 
L 192.991756 221.904008 
L 197.455749 216.581733 
L 198.571724 215.251204 
L 203.035742 208.598401 
L 204.151743 206.935207 
L 207.499765 201.945607 
L 210.847746 197.953957 
L 213.079756 195.292804 
L 217.543737 188.64 
L 217.54375 188.63998 
L 222.007755 181.987206 
L 224.239744 178.660839 
L 226.152898 175.334413 
L 229.979163 168.681599 
L 230.935737 167.018406 
L 234.283764 162.028806 
L 237.631739 155.376012 
L 237.631751 155.375996 
L 242.414608 148.723198 
L 244.327744 145.396831 
L 246.001758 142.070405 
L 250.067164 135.417611 
L 251.023738 133.754413 
L 253.534746 128.764798 
L 257.71974 122.112004 
L 257.719752 122.111984 
L 260.695745 115.45921 
L 263.671747 108.806397 
L 264.415745 107.143203 
L 266.424551 102.153603 
L 267.763734 95.50081 
L 269.285571 88.847996 
L 269.894291 82.195202 
L 270.503011 75.542389 
L 270.553741 68.889595 
L 270.553741 62.236802 
L 270.596663 55.584008 
L 270.596663 48.931194 
L 270.596663 42.278401 
L 270.596663 35.625607 
L 270.155175 28.972794 
L 270.155175 22.32 
" clip-path="url(#p9d6ca268a8)" style="fill: none; stroke: #482173; stroke-width: 1.5"/>
   </g>
   <g id="PathCollection_3">
    <path d="M 105.199755 354.96 
L 110.407747 349.785607 
L 112.081752 348.3072 
L 117.103746 343.871997 
L 119.61474 341.6544 
L 123.79975 337.958388 
L 127.147754 335.0016 
L 130.119391 332.377184 
" clip-path="url(#p9d6ca268a8)" style="fill: none; stroke: #433e85; stroke-width: 4"/>
    <path d="M 154.285971 310.993042 
L 157.279725 308.3904 
L 157.279748 308.39038 
L 163.975751 302.688019 
L 165.091768 301.737601 
L 170.671745 296.985604 
L 172.903764 295.084803 
L 177.367748 291.283213 
L 180.715752 288.432004 
L 184.063742 285.937201 
L 189.643729 281.7792 
L 190.759746 280.828794 
L 197.455723 275.126402 
L 197.455749 275.126379 
L 204.151743 270.374404 
L 206.383762 268.473603 
L 210.847746 264.672011 
L 214.195755 261.8208 
L 217.54375 258.494404 
L 221.561346 255.167996 
L 224.239744 252.506879 
L 228.25734 248.515202 
L 230.935737 245.854081 
L 234.953345 241.862399 
L 237.631751 238.536012 
L 240.310164 235.209605 
L 244.327744 230.220037 
L 245.443761 228.556802 
L 251.023706 221.904008 
L 251.023738 221.903955 
L 254.371751 215.251204 
L 257.719752 210.261636 
L 258.67634 208.598401 
L 262.502598 201.945607 
L 264.415745 197.51044 
L 265.372334 195.292804 
L 268.60074 188.64 
L 271.111719 181.987206 
L 271.111739 181.987153 
L 273.622736 175.334413 
L 276.133754 168.681599 
L 277.807752 164.246439 
L 278.644769 162.028806 
L 281.527751 155.376012 
L 283.759739 148.723198 
L 284.503746 146.505592 
L 285.842953 142.070405 
L 287.851727 135.417611 
L 289.982285 128.764798 
L 291.19974 124.329637 
L 291.757752 122.112004 
L 293.260042 115.45921 
L 294.290214 108.806397 
L 294.547749 102.153603 
L 295.02603 95.50081 
L 295.50431 88.847996 
L 295.217342 82.195202 
L 294.770947 75.542389 
L 294.770947 68.889595 
L 294.324551 62.236802 
L 293.710747 55.584008 
L 293.563043 48.931194 
L 293.169149 42.278401 
L 292.77527 35.625607 
L 292.31574 28.972794 
L 291.943745 22.32 
" clip-path="url(#p9d6ca268a8)" style="fill: none; stroke: #433e85; stroke-width: 4"/>
   </g>
   <g id="PathCollection_4">
    <path d="M 149.467736 354.96 
L 150.583754 354.128383 
L 157.279748 349.138808 
L 158.395764 348.3072 
L 163.975751 344.611198 
L 168.439729 341.6544 
L 170.671745 339.991195 
L 173.646694 337.774391 
" clip-path="url(#p9d6ca268a8)" style="fill: none; stroke: #38588c; stroke-width: 1.5"/>
    <path d="M 199.927013 319.066746 
L 204.151743 315.993608 
L 205.490959 315.043201 
L 210.847746 311.241599 
L 214.865333 308.3904 
L 217.54375 306.727195 
L 224.239744 302.688007 
L 225.578958 301.737601 
L 230.935737 298.411197 
L 236.292516 295.084803 
L 237.631751 294.134385 
L 244.327744 290.33281 
L 247.006142 288.432004 
L 251.023738 285.580793 
L 257.719752 281.779223 
L 257.719784 281.7792 
L 264.415745 276.235217 
L 265.75496 275.126402 
L 271.111739 269.804179 
L 272.450958 268.473603 
L 277.807752 263.151376 
L 278.923767 261.8208 
L 283.387729 255.167996 
L 284.503746 253.504763 
L 287.851736 248.515202 
L 291.19974 241.862452 
L 291.199762 241.862399 
L 294.069458 235.209605 
L 296.939162 228.556802 
L 297.895753 225.230385 
L 298.73276 221.904008 
L 300.871748 215.251204 
L 302.359752 208.598401 
L 303.847731 201.945607 
L 304.591747 198.619186 
L 305.261354 195.292804 
L 306.600537 188.64 
L 307.635382 181.987206 
L 309.055745 175.334413 
L 310.171738 168.681599 
L 311.28774 162.028885 
L 311.287753 162.028806 
L 312.403739 155.376012 
L 313.679183 148.723198 
L 314.635744 142.070405 
L 315.592334 135.417611 
L 316.198156 128.764798 
L 317.027176 122.112004 
L 317.090947 115.45921 
L 317.14675 108.806397 
L 317.14675 102.153603 
L 316.802107 95.50081 
L 316.123755 88.847996 
L 315.751744 82.195202 
L 315.007752 75.542389 
L 314.459537 68.889595 
L 313.754691 62.236802 
L 313.049857 55.584008 
L 312.292138 48.931194 
L 311.622544 42.278401 
L 311.28774 38.952024 
L 310.935312 35.625607 
L 310.283341 28.972794 
L 309.61375 22.32 
" clip-path="url(#p9d6ca268a8)" style="fill: none; stroke: #38588c; stroke-width: 1.5"/>
   </g>
   <g id="PathCollection_5">
    <path d="M 210.847766 354.96 
L 217.54375 351.158387 
L 222.565765 348.3072 
L 224.239744 347.35682 
L 230.935737 343.317598 
L 233.614127 341.6544 
L 237.631751 339.159598 
L 242.06726 336.405296 
" clip-path="url(#p9d6ca268a8)" style="fill: none; stroke: #2d708e; stroke-width: 1.5"/>
    <path d="M 270.070365 320.38642 
L 271.111739 319.795189 
L 277.807752 315.874799 
L 279.481746 315.043201 
L 284.503746 312.548398 
L 291.19974 309.340803 
L 292.873738 308.3904 
L 297.895753 305.539204 
L 303.25258 301.737601 
L 304.591747 300.628826 
L 311.28774 295.084818 
L 311.287756 295.084803 
L 316.867776 288.432004 
L 317.983754 286.768823 
L 320.853453 281.7792 
L 323.842765 275.126402 
L 324.679748 272.908829 
L 326.16774 268.473603 
L 327.655767 261.8208 
L 328.697356 255.167996 
L 330.03655 248.515202 
L 330.706176 241.862399 
L 331.375761 235.209684 
L 331.375768 235.209605 
L 331.890837 228.556802 
L 332.405906 221.904008 
L 332.491756 215.251204 
L 332.920982 208.598401 
L 333.436075 201.945607 
L 333.767191 195.292804 
L 334.24547 188.64 
L 334.500553 181.987206 
L 334.94696 175.334413 
L 335.393368 168.681599 
L 335.560765 162.028806 
L 335.97926 155.376012 
L 336.397755 148.723198 
L 336.49623 142.070405 
L 336.583758 135.417611 
L 336.583758 128.764798 
L 336.309657 122.112004 
L 335.95724 115.45921 
L 335.604803 108.806397 
L 335.058558 102.153603 
L 334.388957 95.50081 
L 333.607757 88.847996 
L 332.897579 82.195202 
L 331.984483 75.542389 
L 331.375761 71.107167 
L 331.056911 68.889595 
L 330.158306 62.236802 
L 329.245208 55.584008 
L 328.464457 48.931194 
L 327.591058 42.278401 
L 326.717659 35.625607 
L 325.795753 28.972794 
L 324.958748 22.32 
" clip-path="url(#p9d6ca268a8)" style="fill: none; stroke: #2d708e; stroke-width: 1.5"/>
   </g>
   <g id="PathCollection_6">
    <path d="M 291.19974 354.96 
L 297.895753 351.158408 
L 302.917773 348.3072 
L 304.591747 347.356808 
L 311.28774 343.555184 
L 314.635747 341.6544 
L 317.983754 339.991213 
L 324.679748 336.902384 
L 329.143757 335.0016 
L 331.375761 334.051209 
L 338.071755 330.843613 
L 343.093775 328.348801 
L 344.767748 327.240012 
L 350.347754 321.696002 
L 351.463742 320.032826 
L 353.97476 315.043201 
L 355.183745 308.3904 
L 356.150948 301.737601 
L 356.942312 295.084803 
L 357.043764 288.432004 
L 357.043764 281.7792 
L 357.129609 275.126402 
L 357.129609 268.473603 
L 357.129609 261.8208 
L 357.129609 255.167996 
L 356.820548 248.515202 
L 356.724885 241.862399 
L 356.374147 235.209605 
L 356.374147 228.556802 
L 356.197412 224.725606 
" clip-path="url(#p9d6ca268a8)" style="fill: none; stroke: #25858e; stroke-width: 1.5"/>
    <path d="M 355.490697 192.467789 
L 355.402565 188.64 
L 355.183745 181.987206 
L 355.183745 175.334413 
L 355.183745 168.681599 
L 354.987957 162.028806 
L 354.811749 155.376012 
L 354.476952 148.723198 
L 354.333459 142.070405 
L 353.898659 135.417611 
L 353.289926 128.764798 
L 352.628268 122.112004 
L 352.045997 115.45921 
L 351.463742 108.806397 
L 351.463742 108.806397 
L 350.590346 102.153603 
L 349.51074 95.50081 
L 348.517508 88.847996 
L 347.446146 82.195202 
L 346.374784 75.542389 
L 345.540368 68.889595 
L 344.767748 63.899975 
L 344.488752 62.236802 
L 343.222521 55.584008 
L 342.192365 48.931194 
L 341.162217 42.278401 
L 340.055756 35.625607 
L 339.063755 28.972794 
L 338.071755 22.32 
" clip-path="url(#p9d6ca268a8)" style="fill: none; stroke: #25858e; stroke-width: 1.5"/>
   </g>
   <g id="PathCollection_7">
    <path d="M 384.943723 354.96 
L 384.274151 348.3072 
L 383.913605 341.6544 
L 383.508907 335.0016 
L 383.030599 328.348801 
L 382.711747 321.696002 
L 382.014256 315.043201 
L 381.595748 308.3904 
L 381.353281 304.535887 
" clip-path="url(#p9d6ca268a8)" style="fill: none; stroke: #1e9b8a; stroke-width: 1.5"/>
    <path d="M 378.900719 272.363334 
L 378.64163 268.473603 
L 378.247756 261.820879 
L 378.247752 261.8208 
L 377.853874 255.167996 
L 377.131761 248.515202 
L 376.759746 241.862399 
L 376.387751 235.209605 
L 375.78081 228.556802 
L 375.42838 221.904008 
L 374.899746 215.251204 
L 374.371119 208.598401 
L 373.895349 201.945607 
L 373.464883 195.292804 
L 372.827175 188.64 
L 372.508318 181.987206 
L 372.160478 175.334413 
L 371.551743 168.681639 
L 371.551739 168.681599 
L 371.24738 162.028806 
L 370.387216 155.376012 
L 369.804964 148.723198 
L 369.319742 142.070405 
L 368.337669 135.417611 
L 367.534143 128.764798 
L 366.65852 122.112004 
L 365.847747 115.45921 
L 364.855749 108.806417 
L 364.855746 108.806397 
L 363.615749 102.153603 
L 362.623748 95.50081 
L 361.383751 88.847996 
L 360.237822 82.195202 
L 359.083341 75.542389 
L 358.159756 70.220154 
L 357.920612 68.889595 
L 356.724897 62.236802 
L 355.388995 55.584008 
L 354.365351 48.931194 
L 353.191745 42.278401 
L 351.895747 35.625607 
L 351.463742 32.96445 
L 350.794148 28.972794 
L 349.678139 22.32 
" clip-path="url(#p9d6ca268a8)" style="fill: none; stroke: #1e9b8a; stroke-width: 1.5"/>
   </g>
   <g id="patch_3">
    <path d="M 50.14375 354.96 
L 50.14375 22.32 
" style="fill: none; stroke: #000000; stroke-width: 0.8; stroke-linejoin: miter; stroke-linecap: square"/>
   </g>
   <g id="patch_4">
    <path d="M 384.94375 354.96 
L 384.94375 22.32 
" style="fill: none; stroke: #000000; stroke-width: 0.8; stroke-linejoin: miter; stroke-linecap: square"/>
   </g>
   <g id="patch_5">
    <path d="M 50.14375 354.96 
L 384.94375 354.96 
" style="fill: none; stroke: #000000; stroke-width: 0.8; stroke-linejoin: miter; stroke-linecap: square"/>
   </g>
   <g id="patch_6">
    <path d="M 50.14375 22.32 
L 384.94375 22.32 
" style="fill: none; stroke: #000000; stroke-width: 0.8; stroke-linejoin: miter; stroke-linecap: square"/>
   </g>
   <g id="text_43">
    <!-- Major emission [$stake_{maj}=0.6$] -->
    <g transform="translate(124.54375 16.32) scale(0.12 -0.12)">
     <defs>
      <path id="DejaVuSans-6d" d="M 3328 2828 
Q 3544 3216 3844 3400 
Q 4144 3584 4550 3584 
Q 5097 3584 5394 3201 
Q 5691 2819 5691 2113 
L 5691 0 
L 5113 0 
L 5113 2094 
Q 5113 2597 4934 2840 
Q 4756 3084 4391 3084 
Q 3944 3084 3684 2787 
Q 3425 2491 3425 1978 
L 3425 0 
L 2847 0 
L 2847 2094 
Q 2847 2600 2669 2842 
Q 2491 3084 2119 3084 
Q 1678 3084 1418 2786 
Q 1159 2488 1159 1978 
L 1159 0 
L 581 0 
L 581 3500 
L 1159 3500 
L 1159 2956 
Q 1356 3278 1631 3431 
Q 1906 3584 2284 3584 
Q 2666 3584 2933 3390 
Q 3200 3197 3328 2828 
z
" transform="scale(0.015625)"/>
      <path id="DejaVuSans-5b" d="M 550 4863 
L 1875 4863 
L 1875 4416 
L 1125 4416 
L 1125 -397 
L 1875 -397 
L 1875 -844 
L 550 -844 
L 550 4863 
z
" transform="scale(0.015625)"/>
      <path id="DejaVuSans-Oblique-73" d="M 3200 3397 
L 3091 2853 
Q 2863 2978 2609 3040 
Q 2356 3103 2088 3103 
Q 1634 3103 1373 2948 
Q 1113 2794 1113 2528 
Q 1113 2219 1719 2053 
Q 1766 2041 1788 2034 
L 1972 1978 
Q 2547 1819 2739 1644 
Q 2931 1469 2931 1166 
Q 2931 609 2489 259 
Q 2047 -91 1331 -91 
Q 1053 -91 747 -37 
Q 441 16 72 128 
L 184 722 
Q 500 559 806 475 
Q 1113 391 1394 391 
Q 1816 391 2080 572 
Q 2344 753 2344 1031 
Q 2344 1331 1650 1516 
L 1591 1531 
L 1394 1581 
Q 956 1697 753 1886 
Q 550 2075 550 2369 
Q 550 2928 970 3256 
Q 1391 3584 2113 3584 
Q 2397 3584 2667 3537 
Q 2938 3491 3200 3397 
z
" transform="scale(0.015625)"/>
      <path id="DejaVuSans-Oblique-74" d="M 2706 3500 
L 2619 3053 
L 1472 3053 
L 1100 1153 
Q 1081 1047 1072 975 
Q 1063 903 1063 863 
Q 1063 663 1183 572 
Q 1303 481 1569 481 
L 2150 481 
L 2053 0 
L 1503 0 
Q 991 0 739 200 
Q 488 400 488 806 
Q 488 878 497 964 
Q 506 1050 525 1153 
L 897 3053 
L 409 3053 
L 500 3500 
L 978 3500 
L 1172 4494 
L 1747 4494 
L 1556 3500 
L 2706 3500 
z
" transform="scale(0.015625)"/>
      <path id="DejaVuSans-Oblique-61" d="M 3438 1997 
L 3047 0 
L 2472 0 
L 2578 531 
Q 2325 219 2001 64 
Q 1678 -91 1281 -91 
Q 834 -91 548 182 
Q 263 456 263 884 
Q 263 1497 752 1853 
Q 1241 2209 2100 2209 
L 2900 2209 
L 2931 2363 
Q 2938 2388 2941 2417 
Q 2944 2447 2944 2509 
Q 2944 2788 2717 2942 
Q 2491 3097 2081 3097 
Q 1800 3097 1504 3025 
Q 1209 2953 897 2809 
L 997 3341 
Q 1322 3463 1633 3523 
Q 1944 3584 2234 3584 
Q 2853 3584 3176 3315 
Q 3500 3047 3500 2534 
Q 3500 2431 3484 2292 
Q 3469 2153 3438 1997 
z
M 2816 1759 
L 2241 1759 
Q 1534 1759 1195 1570 
Q 856 1381 856 984 
Q 856 709 1029 553 
Q 1203 397 1509 397 
Q 1978 397 2328 733 
Q 2678 1069 2791 1631 
L 2816 1759 
z
" transform="scale(0.015625)"/>
      <path id="DejaVuSans-Oblique-6b" d="M 1172 4863 
L 1747 4863 
L 1197 2028 
L 3169 3500 
L 3916 3500 
L 1716 1825 
L 3322 0 
L 2625 0 
L 1131 1709 
L 800 0 
L 225 0 
L 1172 4863 
z
" transform="scale(0.015625)"/>
      <path id="DejaVuSans-Oblique-65" d="M 3078 2063 
Q 3088 2113 3092 2166 
Q 3097 2219 3097 2272 
Q 3097 2653 2873 2875 
Q 2650 3097 2266 3097 
Q 1838 3097 1509 2826 
Q 1181 2556 1013 2059 
L 3078 2063 
z
M 3578 1613 
L 903 1613 
Q 884 1494 878 1425 
Q 872 1356 872 1306 
Q 872 872 1139 634 
Q 1406 397 1894 397 
Q 2269 397 2603 481 
Q 2938 566 3225 728 
L 3116 159 
Q 2806 34 2476 -28 
Q 2147 -91 1806 -91 
Q 1078 -91 686 257 
Q 294 606 294 1247 
Q 294 1794 489 2264 
Q 684 2734 1063 3103 
Q 1306 3334 1642 3459 
Q 1978 3584 2356 3584 
Q 2950 3584 3301 3228 
Q 3653 2872 3653 2272 
Q 3653 2128 3634 1964 
Q 3616 1800 3578 1613 
z
" transform="scale(0.015625)"/>
      <path id="DejaVuSans-Oblique-6d" d="M 5747 2113 
L 5338 0 
L 4763 0 
L 5166 2094 
Q 5191 2228 5203 2325 
Q 5216 2422 5216 2491 
Q 5216 2772 5059 2928 
Q 4903 3084 4622 3084 
Q 4203 3084 3875 2770 
Q 3547 2456 3450 1953 
L 3066 0 
L 2491 0 
L 2900 2094 
Q 2925 2209 2937 2307 
Q 2950 2406 2950 2484 
Q 2950 2769 2794 2926 
Q 2638 3084 2363 3084 
Q 1938 3084 1609 2770 
Q 1281 2456 1184 1953 
L 800 0 
L 225 0 
L 909 3500 
L 1484 3500 
L 1375 2956 
Q 1609 3263 1923 3423 
Q 2238 3584 2597 3584 
Q 2978 3584 3223 3384 
Q 3469 3184 3519 2828 
Q 3781 3197 4126 3390 
Q 4472 3584 4856 3584 
Q 5306 3584 5551 3325 
Q 5797 3066 5797 2591 
Q 5797 2488 5784 2364 
Q 5772 2241 5747 2113 
z
" transform="scale(0.015625)"/>
      <path id="DejaVuSans-Oblique-6a" d="M 928 3500 
L 1503 3500 
L 813 -63 
L 809 -78 
Q 694 -675 544 -897 
Q 403 -1106 132 -1218 
Q -138 -1331 -506 -1331 
L -722 -1331 
L -628 -844 
L -481 -844 
Q -144 -844 -1 -703 
Q 141 -563 238 -63 
L 928 3500 
z
M 1197 4863 
L 1772 4863 
L 1631 4134 
L 1056 4134 
L 1197 4863 
z
" transform="scale(0.015625)"/>
      <path id="DejaVuSans-3d" d="M 678 2906 
L 4684 2906 
L 4684 2381 
L 678 2381 
L 678 2906 
z
M 678 1631 
L 4684 1631 
L 4684 1100 
L 678 1100 
L 678 1631 
z
" transform="scale(0.015625)"/>
      <path id="DejaVuSans-5d" d="M 1947 4863 
L 1947 -844 
L 622 -844 
L 622 -397 
L 1369 -397 
L 1369 4416 
L 622 4416 
L 622 4863 
L 1947 4863 
z
" transform="scale(0.015625)"/>
     </defs>
     <use xlink:href="#DejaVuSans-4d" transform="translate(0 0.015625)"/>
     <use xlink:href="#DejaVuSans-61" transform="translate(86.279297 0.015625)"/>
     <use xlink:href="#DejaVuSans-6a" transform="translate(147.558594 0.015625)"/>
     <use xlink:href="#DejaVuSans-6f" transform="translate(175.341797 0.015625)"/>
     <use xlink:href="#DejaVuSans-72" transform="translate(236.523438 0.015625)"/>
     <use xlink:href="#DejaVuSans-20" transform="translate(277.636719 0.015625)"/>
     <use xlink:href="#DejaVuSans-65" transform="translate(309.423828 0.015625)"/>
     <use xlink:href="#DejaVuSans-6d" transform="translate(370.947266 0.015625)"/>
     <use xlink:href="#DejaVuSans-69" transform="translate(468.359375 0.015625)"/>
     <use xlink:href="#DejaVuSans-73" transform="translate(496.142578 0.015625)"/>
     <use xlink:href="#DejaVuSans-73" transform="translate(548.242188 0.015625)"/>
     <use xlink:href="#DejaVuSans-69" transform="translate(600.341797 0.015625)"/>
     <use xlink:href="#DejaVuSans-6f" transform="translate(628.125 0.015625)"/>
     <use xlink:href="#DejaVuSans-6e" transform="translate(689.306641 0.015625)"/>
     <use xlink:href="#DejaVuSans-20" transform="translate(752.685547 0.015625)"/>
     <use xlink:href="#DejaVuSans-5b" transform="translate(784.472656 0.015625)"/>
     <use xlink:href="#DejaVuSans-Oblique-73" transform="translate(823.486328 0.015625)"/>
     <use xlink:href="#DejaVuSans-Oblique-74" transform="translate(875.585938 0.015625)"/>
     <use xlink:href="#DejaVuSans-Oblique-61" transform="translate(914.794922 0.015625)"/>
     <use xlink:href="#DejaVuSans-Oblique-6b" transform="translate(976.074219 0.015625)"/>
     <use xlink:href="#DejaVuSans-Oblique-65" transform="translate(1033.984375 0.015625)"/>
     <use xlink:href="#DejaVuSans-Oblique-6d" transform="translate(1095.507812 -16.390625) scale(0.7)"/>
     <use xlink:href="#DejaVuSans-Oblique-61" transform="translate(1163.696289 -16.390625) scale(0.7)"/>
     <use xlink:href="#DejaVuSans-Oblique-6a" transform="translate(1206.591797 -16.390625) scale(0.7)"/>
     <use xlink:href="#DejaVuSans-3d" transform="translate(1248.256836 0.015625)"/>
     <use xlink:href="#DejaVuSans-30" transform="translate(1351.52832 0.015625)"/>
     <use xlink:href="#DejaVuSans-2e" transform="translate(1415.151367 0.015625)"/>
     <use xlink:href="#DejaVuSans-36" transform="translate(1446.938477 0.015625)"/>
     <use xlink:href="#DejaVuSans-5d" transform="translate(1510.561523 0.015625)"/>
    </g>
   </g>
   <g id="text_44">
    <g clip-path="url(#p9d6ca268a8)">
     <!-- 0.51 -->
     <g style="fill: #440154" transform="translate(79.321516 325.675445) rotate(-54.048993) scale(0.1 -0.1)">
      <use xlink:href="#DejaVuSans-30"/>
      <use xlink:href="#DejaVuSans-2e" x="63.623047"/>
      <use xlink:href="#DejaVuSans-35" x="95.410156"/>
      <use xlink:href="#DejaVuSans-31" x="159.033203"/>
     </g>
    </g>
   </g>
   <g id="text_45">
    <g clip-path="url(#p9d6ca268a8)">
     <!-- 0.55 -->
     <g style="fill: #482173" transform="translate(165.203567 257.488696) rotate(-47.605851) scale(0.1 -0.1)">
      <use xlink:href="#DejaVuSans-30"/>
      <use xlink:href="#DejaVuSans-2e" x="63.623047"/>
      <use xlink:href="#DejaVuSans-35" x="95.410156"/>
      <use xlink:href="#DejaVuSans-35" x="159.033203"/>
     </g>
    </g>
   </g>
   <g id="text_46">
    <g clip-path="url(#p9d6ca268a8)">
     <!-- 0.60 -->
     <g style="fill: #433e85" transform="translate(135.719637 331.150107) rotate(-41.593681) scale(0.1 -0.1)">
      <use xlink:href="#DejaVuSans-30"/>
      <use xlink:href="#DejaVuSans-2e" x="63.623047"/>
      <use xlink:href="#DejaVuSans-36" x="95.410156"/>
      <use xlink:href="#DejaVuSans-30" x="159.033203"/>
     </g>
    </g>
   </g>
   <g id="text_47">
    <g clip-path="url(#p9d6ca268a8)">
     <!-- 0.65 -->
     <g style="fill: #38588c" transform="translate(179.202927 336.992519) rotate(-34.983675) scale(0.1 -0.1)">
      <use xlink:href="#DejaVuSans-30"/>
      <use xlink:href="#DejaVuSans-2e" x="63.623047"/>
      <use xlink:href="#DejaVuSans-36" x="95.410156"/>
      <use xlink:href="#DejaVuSans-35" x="159.033203"/>
     </g>
    </g>
   </g>
   <g id="text_48">
    <g clip-path="url(#p9d6ca268a8)">
     <!-- 0.70 -->
     <g style="fill: #2d708e" transform="translate(247.776412 336.296846) rotate(-29.944197) scale(0.1 -0.1)">
      <use xlink:href="#DejaVuSans-30"/>
      <use xlink:href="#DejaVuSans-2e" x="63.623047"/>
      <use xlink:href="#DejaVuSans-37" x="95.410156"/>
      <use xlink:href="#DejaVuSans-30" x="159.033203"/>
     </g>
    </g>
   </g>
   <g id="text_49">
    <g clip-path="url(#p9d6ca268a8)">
     <!-- 0.75 -->
     <g style="fill: #25858e" transform="translate(352.820979 197.521389) rotate(-271.114954) scale(0.1 -0.1)">
      <use xlink:href="#DejaVuSans-30"/>
      <use xlink:href="#DejaVuSans-2e" x="63.623047"/>
      <use xlink:href="#DejaVuSans-37" x="95.410156"/>
      <use xlink:href="#DejaVuSans-35" x="159.033203"/>
     </g>
    </g>
   </g>
   <g id="text_50">
    <g clip-path="url(#p9d6ca268a8)">
     <!-- 0.80 -->
     <g style="fill: #1e9b8a" transform="translate(376.736252 277.543255) rotate(-274.392941) scale(0.1 -0.1)">
      <use xlink:href="#DejaVuSans-30"/>
      <use xlink:href="#DejaVuSans-2e" x="63.623047"/>
      <use xlink:href="#DejaVuSans-38" x="95.410156"/>
      <use xlink:href="#DejaVuSans-30" x="159.033203"/>
     </g>
    </g>
   </g>
   <g id="patch_7">
    <path d="M 251.02375 231.8832 
C 253.68745 231.8832 256.24241 230.831729 258.125931 228.96036 
C 260.009451 227.088991 261.06775 224.550515 261.06775 221.904 
C 261.06775 219.257485 260.009451 216.719009 258.125931 214.84764 
C 256.24241 212.976271 253.68745 211.9248 251.02375 211.9248 
C 248.36005 211.9248 245.80509 212.976271 243.921569 214.84764 
C 242.038049 216.719009 240.97975 219.257485 240.97975 221.904 
C 240.97975 224.550515 242.038049 227.088991 243.921569 228.96036 
C 245.80509 230.831729 248.36005 231.8832 251.02375 231.8832 
z
" clip-path="url(#p9d6ca268a8)" style="opacity: 0.8; stroke: #ffffff; stroke-width: 2; stroke-linejoin: miter"/>
   </g>
   <g id="text_51">
    <!-- 1 -->
    <g style="fill: #ffffff" transform="translate(247.411563 225.21525) scale(0.12 -0.12)">
     <defs>
      <path id="DejaVuSansMono-Bold-31" d="M 588 813 
L 1619 813 
L 1619 3841 
L 659 3603 
L 659 4434 
L 1625 4666 
L 2516 4666 
L 2516 813 
L 3547 813 
L 3547 0 
L 588 0 
L 588 813 
z
" transform="scale(0.015625)"/>
     </defs>
     <use xlink:href="#DejaVuSansMono-Bold-31"/>
    </g>
   </g>
  </g>
 </g>
 <defs>
  <clipPath id="p9d6ca268a8">
   <rect x="50.14375" y="22.32" width="334.8" height="332.64"/>
  </clipPath>
 </defs>
</svg>
