<?xml version="1.0" encoding="utf-8" standalone="no"?>
<!DOCTYPE svg PUBLIC "-//W3C//DTD SVG 1.1//EN"
  "http://www.w3.org/Graphics/SVG/1.1/DTD/svg11.dtd">
<svg xmlns:xlink="http://www.w3.org/1999/xlink" width="392.14375pt" height="392.51625pt" viewBox="0 0 392.14375 392.51625" xmlns="http://www.w3.org/2000/svg" version="1.1">
 <metadata>
  <rdf:RDF xmlns:dc="http://purl.org/dc/elements/1.1/" xmlns:cc="http://creativecommons.org/ns#" xmlns:rdf="http://www.w3.org/1999/02/22-rdf-syntax-ns#">
   <cc:Work>
    <dc:type rdf:resource="http://purl.org/dc/dcmitype/StillImage"/>
    <dc:date>2023-09-12T08:50:53.949320</dc:date>
    <dc:format>image/svg+xml</dc:format>
    <dc:creator>
     <cc:Agent>
      <dc:title>Matplotlib v3.7.0, https://matplotlib.org/</dc:title>
     </cc:Agent>
    </dc:creator>
   </cc:Work>
  </rdf:RDF>
 </metadata>
 <defs>
  <style type="text/css">*{stroke-linejoin: round; stroke-linecap: butt}</style>
 </defs>
 <g id="figure_1">
  <g id="patch_1">
   <path d="M 0 392.51625 
L 392.14375 392.51625 
L 392.14375 0 
L 0 0 
z
" style="fill: #ffffff"/>
  </g>
  <g id="axes_1">
   <g id="patch_2">
    <path d="M 50.14375 354.96 
L 384.94375 354.96 
L 384.94375 22.32 
L 50.14375 22.32 
z
" style="fill: #ffffff"/>
   </g>
   <g id="matplotlib.axis_1">
    <g id="xtick_1">
     <g id="line2d_1">
      <path d="M 50.14375 354.96 
L 50.14375 22.32 
" clip-path="url(#p4992ed5a0e)" style="fill: none; stroke-dasharray: 0.8,1.32; stroke-dashoffset: 0; stroke: #d9d9d9; stroke-width: 0.8"/>
     </g>
     <g id="line2d_2">
      <defs>
       <path id="m610e08f4d9" d="M 0 0 
L 0 3.5 
" style="stroke: #000000; stroke-width: 0.8"/>
      </defs>
      <g>
       <use xlink:href="#m610e08f4d9" x="50.14375" y="354.96" style="stroke: #000000; stroke-width: 0.8"/>
      </g>
     </g>
     <g id="text_1">
      <!-- .00 -->
      <g transform="translate(42.192188 369.558437) scale(0.1 -0.1)">
       <defs>
        <path id="DejaVuSans-2e" d="M 684 794 
L 1344 794 
L 1344 0 
L 684 0 
L 684 794 
z
" transform="scale(0.015625)"/>
        <path id="DejaVuSans-30" d="M 2034 4250 
Q 1547 4250 1301 3770 
Q 1056 3291 1056 2328 
Q 1056 1369 1301 889 
Q 1547 409 2034 409 
Q 2525 409 2770 889 
Q 3016 1369 3016 2328 
Q 3016 3291 2770 3770 
Q 2525 4250 2034 4250 
z
M 2034 4750 
Q 2819 4750 3233 4129 
Q 3647 3509 3647 2328 
Q 3647 1150 3233 529 
Q 2819 -91 2034 -91 
Q 1250 -91 836 529 
Q 422 1150 422 2328 
Q 422 3509 836 4129 
Q 1250 4750 2034 4750 
z
" transform="scale(0.015625)"/>
       </defs>
       <use xlink:href="#DejaVuSans-2e"/>
       <use xlink:href="#DejaVuSans-30" x="31.787109"/>
       <use xlink:href="#DejaVuSans-30" x="95.410156"/>
      </g>
     </g>
    </g>
    <g id="xtick_2">
     <g id="line2d_3">
      <path d="M 66.88375 354.96 
L 66.88375 22.32 
" clip-path="url(#p4992ed5a0e)" style="fill: none; stroke-dasharray: 0.8,1.32; stroke-dashoffset: 0; stroke: #d9d9d9; stroke-width: 0.8"/>
     </g>
     <g id="line2d_4">
      <g>
       <use xlink:href="#m610e08f4d9" x="66.88375" y="354.96" style="stroke: #000000; stroke-width: 0.8"/>
      </g>
     </g>
     <g id="text_2">
      <!-- .05 -->
      <g transform="translate(58.932188 369.558437) scale(0.1 -0.1)">
       <defs>
        <path id="DejaVuSans-35" d="M 691 4666 
L 3169 4666 
L 3169 4134 
L 1269 4134 
L 1269 2991 
Q 1406 3038 1543 3061 
Q 1681 3084 1819 3084 
Q 2600 3084 3056 2656 
Q 3513 2228 3513 1497 
Q 3513 744 3044 326 
Q 2575 -91 1722 -91 
Q 1428 -91 1123 -41 
Q 819 9 494 109 
L 494 744 
Q 775 591 1075 516 
Q 1375 441 1709 441 
Q 2250 441 2565 725 
Q 2881 1009 2881 1497 
Q 2881 1984 2565 2268 
Q 2250 2553 1709 2553 
Q 1456 2553 1204 2497 
Q 953 2441 691 2322 
L 691 4666 
z
" transform="scale(0.015625)"/>
       </defs>
       <use xlink:href="#DejaVuSans-2e"/>
       <use xlink:href="#DejaVuSans-30" x="31.787109"/>
       <use xlink:href="#DejaVuSans-35" x="95.410156"/>
      </g>
     </g>
    </g>
    <g id="xtick_3">
     <g id="line2d_5">
      <path d="M 83.62375 354.96 
L 83.62375 22.32 
" clip-path="url(#p4992ed5a0e)" style="fill: none; stroke-dasharray: 0.8,1.32; stroke-dashoffset: 0; stroke: #d9d9d9; stroke-width: 0.8"/>
     </g>
     <g id="line2d_6">
      <g>
       <use xlink:href="#m610e08f4d9" x="83.62375" y="354.96" style="stroke: #000000; stroke-width: 0.8"/>
      </g>
     </g>
     <g id="text_3">
      <!-- .10 -->
      <g transform="translate(75.672188 369.558437) scale(0.1 -0.1)">
       <defs>
        <path id="DejaVuSans-31" d="M 794 531 
L 1825 531 
L 1825 4091 
L 703 3866 
L 703 4441 
L 1819 4666 
L 2450 4666 
L 2450 531 
L 3481 531 
L 3481 0 
L 794 0 
L 794 531 
z
" transform="scale(0.015625)"/>
       </defs>
       <use xlink:href="#DejaVuSans-2e"/>
       <use xlink:href="#DejaVuSans-31" x="31.787109"/>
       <use xlink:href="#DejaVuSans-30" x="95.410156"/>
      </g>
     </g>
    </g>
    <g id="xtick_4">
     <g id="line2d_7">
      <path d="M 100.363752 354.96 
L 100.363752 22.32 
" clip-path="url(#p4992ed5a0e)" style="fill: none; stroke-dasharray: 0.8,1.32; stroke-dashoffset: 0; stroke: #d9d9d9; stroke-width: 0.8"/>
     </g>
     <g id="line2d_8">
      <g>
       <use xlink:href="#m610e08f4d9" x="100.363752" y="354.96" style="stroke: #000000; stroke-width: 0.8"/>
      </g>
     </g>
     <g id="text_4">
      <!-- .15 -->
      <g transform="translate(92.412189 369.558437) scale(0.1 -0.1)">
       <use xlink:href="#DejaVuSans-2e"/>
       <use xlink:href="#DejaVuSans-31" x="31.787109"/>
       <use xlink:href="#DejaVuSans-35" x="95.410156"/>
      </g>
     </g>
    </g>
    <g id="xtick_5">
     <g id="line2d_9">
      <path d="M 117.103751 354.96 
L 117.103751 22.32 
" clip-path="url(#p4992ed5a0e)" style="fill: none; stroke-dasharray: 0.8,1.32; stroke-dashoffset: 0; stroke: #d9d9d9; stroke-width: 0.8"/>
     </g>
     <g id="line2d_10">
      <g>
       <use xlink:href="#m610e08f4d9" x="117.103751" y="354.96" style="stroke: #000000; stroke-width: 0.8"/>
      </g>
     </g>
     <g id="text_5">
      <!-- .20 -->
      <g transform="translate(109.152188 369.558437) scale(0.1 -0.1)">
       <defs>
        <path id="DejaVuSans-32" d="M 1228 531 
L 3431 531 
L 3431 0 
L 469 0 
L 469 531 
Q 828 903 1448 1529 
Q 2069 2156 2228 2338 
Q 2531 2678 2651 2914 
Q 2772 3150 2772 3378 
Q 2772 3750 2511 3984 
Q 2250 4219 1831 4219 
Q 1534 4219 1204 4116 
Q 875 4013 500 3803 
L 500 4441 
Q 881 4594 1212 4672 
Q 1544 4750 1819 4750 
Q 2544 4750 2975 4387 
Q 3406 4025 3406 3419 
Q 3406 3131 3298 2873 
Q 3191 2616 2906 2266 
Q 2828 2175 2409 1742 
Q 1991 1309 1228 531 
z
" transform="scale(0.015625)"/>
       </defs>
       <use xlink:href="#DejaVuSans-2e"/>
       <use xlink:href="#DejaVuSans-32" x="31.787109"/>
       <use xlink:href="#DejaVuSans-30" x="95.410156"/>
      </g>
     </g>
    </g>
    <g id="xtick_6">
     <g id="line2d_11">
      <path d="M 133.84375 354.96 
L 133.84375 22.32 
" clip-path="url(#p4992ed5a0e)" style="fill: none; stroke-dasharray: 0.8,1.32; stroke-dashoffset: 0; stroke: #d9d9d9; stroke-width: 0.8"/>
     </g>
     <g id="line2d_12">
      <g>
       <use xlink:href="#m610e08f4d9" x="133.84375" y="354.96" style="stroke: #000000; stroke-width: 0.8"/>
      </g>
     </g>
     <g id="text_6">
      <!-- .25 -->
      <g transform="translate(125.892188 369.558437) scale(0.1 -0.1)">
       <use xlink:href="#DejaVuSans-2e"/>
       <use xlink:href="#DejaVuSans-32" x="31.787109"/>
       <use xlink:href="#DejaVuSans-35" x="95.410156"/>
      </g>
     </g>
    </g>
    <g id="xtick_7">
     <g id="line2d_13">
      <path d="M 150.583754 354.96 
L 150.583754 22.32 
" clip-path="url(#p4992ed5a0e)" style="fill: none; stroke-dasharray: 0.8,1.32; stroke-dashoffset: 0; stroke: #d9d9d9; stroke-width: 0.8"/>
     </g>
     <g id="line2d_14">
      <g>
       <use xlink:href="#m610e08f4d9" x="150.583754" y="354.96" style="stroke: #000000; stroke-width: 0.8"/>
      </g>
     </g>
     <g id="text_7">
      <!-- .30 -->
      <g transform="translate(142.632191 369.558437) scale(0.1 -0.1)">
       <defs>
        <path id="DejaVuSans-33" d="M 2597 2516 
Q 3050 2419 3304 2112 
Q 3559 1806 3559 1356 
Q 3559 666 3084 287 
Q 2609 -91 1734 -91 
Q 1441 -91 1130 -33 
Q 819 25 488 141 
L 488 750 
Q 750 597 1062 519 
Q 1375 441 1716 441 
Q 2309 441 2620 675 
Q 2931 909 2931 1356 
Q 2931 1769 2642 2001 
Q 2353 2234 1838 2234 
L 1294 2234 
L 1294 2753 
L 1863 2753 
Q 2328 2753 2575 2939 
Q 2822 3125 2822 3475 
Q 2822 3834 2567 4026 
Q 2313 4219 1838 4219 
Q 1578 4219 1281 4162 
Q 984 4106 628 3988 
L 628 4550 
Q 988 4650 1302 4700 
Q 1616 4750 1894 4750 
Q 2613 4750 3031 4423 
Q 3450 4097 3450 3541 
Q 3450 3153 3228 2886 
Q 3006 2619 2597 2516 
z
" transform="scale(0.015625)"/>
       </defs>
       <use xlink:href="#DejaVuSans-2e"/>
       <use xlink:href="#DejaVuSans-33" x="31.787109"/>
       <use xlink:href="#DejaVuSans-30" x="95.410156"/>
      </g>
     </g>
    </g>
    <g id="xtick_8">
     <g id="line2d_15">
      <path d="M 167.323748 354.96 
L 167.323748 22.32 
" clip-path="url(#p4992ed5a0e)" style="fill: none; stroke-dasharray: 0.8,1.32; stroke-dashoffset: 0; stroke: #d9d9d9; stroke-width: 0.8"/>
     </g>
     <g id="line2d_16">
      <g>
       <use xlink:href="#m610e08f4d9" x="167.323748" y="354.96" style="stroke: #000000; stroke-width: 0.8"/>
      </g>
     </g>
     <g id="text_8">
      <!-- .35 -->
      <g transform="translate(159.372186 369.558437) scale(0.1 -0.1)">
       <use xlink:href="#DejaVuSans-2e"/>
       <use xlink:href="#DejaVuSans-33" x="31.787109"/>
       <use xlink:href="#DejaVuSans-35" x="95.410156"/>
      </g>
     </g>
    </g>
    <g id="xtick_9">
     <g id="line2d_17">
      <path d="M 184.063752 354.96 
L 184.063752 22.32 
" clip-path="url(#p4992ed5a0e)" style="fill: none; stroke-dasharray: 0.8,1.32; stroke-dashoffset: 0; stroke: #d9d9d9; stroke-width: 0.8"/>
     </g>
     <g id="line2d_18">
      <g>
       <use xlink:href="#m610e08f4d9" x="184.063752" y="354.96" style="stroke: #000000; stroke-width: 0.8"/>
      </g>
     </g>
     <g id="text_9">
      <!-- .40 -->
      <g transform="translate(176.112189 369.558437) scale(0.1 -0.1)">
       <defs>
        <path id="DejaVuSans-34" d="M 2419 4116 
L 825 1625 
L 2419 1625 
L 2419 4116 
z
M 2253 4666 
L 3047 4666 
L 3047 1625 
L 3713 1625 
L 3713 1100 
L 3047 1100 
L 3047 0 
L 2419 0 
L 2419 1100 
L 313 1100 
L 313 1709 
L 2253 4666 
z
" transform="scale(0.015625)"/>
       </defs>
       <use xlink:href="#DejaVuSans-2e"/>
       <use xlink:href="#DejaVuSans-34" x="31.787109"/>
       <use xlink:href="#DejaVuSans-30" x="95.410156"/>
      </g>
     </g>
    </g>
    <g id="xtick_10">
     <g id="line2d_19">
      <path d="M 200.803756 354.96 
L 200.803756 22.32 
" clip-path="url(#p4992ed5a0e)" style="fill: none; stroke-dasharray: 0.8,1.32; stroke-dashoffset: 0; stroke: #d9d9d9; stroke-width: 0.8"/>
     </g>
     <g id="line2d_20">
      <g>
       <use xlink:href="#m610e08f4d9" x="200.803756" y="354.96" style="stroke: #000000; stroke-width: 0.8"/>
      </g>
     </g>
     <g id="text_10">
      <!-- .45 -->
      <g transform="translate(192.852193 369.558437) scale(0.1 -0.1)">
       <use xlink:href="#DejaVuSans-2e"/>
       <use xlink:href="#DejaVuSans-34" x="31.787109"/>
       <use xlink:href="#DejaVuSans-35" x="95.410156"/>
      </g>
     </g>
    </g>
    <g id="xtick_11">
     <g id="line2d_21">
      <path d="M 217.54375 354.96 
L 217.54375 22.32 
" clip-path="url(#p4992ed5a0e)" style="fill: none; stroke-dasharray: 0.8,1.32; stroke-dashoffset: 0; stroke: #d9d9d9; stroke-width: 0.8"/>
     </g>
     <g id="line2d_22">
      <g>
       <use xlink:href="#m610e08f4d9" x="217.54375" y="354.96" style="stroke: #000000; stroke-width: 0.8"/>
      </g>
     </g>
     <g id="text_11">
      <!-- .50 -->
      <g transform="translate(209.592188 369.558437) scale(0.1 -0.1)">
       <use xlink:href="#DejaVuSans-2e"/>
       <use xlink:href="#DejaVuSans-35" x="31.787109"/>
       <use xlink:href="#DejaVuSans-30" x="95.410156"/>
      </g>
     </g>
    </g>
    <g id="xtick_12">
     <g id="line2d_23">
      <path d="M 234.283754 354.96 
L 234.283754 22.32 
" clip-path="url(#p4992ed5a0e)" style="fill: none; stroke-dasharray: 0.8,1.32; stroke-dashoffset: 0; stroke: #d9d9d9; stroke-width: 0.8"/>
     </g>
     <g id="line2d_24">
      <g>
       <use xlink:href="#m610e08f4d9" x="234.283754" y="354.96" style="stroke: #000000; stroke-width: 0.8"/>
      </g>
     </g>
     <g id="text_12">
      <!-- .55 -->
      <g transform="translate(226.332191 369.558437) scale(0.1 -0.1)">
       <use xlink:href="#DejaVuSans-2e"/>
       <use xlink:href="#DejaVuSans-35" x="31.787109"/>
       <use xlink:href="#DejaVuSans-35" x="95.410156"/>
      </g>
     </g>
    </g>
    <g id="xtick_13">
     <g id="line2d_25">
      <path d="M 251.023758 354.96 
L 251.023758 22.32 
" clip-path="url(#p4992ed5a0e)" style="fill: none; stroke-dasharray: 0.8,1.32; stroke-dashoffset: 0; stroke: #d9d9d9; stroke-width: 0.8"/>
     </g>
     <g id="line2d_26">
      <g>
       <use xlink:href="#m610e08f4d9" x="251.023758" y="354.96" style="stroke: #000000; stroke-width: 0.8"/>
      </g>
     </g>
     <g id="text_13">
      <!-- .60 -->
      <g transform="translate(243.072195 369.558437) scale(0.1 -0.1)">
       <defs>
        <path id="DejaVuSans-36" d="M 2113 2584 
Q 1688 2584 1439 2293 
Q 1191 2003 1191 1497 
Q 1191 994 1439 701 
Q 1688 409 2113 409 
Q 2538 409 2786 701 
Q 3034 994 3034 1497 
Q 3034 2003 2786 2293 
Q 2538 2584 2113 2584 
z
M 3366 4563 
L 3366 3988 
Q 3128 4100 2886 4159 
Q 2644 4219 2406 4219 
Q 1781 4219 1451 3797 
Q 1122 3375 1075 2522 
Q 1259 2794 1537 2939 
Q 1816 3084 2150 3084 
Q 2853 3084 3261 2657 
Q 3669 2231 3669 1497 
Q 3669 778 3244 343 
Q 2819 -91 2113 -91 
Q 1303 -91 875 529 
Q 447 1150 447 2328 
Q 447 3434 972 4092 
Q 1497 4750 2381 4750 
Q 2619 4750 2861 4703 
Q 3103 4656 3366 4563 
z
" transform="scale(0.015625)"/>
       </defs>
       <use xlink:href="#DejaVuSans-2e"/>
       <use xlink:href="#DejaVuSans-36" x="31.787109"/>
       <use xlink:href="#DejaVuSans-30" x="95.410156"/>
      </g>
     </g>
    </g>
    <g id="xtick_14">
     <g id="line2d_27">
      <path d="M 267.763742 354.96 
L 267.763742 22.32 
" clip-path="url(#p4992ed5a0e)" style="fill: none; stroke-dasharray: 0.8,1.32; stroke-dashoffset: 0; stroke: #d9d9d9; stroke-width: 0.8"/>
     </g>
     <g id="line2d_28">
      <g>
       <use xlink:href="#m610e08f4d9" x="267.763742" y="354.96" style="stroke: #000000; stroke-width: 0.8"/>
      </g>
     </g>
     <g id="text_14">
      <!-- .65 -->
      <g transform="translate(259.81218 369.558437) scale(0.1 -0.1)">
       <use xlink:href="#DejaVuSans-2e"/>
       <use xlink:href="#DejaVuSans-36" x="31.787109"/>
       <use xlink:href="#DejaVuSans-35" x="95.410156"/>
      </g>
     </g>
    </g>
    <g id="xtick_15">
     <g id="line2d_29">
      <path d="M 284.503746 354.96 
L 284.503746 22.32 
" clip-path="url(#p4992ed5a0e)" style="fill: none; stroke-dasharray: 0.8,1.32; stroke-dashoffset: 0; stroke: #d9d9d9; stroke-width: 0.8"/>
     </g>
     <g id="line2d_30">
      <g>
       <use xlink:href="#m610e08f4d9" x="284.503746" y="354.96" style="stroke: #000000; stroke-width: 0.8"/>
      </g>
     </g>
     <g id="text_15">
      <!-- .70 -->
      <g transform="translate(276.552184 369.558437) scale(0.1 -0.1)">
       <defs>
        <path id="DejaVuSans-37" d="M 525 4666 
L 3525 4666 
L 3525 4397 
L 1831 0 
L 1172 0 
L 2766 4134 
L 525 4134 
L 525 4666 
z
" transform="scale(0.015625)"/>
       </defs>
       <use xlink:href="#DejaVuSans-2e"/>
       <use xlink:href="#DejaVuSans-37" x="31.787109"/>
       <use xlink:href="#DejaVuSans-30" x="95.410156"/>
      </g>
     </g>
    </g>
    <g id="xtick_16">
     <g id="line2d_31">
      <path d="M 301.24375 354.96 
L 301.24375 22.32 
" clip-path="url(#p4992ed5a0e)" style="fill: none; stroke-dasharray: 0.8,1.32; stroke-dashoffset: 0; stroke: #d9d9d9; stroke-width: 0.8"/>
     </g>
     <g id="line2d_32">
      <g>
       <use xlink:href="#m610e08f4d9" x="301.24375" y="354.96" style="stroke: #000000; stroke-width: 0.8"/>
      </g>
     </g>
     <g id="text_16">
      <!-- .75 -->
      <g transform="translate(293.292188 369.558437) scale(0.1 -0.1)">
       <use xlink:href="#DejaVuSans-2e"/>
       <use xlink:href="#DejaVuSans-37" x="31.787109"/>
       <use xlink:href="#DejaVuSans-35" x="95.410156"/>
      </g>
     </g>
    </g>
    <g id="xtick_17">
     <g id="line2d_33">
      <path d="M 317.983754 354.96 
L 317.983754 22.32 
" clip-path="url(#p4992ed5a0e)" style="fill: none; stroke-dasharray: 0.8,1.32; stroke-dashoffset: 0; stroke: #d9d9d9; stroke-width: 0.8"/>
     </g>
     <g id="line2d_34">
      <g>
       <use xlink:href="#m610e08f4d9" x="317.983754" y="354.96" style="stroke: #000000; stroke-width: 0.8"/>
      </g>
     </g>
     <g id="text_17">
      <!-- .80 -->
      <g transform="translate(310.032191 369.558437) scale(0.1 -0.1)">
       <defs>
        <path id="DejaVuSans-38" d="M 2034 2216 
Q 1584 2216 1326 1975 
Q 1069 1734 1069 1313 
Q 1069 891 1326 650 
Q 1584 409 2034 409 
Q 2484 409 2743 651 
Q 3003 894 3003 1313 
Q 3003 1734 2745 1975 
Q 2488 2216 2034 2216 
z
M 1403 2484 
Q 997 2584 770 2862 
Q 544 3141 544 3541 
Q 544 4100 942 4425 
Q 1341 4750 2034 4750 
Q 2731 4750 3128 4425 
Q 3525 4100 3525 3541 
Q 3525 3141 3298 2862 
Q 3072 2584 2669 2484 
Q 3125 2378 3379 2068 
Q 3634 1759 3634 1313 
Q 3634 634 3220 271 
Q 2806 -91 2034 -91 
Q 1263 -91 848 271 
Q 434 634 434 1313 
Q 434 1759 690 2068 
Q 947 2378 1403 2484 
z
M 1172 3481 
Q 1172 3119 1398 2916 
Q 1625 2713 2034 2713 
Q 2441 2713 2670 2916 
Q 2900 3119 2900 3481 
Q 2900 3844 2670 4047 
Q 2441 4250 2034 4250 
Q 1625 4250 1398 4047 
Q 1172 3844 1172 3481 
z
" transform="scale(0.015625)"/>
       </defs>
       <use xlink:href="#DejaVuSans-2e"/>
       <use xlink:href="#DejaVuSans-38" x="31.787109"/>
       <use xlink:href="#DejaVuSans-30" x="95.410156"/>
      </g>
     </g>
    </g>
    <g id="xtick_18">
     <g id="line2d_35">
      <path d="M 334.723758 354.96 
L 334.723758 22.32 
" clip-path="url(#p4992ed5a0e)" style="fill: none; stroke-dasharray: 0.8,1.32; stroke-dashoffset: 0; stroke: #d9d9d9; stroke-width: 0.8"/>
     </g>
     <g id="line2d_36">
      <g>
       <use xlink:href="#m610e08f4d9" x="334.723758" y="354.96" style="stroke: #000000; stroke-width: 0.8"/>
      </g>
     </g>
     <g id="text_18">
      <!-- .85 -->
      <g transform="translate(326.772195 369.558437) scale(0.1 -0.1)">
       <use xlink:href="#DejaVuSans-2e"/>
       <use xlink:href="#DejaVuSans-38" x="31.787109"/>
       <use xlink:href="#DejaVuSans-35" x="95.410156"/>
      </g>
     </g>
    </g>
    <g id="xtick_19">
     <g id="line2d_37">
      <path d="M 351.463742 354.96 
L 351.463742 22.32 
" clip-path="url(#p4992ed5a0e)" style="fill: none; stroke-dasharray: 0.8,1.32; stroke-dashoffset: 0; stroke: #d9d9d9; stroke-width: 0.8"/>
     </g>
     <g id="line2d_38">
      <g>
       <use xlink:href="#m610e08f4d9" x="351.463742" y="354.96" style="stroke: #000000; stroke-width: 0.8"/>
      </g>
     </g>
     <g id="text_19">
      <!-- .90 -->
      <g transform="translate(343.51218 369.558437) scale(0.1 -0.1)">
       <defs>
        <path id="DejaVuSans-39" d="M 703 97 
L 703 672 
Q 941 559 1184 500 
Q 1428 441 1663 441 
Q 2288 441 2617 861 
Q 2947 1281 2994 2138 
Q 2813 1869 2534 1725 
Q 2256 1581 1919 1581 
Q 1219 1581 811 2004 
Q 403 2428 403 3163 
Q 403 3881 828 4315 
Q 1253 4750 1959 4750 
Q 2769 4750 3195 4129 
Q 3622 3509 3622 2328 
Q 3622 1225 3098 567 
Q 2575 -91 1691 -91 
Q 1453 -91 1209 -44 
Q 966 3 703 97 
z
M 1959 2075 
Q 2384 2075 2632 2365 
Q 2881 2656 2881 3163 
Q 2881 3666 2632 3958 
Q 2384 4250 1959 4250 
Q 1534 4250 1286 3958 
Q 1038 3666 1038 3163 
Q 1038 2656 1286 2365 
Q 1534 2075 1959 2075 
z
" transform="scale(0.015625)"/>
       </defs>
       <use xlink:href="#DejaVuSans-2e"/>
       <use xlink:href="#DejaVuSans-39" x="31.787109"/>
       <use xlink:href="#DejaVuSans-30" x="95.410156"/>
      </g>
     </g>
    </g>
    <g id="xtick_20">
     <g id="line2d_39">
      <path d="M 368.203746 354.96 
L 368.203746 22.32 
" clip-path="url(#p4992ed5a0e)" style="fill: none; stroke-dasharray: 0.8,1.32; stroke-dashoffset: 0; stroke: #d9d9d9; stroke-width: 0.8"/>
     </g>
     <g id="line2d_40">
      <g>
       <use xlink:href="#m610e08f4d9" x="368.203746" y="354.96" style="stroke: #000000; stroke-width: 0.8"/>
      </g>
     </g>
     <g id="text_20">
      <!-- .95 -->
      <g transform="translate(360.252184 369.558437) scale(0.1 -0.1)">
       <use xlink:href="#DejaVuSans-2e"/>
       <use xlink:href="#DejaVuSans-39" x="31.787109"/>
       <use xlink:href="#DejaVuSans-35" x="95.410156"/>
      </g>
     </g>
    </g>
    <g id="text_21">
     <!-- Major self-weight -->
     <g transform="translate(174.855469 383.236562) scale(0.1 -0.1)">
      <defs>
       <path id="DejaVuSans-4d" d="M 628 4666 
L 1569 4666 
L 2759 1491 
L 3956 4666 
L 4897 4666 
L 4897 0 
L 4281 0 
L 4281 4097 
L 3078 897 
L 2444 897 
L 1241 4097 
L 1241 0 
L 628 0 
L 628 4666 
z
" transform="scale(0.015625)"/>
       <path id="DejaVuSans-61" d="M 2194 1759 
Q 1497 1759 1228 1600 
Q 959 1441 959 1056 
Q 959 750 1161 570 
Q 1363 391 1709 391 
Q 2188 391 2477 730 
Q 2766 1069 2766 1631 
L 2766 1759 
L 2194 1759 
z
M 3341 1997 
L 3341 0 
L 2766 0 
L 2766 531 
Q 2569 213 2275 61 
Q 1981 -91 1556 -91 
Q 1019 -91 701 211 
Q 384 513 384 1019 
Q 384 1609 779 1909 
Q 1175 2209 1959 2209 
L 2766 2209 
L 2766 2266 
Q 2766 2663 2505 2880 
Q 2244 3097 1772 3097 
Q 1472 3097 1187 3025 
Q 903 2953 641 2809 
L 641 3341 
Q 956 3463 1253 3523 
Q 1550 3584 1831 3584 
Q 2591 3584 2966 3190 
Q 3341 2797 3341 1997 
z
" transform="scale(0.015625)"/>
       <path id="DejaVuSans-6a" d="M 603 3500 
L 1178 3500 
L 1178 -63 
Q 1178 -731 923 -1031 
Q 669 -1331 103 -1331 
L -116 -1331 
L -116 -844 
L 38 -844 
Q 366 -844 484 -692 
Q 603 -541 603 -63 
L 603 3500 
z
M 603 4863 
L 1178 4863 
L 1178 4134 
L 603 4134 
L 603 4863 
z
" transform="scale(0.015625)"/>
       <path id="DejaVuSans-6f" d="M 1959 3097 
Q 1497 3097 1228 2736 
Q 959 2375 959 1747 
Q 959 1119 1226 758 
Q 1494 397 1959 397 
Q 2419 397 2687 759 
Q 2956 1122 2956 1747 
Q 2956 2369 2687 2733 
Q 2419 3097 1959 3097 
z
M 1959 3584 
Q 2709 3584 3137 3096 
Q 3566 2609 3566 1747 
Q 3566 888 3137 398 
Q 2709 -91 1959 -91 
Q 1206 -91 779 398 
Q 353 888 353 1747 
Q 353 2609 779 3096 
Q 1206 3584 1959 3584 
z
" transform="scale(0.015625)"/>
       <path id="DejaVuSans-72" d="M 2631 2963 
Q 2534 3019 2420 3045 
Q 2306 3072 2169 3072 
Q 1681 3072 1420 2755 
Q 1159 2438 1159 1844 
L 1159 0 
L 581 0 
L 581 3500 
L 1159 3500 
L 1159 2956 
Q 1341 3275 1631 3429 
Q 1922 3584 2338 3584 
Q 2397 3584 2469 3576 
Q 2541 3569 2628 3553 
L 2631 2963 
z
" transform="scale(0.015625)"/>
       <path id="DejaVuSans-20" transform="scale(0.015625)"/>
       <path id="DejaVuSans-73" d="M 2834 3397 
L 2834 2853 
Q 2591 2978 2328 3040 
Q 2066 3103 1784 3103 
Q 1356 3103 1142 2972 
Q 928 2841 928 2578 
Q 928 2378 1081 2264 
Q 1234 2150 1697 2047 
L 1894 2003 
Q 2506 1872 2764 1633 
Q 3022 1394 3022 966 
Q 3022 478 2636 193 
Q 2250 -91 1575 -91 
Q 1294 -91 989 -36 
Q 684 19 347 128 
L 347 722 
Q 666 556 975 473 
Q 1284 391 1588 391 
Q 1994 391 2212 530 
Q 2431 669 2431 922 
Q 2431 1156 2273 1281 
Q 2116 1406 1581 1522 
L 1381 1569 
Q 847 1681 609 1914 
Q 372 2147 372 2553 
Q 372 3047 722 3315 
Q 1072 3584 1716 3584 
Q 2034 3584 2315 3537 
Q 2597 3491 2834 3397 
z
" transform="scale(0.015625)"/>
       <path id="DejaVuSans-65" d="M 3597 1894 
L 3597 1613 
L 953 1613 
Q 991 1019 1311 708 
Q 1631 397 2203 397 
Q 2534 397 2845 478 
Q 3156 559 3463 722 
L 3463 178 
Q 3153 47 2828 -22 
Q 2503 -91 2169 -91 
Q 1331 -91 842 396 
Q 353 884 353 1716 
Q 353 2575 817 3079 
Q 1281 3584 2069 3584 
Q 2775 3584 3186 3129 
Q 3597 2675 3597 1894 
z
M 3022 2063 
Q 3016 2534 2758 2815 
Q 2500 3097 2075 3097 
Q 1594 3097 1305 2825 
Q 1016 2553 972 2059 
L 3022 2063 
z
" transform="scale(0.015625)"/>
       <path id="DejaVuSans-6c" d="M 603 4863 
L 1178 4863 
L 1178 0 
L 603 0 
L 603 4863 
z
" transform="scale(0.015625)"/>
       <path id="DejaVuSans-66" d="M 2375 4863 
L 2375 4384 
L 1825 4384 
Q 1516 4384 1395 4259 
Q 1275 4134 1275 3809 
L 1275 3500 
L 2222 3500 
L 2222 3053 
L 1275 3053 
L 1275 0 
L 697 0 
L 697 3053 
L 147 3053 
L 147 3500 
L 697 3500 
L 697 3744 
Q 697 4328 969 4595 
Q 1241 4863 1831 4863 
L 2375 4863 
z
" transform="scale(0.015625)"/>
       <path id="DejaVuSans-2d" d="M 313 2009 
L 1997 2009 
L 1997 1497 
L 313 1497 
L 313 2009 
z
" transform="scale(0.015625)"/>
       <path id="DejaVuSans-77" d="M 269 3500 
L 844 3500 
L 1563 769 
L 2278 3500 
L 2956 3500 
L 3675 769 
L 4391 3500 
L 4966 3500 
L 4050 0 
L 3372 0 
L 2619 2869 
L 1863 0 
L 1184 0 
L 269 3500 
z
" transform="scale(0.015625)"/>
       <path id="DejaVuSans-69" d="M 603 3500 
L 1178 3500 
L 1178 0 
L 603 0 
L 603 3500 
z
M 603 4863 
L 1178 4863 
L 1178 4134 
L 603 4134 
L 603 4863 
z
" transform="scale(0.015625)"/>
       <path id="DejaVuSans-67" d="M 2906 1791 
Q 2906 2416 2648 2759 
Q 2391 3103 1925 3103 
Q 1463 3103 1205 2759 
Q 947 2416 947 1791 
Q 947 1169 1205 825 
Q 1463 481 1925 481 
Q 2391 481 2648 825 
Q 2906 1169 2906 1791 
z
M 3481 434 
Q 3481 -459 3084 -895 
Q 2688 -1331 1869 -1331 
Q 1566 -1331 1297 -1286 
Q 1028 -1241 775 -1147 
L 775 -588 
Q 1028 -725 1275 -790 
Q 1522 -856 1778 -856 
Q 2344 -856 2625 -561 
Q 2906 -266 2906 331 
L 2906 616 
Q 2728 306 2450 153 
Q 2172 0 1784 0 
Q 1141 0 747 490 
Q 353 981 353 1791 
Q 353 2603 747 3093 
Q 1141 3584 1784 3584 
Q 2172 3584 2450 3431 
Q 2728 3278 2906 2969 
L 2906 3500 
L 3481 3500 
L 3481 434 
z
" transform="scale(0.015625)"/>
       <path id="DejaVuSans-68" d="M 3513 2113 
L 3513 0 
L 2938 0 
L 2938 2094 
Q 2938 2591 2744 2837 
Q 2550 3084 2163 3084 
Q 1697 3084 1428 2787 
Q 1159 2491 1159 1978 
L 1159 0 
L 581 0 
L 581 4863 
L 1159 4863 
L 1159 2956 
Q 1366 3272 1645 3428 
Q 1925 3584 2291 3584 
Q 2894 3584 3203 3211 
Q 3513 2838 3513 2113 
z
" transform="scale(0.015625)"/>
       <path id="DejaVuSans-74" d="M 1172 4494 
L 1172 3500 
L 2356 3500 
L 2356 3053 
L 1172 3053 
L 1172 1153 
Q 1172 725 1289 603 
Q 1406 481 1766 481 
L 2356 481 
L 2356 0 
L 1766 0 
Q 1100 0 847 248 
Q 594 497 594 1153 
L 594 3053 
L 172 3053 
L 172 3500 
L 594 3500 
L 594 4494 
L 1172 4494 
z
" transform="scale(0.015625)"/>
      </defs>
      <use xlink:href="#DejaVuSans-4d"/>
      <use xlink:href="#DejaVuSans-61" x="86.279297"/>
      <use xlink:href="#DejaVuSans-6a" x="147.558594"/>
      <use xlink:href="#DejaVuSans-6f" x="175.341797"/>
      <use xlink:href="#DejaVuSans-72" x="236.523438"/>
      <use xlink:href="#DejaVuSans-20" x="277.636719"/>
      <use xlink:href="#DejaVuSans-73" x="309.423828"/>
      <use xlink:href="#DejaVuSans-65" x="361.523438"/>
      <use xlink:href="#DejaVuSans-6c" x="423.046875"/>
      <use xlink:href="#DejaVuSans-66" x="450.830078"/>
      <use xlink:href="#DejaVuSans-2d" x="480.535156"/>
      <use xlink:href="#DejaVuSans-77" x="516.619141"/>
      <use xlink:href="#DejaVuSans-65" x="598.40625"/>
      <use xlink:href="#DejaVuSans-69" x="659.929688"/>
      <use xlink:href="#DejaVuSans-67" x="687.712891"/>
      <use xlink:href="#DejaVuSans-68" x="751.189453"/>
      <use xlink:href="#DejaVuSans-74" x="814.568359"/>
     </g>
    </g>
   </g>
   <g id="matplotlib.axis_2">
    <g id="ytick_1">
     <g id="line2d_41">
      <path d="M 50.14375 354.96 
L 384.94375 354.96 
" clip-path="url(#p4992ed5a0e)" style="fill: none; stroke-dasharray: 0.8,1.32; stroke-dashoffset: 0; stroke: #d9d9d9; stroke-width: 0.8"/>
     </g>
     <g id="line2d_42">
      <defs>
       <path id="mc3253fa959" d="M 0 0 
L -3.5 0 
" style="stroke: #000000; stroke-width: 0.8"/>
      </defs>
      <g>
       <use xlink:href="#mc3253fa959" x="50.14375" y="354.96" style="stroke: #000000; stroke-width: 0.8"/>
      </g>
     </g>
     <g id="text_22">
      <!-- 0.00 -->
      <g transform="translate(20.878125 358.759219) scale(0.1 -0.1)">
       <use xlink:href="#DejaVuSans-30"/>
       <use xlink:href="#DejaVuSans-2e" x="63.623047"/>
       <use xlink:href="#DejaVuSans-30" x="95.410156"/>
       <use xlink:href="#DejaVuSans-30" x="159.033203"/>
      </g>
     </g>
    </g>
    <g id="ytick_2">
     <g id="line2d_43">
      <path d="M 50.14375 338.328 
L 384.94375 338.328 
" clip-path="url(#p4992ed5a0e)" style="fill: none; stroke-dasharray: 0.8,1.32; stroke-dashoffset: 0; stroke: #d9d9d9; stroke-width: 0.8"/>
     </g>
     <g id="line2d_44">
      <g>
       <use xlink:href="#mc3253fa959" x="50.14375" y="338.328" style="stroke: #000000; stroke-width: 0.8"/>
      </g>
     </g>
     <g id="text_23">
      <!-- 0.05 -->
      <g transform="translate(20.878125 342.127219) scale(0.1 -0.1)">
       <use xlink:href="#DejaVuSans-30"/>
       <use xlink:href="#DejaVuSans-2e" x="63.623047"/>
       <use xlink:href="#DejaVuSans-30" x="95.410156"/>
       <use xlink:href="#DejaVuSans-35" x="159.033203"/>
      </g>
     </g>
    </g>
    <g id="ytick_3">
     <g id="line2d_45">
      <path d="M 50.14375 321.696 
L 384.94375 321.696 
" clip-path="url(#p4992ed5a0e)" style="fill: none; stroke-dasharray: 0.8,1.32; stroke-dashoffset: 0; stroke: #d9d9d9; stroke-width: 0.8"/>
     </g>
     <g id="line2d_46">
      <g>
       <use xlink:href="#mc3253fa959" x="50.14375" y="321.696" style="stroke: #000000; stroke-width: 0.8"/>
      </g>
     </g>
     <g id="text_24">
      <!-- 0.10 -->
      <g transform="translate(20.878125 325.495218) scale(0.1 -0.1)">
       <use xlink:href="#DejaVuSans-30"/>
       <use xlink:href="#DejaVuSans-2e" x="63.623047"/>
       <use xlink:href="#DejaVuSans-31" x="95.410156"/>
       <use xlink:href="#DejaVuSans-30" x="159.033203"/>
      </g>
     </g>
    </g>
    <g id="ytick_4">
     <g id="line2d_47">
      <path d="M 50.14375 305.063998 
L 384.94375 305.063998 
" clip-path="url(#p4992ed5a0e)" style="fill: none; stroke-dasharray: 0.8,1.32; stroke-dashoffset: 0; stroke: #d9d9d9; stroke-width: 0.8"/>
     </g>
     <g id="line2d_48">
      <g>
       <use xlink:href="#mc3253fa959" x="50.14375" y="305.063998" style="stroke: #000000; stroke-width: 0.8"/>
      </g>
     </g>
     <g id="text_25">
      <!-- 0.15 -->
      <g transform="translate(20.878125 308.863217) scale(0.1 -0.1)">
       <use xlink:href="#DejaVuSans-30"/>
       <use xlink:href="#DejaVuSans-2e" x="63.623047"/>
       <use xlink:href="#DejaVuSans-31" x="95.410156"/>
       <use xlink:href="#DejaVuSans-35" x="159.033203"/>
      </g>
     </g>
    </g>
    <g id="ytick_5">
     <g id="line2d_49">
      <path d="M 50.14375 288.431999 
L 384.94375 288.431999 
" clip-path="url(#p4992ed5a0e)" style="fill: none; stroke-dasharray: 0.8,1.32; stroke-dashoffset: 0; stroke: #d9d9d9; stroke-width: 0.8"/>
     </g>
     <g id="line2d_50">
      <g>
       <use xlink:href="#mc3253fa959" x="50.14375" y="288.431999" style="stroke: #000000; stroke-width: 0.8"/>
      </g>
     </g>
     <g id="text_26">
      <!-- 0.20 -->
      <g transform="translate(20.878125 292.231218) scale(0.1 -0.1)">
       <use xlink:href="#DejaVuSans-30"/>
       <use xlink:href="#DejaVuSans-2e" x="63.623047"/>
       <use xlink:href="#DejaVuSans-32" x="95.410156"/>
       <use xlink:href="#DejaVuSans-30" x="159.033203"/>
      </g>
     </g>
    </g>
    <g id="ytick_6">
     <g id="line2d_51">
      <path d="M 50.14375 271.8 
L 384.94375 271.8 
" clip-path="url(#p4992ed5a0e)" style="fill: none; stroke-dasharray: 0.8,1.32; stroke-dashoffset: 0; stroke: #d9d9d9; stroke-width: 0.8"/>
     </g>
     <g id="line2d_52">
      <g>
       <use xlink:href="#mc3253fa959" x="50.14375" y="271.8" style="stroke: #000000; stroke-width: 0.8"/>
      </g>
     </g>
     <g id="text_27">
      <!-- 0.25 -->
      <g transform="translate(20.878125 275.599219) scale(0.1 -0.1)">
       <use xlink:href="#DejaVuSans-30"/>
       <use xlink:href="#DejaVuSans-2e" x="63.623047"/>
       <use xlink:href="#DejaVuSans-32" x="95.410156"/>
       <use xlink:href="#DejaVuSans-35" x="159.033203"/>
      </g>
     </g>
    </g>
    <g id="ytick_7">
     <g id="line2d_53">
      <path d="M 50.14375 255.167996 
L 384.94375 255.167996 
" clip-path="url(#p4992ed5a0e)" style="fill: none; stroke-dasharray: 0.8,1.32; stroke-dashoffset: 0; stroke: #d9d9d9; stroke-width: 0.8"/>
     </g>
     <g id="line2d_54">
      <g>
       <use xlink:href="#mc3253fa959" x="50.14375" y="255.167996" style="stroke: #000000; stroke-width: 0.8"/>
      </g>
     </g>
     <g id="text_28">
      <!-- 0.30 -->
      <g transform="translate(20.878125 258.967215) scale(0.1 -0.1)">
       <use xlink:href="#DejaVuSans-30"/>
       <use xlink:href="#DejaVuSans-2e" x="63.623047"/>
       <use xlink:href="#DejaVuSans-33" x="95.410156"/>
       <use xlink:href="#DejaVuSans-30" x="159.033203"/>
      </g>
     </g>
    </g>
    <g id="ytick_8">
     <g id="line2d_55">
      <path d="M 50.14375 238.536002 
L 384.94375 238.536002 
" clip-path="url(#p4992ed5a0e)" style="fill: none; stroke-dasharray: 0.8,1.32; stroke-dashoffset: 0; stroke: #d9d9d9; stroke-width: 0.8"/>
     </g>
     <g id="line2d_56">
      <g>
       <use xlink:href="#mc3253fa959" x="50.14375" y="238.536002" style="stroke: #000000; stroke-width: 0.8"/>
      </g>
     </g>
     <g id="text_29">
      <!-- 0.35 -->
      <g transform="translate(20.878125 242.335221) scale(0.1 -0.1)">
       <use xlink:href="#DejaVuSans-30"/>
       <use xlink:href="#DejaVuSans-2e" x="63.623047"/>
       <use xlink:href="#DejaVuSans-33" x="95.410156"/>
       <use xlink:href="#DejaVuSans-35" x="159.033203"/>
      </g>
     </g>
    </g>
    <g id="ytick_9">
     <g id="line2d_57">
      <path d="M 50.14375 221.903998 
L 384.94375 221.903998 
" clip-path="url(#p4992ed5a0e)" style="fill: none; stroke-dasharray: 0.8,1.32; stroke-dashoffset: 0; stroke: #d9d9d9; stroke-width: 0.8"/>
     </g>
     <g id="line2d_58">
      <g>
       <use xlink:href="#mc3253fa959" x="50.14375" y="221.903998" style="stroke: #000000; stroke-width: 0.8"/>
      </g>
     </g>
     <g id="text_30">
      <!-- 0.40 -->
      <g transform="translate(20.878125 225.703217) scale(0.1 -0.1)">
       <use xlink:href="#DejaVuSans-30"/>
       <use xlink:href="#DejaVuSans-2e" x="63.623047"/>
       <use xlink:href="#DejaVuSans-34" x="95.410156"/>
       <use xlink:href="#DejaVuSans-30" x="159.033203"/>
      </g>
     </g>
    </g>
    <g id="ytick_10">
     <g id="line2d_59">
      <path d="M 50.14375 205.271994 
L 384.94375 205.271994 
" clip-path="url(#p4992ed5a0e)" style="fill: none; stroke-dasharray: 0.8,1.32; stroke-dashoffset: 0; stroke: #d9d9d9; stroke-width: 0.8"/>
     </g>
     <g id="line2d_60">
      <g>
       <use xlink:href="#mc3253fa959" x="50.14375" y="205.271994" style="stroke: #000000; stroke-width: 0.8"/>
      </g>
     </g>
     <g id="text_31">
      <!-- 0.45 -->
      <g transform="translate(20.878125 209.071213) scale(0.1 -0.1)">
       <use xlink:href="#DejaVuSans-30"/>
       <use xlink:href="#DejaVuSans-2e" x="63.623047"/>
       <use xlink:href="#DejaVuSans-34" x="95.410156"/>
       <use xlink:href="#DejaVuSans-35" x="159.033203"/>
      </g>
     </g>
    </g>
    <g id="ytick_11">
     <g id="line2d_61">
      <path d="M 50.14375 188.64 
L 384.94375 188.64 
" clip-path="url(#p4992ed5a0e)" style="fill: none; stroke-dasharray: 0.8,1.32; stroke-dashoffset: 0; stroke: #d9d9d9; stroke-width: 0.8"/>
     </g>
     <g id="line2d_62">
      <g>
       <use xlink:href="#mc3253fa959" x="50.14375" y="188.64" style="stroke: #000000; stroke-width: 0.8"/>
      </g>
     </g>
     <g id="text_32">
      <!-- 0.50 -->
      <g transform="translate(20.878125 192.439219) scale(0.1 -0.1)">
       <use xlink:href="#DejaVuSans-30"/>
       <use xlink:href="#DejaVuSans-2e" x="63.623047"/>
       <use xlink:href="#DejaVuSans-35" x="95.410156"/>
       <use xlink:href="#DejaVuSans-30" x="159.033203"/>
      </g>
     </g>
    </g>
    <g id="ytick_12">
     <g id="line2d_63">
      <path d="M 50.14375 172.007996 
L 384.94375 172.007996 
" clip-path="url(#p4992ed5a0e)" style="fill: none; stroke-dasharray: 0.8,1.32; stroke-dashoffset: 0; stroke: #d9d9d9; stroke-width: 0.8"/>
     </g>
     <g id="line2d_64">
      <g>
       <use xlink:href="#mc3253fa959" x="50.14375" y="172.007996" style="stroke: #000000; stroke-width: 0.8"/>
      </g>
     </g>
     <g id="text_33">
      <!-- 0.55 -->
      <g transform="translate(20.878125 175.807215) scale(0.1 -0.1)">
       <use xlink:href="#DejaVuSans-30"/>
       <use xlink:href="#DejaVuSans-2e" x="63.623047"/>
       <use xlink:href="#DejaVuSans-35" x="95.410156"/>
       <use xlink:href="#DejaVuSans-35" x="159.033203"/>
      </g>
     </g>
    </g>
    <g id="ytick_13">
     <g id="line2d_65">
      <path d="M 50.14375 155.375992 
L 384.94375 155.375992 
" clip-path="url(#p4992ed5a0e)" style="fill: none; stroke-dasharray: 0.8,1.32; stroke-dashoffset: 0; stroke: #d9d9d9; stroke-width: 0.8"/>
     </g>
     <g id="line2d_66">
      <g>
       <use xlink:href="#mc3253fa959" x="50.14375" y="155.375992" style="stroke: #000000; stroke-width: 0.8"/>
      </g>
     </g>
     <g id="text_34">
      <!-- 0.60 -->
      <g transform="translate(20.878125 159.175211) scale(0.1 -0.1)">
       <use xlink:href="#DejaVuSans-30"/>
       <use xlink:href="#DejaVuSans-2e" x="63.623047"/>
       <use xlink:href="#DejaVuSans-36" x="95.410156"/>
       <use xlink:href="#DejaVuSans-30" x="159.033203"/>
      </g>
     </g>
    </g>
    <g id="ytick_14">
     <g id="line2d_67">
      <path d="M 50.14375 138.744008 
L 384.94375 138.744008 
" clip-path="url(#p4992ed5a0e)" style="fill: none; stroke-dasharray: 0.8,1.32; stroke-dashoffset: 0; stroke: #d9d9d9; stroke-width: 0.8"/>
     </g>
     <g id="line2d_68">
      <g>
       <use xlink:href="#mc3253fa959" x="50.14375" y="138.744008" style="stroke: #000000; stroke-width: 0.8"/>
      </g>
     </g>
     <g id="text_35">
      <!-- 0.65 -->
      <g transform="translate(20.878125 142.543227) scale(0.1 -0.1)">
       <use xlink:href="#DejaVuSans-30"/>
       <use xlink:href="#DejaVuSans-2e" x="63.623047"/>
       <use xlink:href="#DejaVuSans-36" x="95.410156"/>
       <use xlink:href="#DejaVuSans-35" x="159.033203"/>
      </g>
     </g>
    </g>
    <g id="ytick_15">
     <g id="line2d_69">
      <path d="M 50.14375 122.112004 
L 384.94375 122.112004 
" clip-path="url(#p4992ed5a0e)" style="fill: none; stroke-dasharray: 0.8,1.32; stroke-dashoffset: 0; stroke: #d9d9d9; stroke-width: 0.8"/>
     </g>
     <g id="line2d_70">
      <g>
       <use xlink:href="#mc3253fa959" x="50.14375" y="122.112004" style="stroke: #000000; stroke-width: 0.8"/>
      </g>
     </g>
     <g id="text_36">
      <!-- 0.70 -->
      <g transform="translate(20.878125 125.911223) scale(0.1 -0.1)">
       <use xlink:href="#DejaVuSans-30"/>
       <use xlink:href="#DejaVuSans-2e" x="63.623047"/>
       <use xlink:href="#DejaVuSans-37" x="95.410156"/>
       <use xlink:href="#DejaVuSans-30" x="159.033203"/>
      </g>
     </g>
    </g>
    <g id="ytick_16">
     <g id="line2d_71">
      <path d="M 50.14375 105.48 
L 384.94375 105.48 
" clip-path="url(#p4992ed5a0e)" style="fill: none; stroke-dasharray: 0.8,1.32; stroke-dashoffset: 0; stroke: #d9d9d9; stroke-width: 0.8"/>
     </g>
     <g id="line2d_72">
      <g>
       <use xlink:href="#mc3253fa959" x="50.14375" y="105.48" style="stroke: #000000; stroke-width: 0.8"/>
      </g>
     </g>
     <g id="text_37">
      <!-- 0.75 -->
      <g transform="translate(20.878125 109.279219) scale(0.1 -0.1)">
       <use xlink:href="#DejaVuSans-30"/>
       <use xlink:href="#DejaVuSans-2e" x="63.623047"/>
       <use xlink:href="#DejaVuSans-37" x="95.410156"/>
       <use xlink:href="#DejaVuSans-35" x="159.033203"/>
      </g>
     </g>
    </g>
    <g id="ytick_17">
     <g id="line2d_73">
      <path d="M 50.14375 88.847996 
L 384.94375 88.847996 
" clip-path="url(#p4992ed5a0e)" style="fill: none; stroke-dasharray: 0.8,1.32; stroke-dashoffset: 0; stroke: #d9d9d9; stroke-width: 0.8"/>
     </g>
     <g id="line2d_74">
      <g>
       <use xlink:href="#mc3253fa959" x="50.14375" y="88.847996" style="stroke: #000000; stroke-width: 0.8"/>
      </g>
     </g>
     <g id="text_38">
      <!-- 0.80 -->
      <g transform="translate(20.878125 92.647215) scale(0.1 -0.1)">
       <use xlink:href="#DejaVuSans-30"/>
       <use xlink:href="#DejaVuSans-2e" x="63.623047"/>
       <use xlink:href="#DejaVuSans-38" x="95.410156"/>
       <use xlink:href="#DejaVuSans-30" x="159.033203"/>
      </g>
     </g>
    </g>
    <g id="ytick_18">
     <g id="line2d_75">
      <path d="M 50.14375 72.215992 
L 384.94375 72.215992 
" clip-path="url(#p4992ed5a0e)" style="fill: none; stroke-dasharray: 0.8,1.32; stroke-dashoffset: 0; stroke: #d9d9d9; stroke-width: 0.8"/>
     </g>
     <g id="line2d_76">
      <g>
       <use xlink:href="#mc3253fa959" x="50.14375" y="72.215992" style="stroke: #000000; stroke-width: 0.8"/>
      </g>
     </g>
     <g id="text_39">
      <!-- 0.85 -->
      <g transform="translate(20.878125 76.015211) scale(0.1 -0.1)">
       <use xlink:href="#DejaVuSans-30"/>
       <use xlink:href="#DejaVuSans-2e" x="63.623047"/>
       <use xlink:href="#DejaVuSans-38" x="95.410156"/>
       <use xlink:href="#DejaVuSans-35" x="159.033203"/>
      </g>
     </g>
    </g>
    <g id="ytick_19">
     <g id="line2d_77">
      <path d="M 50.14375 55.584008 
L 384.94375 55.584008 
" clip-path="url(#p4992ed5a0e)" style="fill: none; stroke-dasharray: 0.8,1.32; stroke-dashoffset: 0; stroke: #d9d9d9; stroke-width: 0.8"/>
     </g>
     <g id="line2d_78">
      <g>
       <use xlink:href="#mc3253fa959" x="50.14375" y="55.584008" style="stroke: #000000; stroke-width: 0.8"/>
      </g>
     </g>
     <g id="text_40">
      <!-- 0.90 -->
      <g transform="translate(20.878125 59.383227) scale(0.1 -0.1)">
       <use xlink:href="#DejaVuSans-30"/>
       <use xlink:href="#DejaVuSans-2e" x="63.623047"/>
       <use xlink:href="#DejaVuSans-39" x="95.410156"/>
       <use xlink:href="#DejaVuSans-30" x="159.033203"/>
      </g>
     </g>
    </g>
    <g id="ytick_20">
     <g id="line2d_79">
      <path d="M 50.14375 38.952004 
L 384.94375 38.952004 
" clip-path="url(#p4992ed5a0e)" style="fill: none; stroke-dasharray: 0.8,1.32; stroke-dashoffset: 0; stroke: #d9d9d9; stroke-width: 0.8"/>
     </g>
     <g id="line2d_80">
      <g>
       <use xlink:href="#mc3253fa959" x="50.14375" y="38.952004" style="stroke: #000000; stroke-width: 0.8"/>
      </g>
     </g>
     <g id="text_41">
      <!-- 0.95 -->
      <g transform="translate(20.878125 42.751223) scale(0.1 -0.1)">
       <use xlink:href="#DejaVuSans-30"/>
       <use xlink:href="#DejaVuSans-2e" x="63.623047"/>
       <use xlink:href="#DejaVuSans-39" x="95.410156"/>
       <use xlink:href="#DejaVuSans-35" x="159.033203"/>
      </g>
     </g>
    </g>
    <g id="text_42">
     <!-- Minor self-weight -->
     <g transform="translate(14.798438 231.432969) rotate(-90) scale(0.1 -0.1)">
      <defs>
       <path id="DejaVuSans-6e" d="M 3513 2113 
L 3513 0 
L 2938 0 
L 2938 2094 
Q 2938 2591 2744 2837 
Q 2550 3084 2163 3084 
Q 1697 3084 1428 2787 
Q 1159 2491 1159 1978 
L 1159 0 
L 581 0 
L 581 3500 
L 1159 3500 
L 1159 2956 
Q 1366 3272 1645 3428 
Q 1925 3584 2291 3584 
Q 2894 3584 3203 3211 
Q 3513 2838 3513 2113 
z
" transform="scale(0.015625)"/>
      </defs>
      <use xlink:href="#DejaVuSans-4d"/>
      <use xlink:href="#DejaVuSans-69" x="86.279297"/>
      <use xlink:href="#DejaVuSans-6e" x="114.0625"/>
      <use xlink:href="#DejaVuSans-6f" x="177.441406"/>
      <use xlink:href="#DejaVuSans-72" x="238.623047"/>
      <use xlink:href="#DejaVuSans-20" x="279.736328"/>
      <use xlink:href="#DejaVuSans-73" x="311.523438"/>
      <use xlink:href="#DejaVuSans-65" x="363.623047"/>
      <use xlink:href="#DejaVuSans-6c" x="425.146484"/>
      <use xlink:href="#DejaVuSans-66" x="452.929688"/>
      <use xlink:href="#DejaVuSans-2d" x="482.634766"/>
      <use xlink:href="#DejaVuSans-77" x="518.71875"/>
      <use xlink:href="#DejaVuSans-65" x="600.505859"/>
      <use xlink:href="#DejaVuSans-69" x="662.029297"/>
      <use xlink:href="#DejaVuSans-67" x="689.8125"/>
      <use xlink:href="#DejaVuSans-68" x="753.289062"/>
      <use xlink:href="#DejaVuSans-74" x="816.667969"/>
     </g>
    </g>
   </g>
   <g id="PathCollection_1"/>
   <g id="PathCollection_2">
    <path d="M 52.003749 354.96 
L 56.83975 350.017921 
L 58.783751 348.3072 
L 63.53575 343.428484 
L 65.678473 341.6544 
L 70.23175 337.1305 
L 72.782611 335.0016 
L 74.977082 332.712267 
" clip-path="url(#p4992ed5a0e)" style="fill: none; stroke: #482173; stroke-width: 3"/>
    <path d="M 98.398362 310.539343 
L 100.921749 308.3904 
L 103.711749 305.6184 
L 107.972835 301.737601 
L 110.407747 299.318398 
L 115.094937 295.084803 
L 117.103746 293.088953 
L 121.790939 288.432004 
L 123.79975 286.436153 
L 129.007731 281.7792 
L 130.495748 280.300783 
L 136.354761 275.126402 
L 137.191747 274.176019 
L 142.931196 268.473603 
L 143.88775 267.52322 
L 149.627199 261.8208 
L 150.583754 260.870416 
L 157.279748 255.168005 
L 157.279757 255.167996 
L 163.975751 248.515211 
L 163.975762 248.515202 
L 170.671745 241.862409 
L 170.671755 241.862399 
L 177.367748 235.209616 
L 177.367759 235.209605 
L 184.063742 228.556812 
L 184.063755 228.556802 
L 190.759746 221.904021 
L 190.759758 221.904008 
L 197.455749 215.251217 
L 197.455762 215.251204 
L 204.151743 208.598413 
L 204.151756 208.598401 
L 210.847746 201.94562 
L 210.847759 201.945607 
L 217.54375 195.292816 
L 217.543763 195.292804 
L 224.239744 188.640013 
L 224.239756 188.64 
L 230.935737 181.987219 
L 230.93575 181.987206 
L 236.51577 175.334413 
L 237.631751 174.003879 
L 242.988574 168.681599 
L 244.327744 167.351069 
L 249.684568 162.028806 
L 251.023738 160.698275 
L 255.487736 155.376012 
L 257.719752 152.714852 
L 261.067726 148.723198 
L 264.415745 144.731503 
L 266.647732 142.070405 
L 271.111739 137.635198 
L 273.024878 135.417611 
L 277.807752 129.873599 
L 278.644747 128.764798 
L 284.503746 122.112013 
L 284.503754 122.112004 
L 290.362755 115.45921 
L 291.19974 114.627623 
L 296.407733 108.806397 
L 297.895753 107.327981 
L 302.582939 102.153603 
L 304.591747 99.935998 
L 307.939749 95.50081 
L 311.28774 91.872011 
L 313.86313 88.847996 
L 317.983754 84.412806 
L 319.657756 82.195202 
L 324.679748 75.542394 
L 324.679751 75.542389 
L 329.51576 68.889595 
L 331.375761 66.117598 
L 333.607756 62.236802 
L 337.158662 55.584008 
L 338.071755 53.769603 
L 340.132065 48.931194 
L 342.53575 42.278401 
L 344.30595 35.625607 
L 344.767748 33.724788 
L 345.697748 28.972794 
L 346.882272 22.32 
" clip-path="url(#p4992ed5a0e)" style="fill: none; stroke: #482173; stroke-width: 3"/>
   </g>
   <g id="PathCollection_3"/>
   <g id="PathCollection_4">
    <path d="M 68.976259 354.96 
L 70.23175 353.629451 
L 75.58856 348.3072 
L 76.927749 346.976651 
L 83.108672 341.6544 
L 83.623748 341.179201 
L 90.319743 335.0016 
L 90.319749 335.001594 
L 91.554292 333.963723 
" clip-path="url(#p4992ed5a0e)" style="fill: none; stroke: #433e85; stroke-width: 1.5"/>
    <path d="M 115.900649 312.792596 
L 117.103746 311.716792 
L 120.823734 308.3904 
L 123.79975 305.729264 
L 128.821751 301.737601 
L 130.495748 300.259212 
L 136.354749 295.084803 
L 137.191747 294.345604 
L 143.88775 289.171185 
L 144.844303 288.432004 
L 150.583754 283.442416 
L 152.496908 281.7792 
L 157.279748 277.621204 
L 160.627769 275.126402 
L 163.975751 272.275215 
L 168.439756 268.473603 
L 170.671745 266.572807 
L 176.251746 261.8208 
L 177.367748 260.870396 
L 184.063729 255.167996 
L 184.063742 255.167983 
L 190.759746 249.623977 
L 192.098914 248.515202 
L 197.455749 243.192928 
L 198.794916 241.862399 
L 204.151743 237.427212 
L 206.830176 235.209605 
L 210.847746 231.217955 
L 213.52618 228.556802 
L 217.54375 224.565157 
L 219.775757 221.904008 
L 224.239744 216.581733 
L 225.57891 215.251204 
L 230.935737 209.92893 
L 232.051715 208.598401 
L 236.515746 201.945607 
L 237.631751 200.615046 
L 242.095755 195.292804 
L 244.327744 192.631698 
L 247.675761 188.64 
L 251.023738 183.650385 
L 252.139716 181.987206 
L 256.603747 175.334413 
L 257.719752 173.671214 
L 260.58946 168.681599 
L 264.415735 162.028806 
L 264.415745 162.02879 
L 268.60075 155.376012 
L 271.111739 150.386382 
L 271.948724 148.723198 
L 276.133751 142.070405 
L 277.807752 138.744038 
L 279.481766 135.417611 
L 283.015758 128.764798 
L 284.503746 126.547209 
L 287.479739 122.112004 
L 291.199732 115.45921 
L 291.19974 115.459197 
L 294.8521 108.806397 
L 297.895753 103.262378 
L 298.410819 102.153603 
L 300.765451 95.50081 
L 302.678596 88.847996 
L 304.113462 82.195202 
L 304.591747 78.868756 
L 305.010237 75.542389 
L 305.773395 68.889595 
L 306.079743 62.236802 
L 306.079743 55.584008 
L 305.773395 48.931194 
L 305.707749 42.278401 
L 305.649012 35.625607 
L 305.59615 28.972794 
L 305.261352 22.32 
" clip-path="url(#p4992ed5a0e)" style="fill: none; stroke: #433e85; stroke-width: 1.5"/>
   </g>
   <g id="PathCollection_5"/>
   <g id="PathCollection_6">
    <path d="M 105.199755 354.96 
L 110.407747 349.785607 
L 112.081752 348.3072 
L 117.103746 343.871997 
L 119.61474 341.6544 
L 120.762432 340.64081 
" clip-path="url(#p4992ed5a0e)" style="fill: none; stroke: #38588c; stroke-width: 1.5"/>
    <path d="M 140.229062 323.448793 
L 142.213754 321.696002 
L 143.88775 320.217604 
L 149.746746 315.043201 
L 150.583754 314.211593 
L 157.279725 308.3904 
L 157.279748 308.39038 
L 163.975751 302.688019 
L 165.091768 301.737601 
L 170.671745 296.985604 
L 172.903764 295.084803 
L 177.367748 291.283213 
L 180.715752 288.432004 
L 184.063742 285.937201 
L 189.643729 281.7792 
L 190.759746 280.828794 
L 197.455723 275.126402 
L 197.455749 275.126379 
L 204.151743 270.374404 
L 206.383762 268.473603 
L 210.847746 264.672011 
L 214.195755 261.8208 
L 217.54375 258.494404 
L 221.561346 255.167996 
L 224.239744 252.506879 
L 228.25734 248.515202 
L 230.935737 245.854081 
L 234.953345 241.862399 
L 237.631751 238.536012 
L 240.310164 235.209605 
L 244.327744 230.220037 
L 245.443761 228.556802 
L 251.023706 221.904008 
L 251.023738 221.903955 
L 254.371751 215.251204 
L 257.719752 210.261636 
L 258.67634 208.598401 
L 262.502598 201.945607 
L 264.415745 197.51044 
L 265.372334 195.292804 
L 268.60074 188.64 
L 271.111719 181.987206 
L 271.111739 181.987153 
L 273.622736 175.334413 
L 276.133754 168.681599 
L 277.807752 164.246439 
L 278.644769 162.028806 
L 281.527751 155.376012 
L 283.759739 148.723198 
L 284.503746 146.505592 
L 285.842953 142.070405 
L 287.851727 135.417611 
L 289.982285 128.764798 
L 291.19974 124.329637 
L 291.757752 122.112004 
L 293.260042 115.45921 
L 294.290214 108.806397 
L 294.547749 102.153603 
L 295.02603 95.50081 
L 295.50431 88.847996 
L 295.217342 82.195202 
L 294.770947 75.542389 
L 294.770947 68.889595 
L 294.324551 62.236802 
L 293.710747 55.584008 
L 293.563043 48.931194 
L 293.169149 42.278401 
L 292.77527 35.625607 
L 292.31574 28.972794 
L 291.943745 22.32 
" clip-path="url(#p4992ed5a0e)" style="fill: none; stroke: #38588c; stroke-width: 1.5"/>
   </g>
   <g id="PathCollection_7"/>
   <g id="PathCollection_8">
    <path d="M 150.583777 354.96 
L 157.279748 348.307223 
L 157.27977 348.3072 
L 163.975751 341.654423 
L 163.975778 341.6544 
L 170.671745 335.952007 
L 171.628323 335.0016 
L 173.657079 332.985935 
" clip-path="url(#p4992ed5a0e)" style="fill: none; stroke: #2d708e; stroke-width: 1.5"/>
    <path d="M 197.159263 310.902578 
L 197.455749 310.608005 
L 199.687752 308.3904 
L 204.151743 303.955205 
L 206.830144 301.737601 
L 210.847746 298.411195 
L 214.195742 295.084803 
L 217.54375 292.233593 
L 222.007728 288.432004 
L 224.239744 286.214385 
L 229.596507 281.7792 
L 230.935737 280.670383 
L 237.631751 275.126428 
L 237.631783 275.126402 
L 244.327744 268.473635 
L 244.327776 268.473603 
L 251.023738 261.820831 
L 251.023765 261.8208 
L 256.603732 255.167996 
L 257.719752 253.504763 
L 261.067742 248.515202 
L 264.415745 243.525615 
L 265.53176 241.862399 
L 269.198596 235.209605 
L 271.111739 230.774412 
L 272.068319 228.556802 
L 274.938023 221.904008 
L 277.807752 215.251257 
L 277.807772 215.251204 
L 279.481746 208.598401 
L 281.527762 201.945607 
L 283.015741 195.292804 
L 284.503746 188.640079 
L 284.503764 188.64 
L 285.991743 181.987206 
L 287.182127 175.334413 
L 288.52135 168.681599 
L 289.860533 162.028806 
L 291.19974 155.376091 
L 291.199754 155.376012 
L 292.315739 148.723198 
L 293.431735 142.070405 
L 293.98975 135.417611 
L 294.547743 128.764798 
L 294.805279 122.112004 
L 295.320369 115.45921 
L 295.320369 108.806397 
L 295.026024 102.153603 
L 295.026024 95.50081 
L 294.324546 88.847996 
L 293.87815 82.195202 
L 293.292248 75.542389 
L 292.538937 68.889595 
L 292.036742 62.236802 
L 291.618244 55.584008 
L 291.19974 52.257621 
L 290.781231 48.931194 
L 290.362738 42.278401 
L 289.525745 35.625607 
L 289.10725 28.972794 
L 288.442567 22.32 
" clip-path="url(#p4992ed5a0e)" style="fill: none; stroke: #2d708e; stroke-width: 1.5"/>
   </g>
   <g id="PathCollection_9"/>
   <g id="PathCollection_10">
    <path d="M 198.57175 354.96 
L 204.151743 348.307216 
L 204.151756 348.3072 
L 210.847746 341.654414 
L 210.84776 341.6544 
L 214.148599 337.718957 
" clip-path="url(#p4992ed5a0e)" style="fill: none; stroke: #25858e; stroke-width: 1.5"/>
    <path d="M 231.755989 318.663434 
L 235.399737 315.043201 
L 237.631751 312.382049 
L 240.979728 308.3904 
L 244.327744 305.063981 
L 247.675721 301.737601 
L 251.023738 298.411182 
L 254.371725 295.084803 
L 257.719752 291.758383 
L 261.067728 288.432004 
L 264.415745 285.105582 
L 267.763722 281.7792 
L 271.111739 277.787505 
L 273.343734 275.126402 
L 277.807752 268.473623 
L 277.807766 268.473603 
L 281.634038 261.8208 
L 284.503746 255.168022 
L 284.503757 255.167996 
L 287.373445 248.515202 
L 289.525726 241.862399 
L 291.19974 235.209645 
L 291.19975 235.209605 
L 292.687732 228.556802 
L 294.175759 221.904008 
L 295.217348 215.251204 
L 296.407734 208.598401 
L 297.15177 201.945607 
L 297.895753 195.292883 
L 297.89576 195.292804 
L 298.504481 188.64 
L 299.113201 181.987206 
L 299.721921 175.334413 
L 300.127758 168.681599 
L 300.330664 162.028806 
L 300.685749 155.376012 
L 300.986206 148.723198 
L 300.986206 142.070405 
L 300.986206 135.417611 
L 300.986206 128.764798 
L 300.471137 122.112004 
L 300.287183 115.45921 
L 299.681355 108.806397 
L 298.852317 102.153603 
L 298.342153 95.50081 
L 297.895759 88.847996 
L 297.895753 88.847956 
L 296.939169 82.195202 
L 296.11015 75.542389 
L 295.663754 68.889595 
L 294.770949 62.236802 
L 294.129243 55.584008 
L 293.431749 48.931194 
L 292.873748 42.278401 
L 292.036737 35.625607 
L 291.199745 28.972794 
L 291.19974 28.972714 
L 290.753351 22.32 
" clip-path="url(#p4992ed5a0e)" style="fill: none; stroke: #25858e; stroke-width: 1.5"/>
   </g>
   <g id="PathCollection_11"/>
   <g id="PathCollection_12">
    <path d="M 243.371182 354.96 
L 244.327744 353.629456 
L 248.791762 348.3072 
L 251.023738 344.9808 
L 253.25572 341.6544 
L 257.719752 336.332145 
L 258.676314 335.0016 
L 263.299757 328.348801 
L 264.415745 327.018257 
L 268.242019 321.696002 
L 271.111739 317.70429 
L 273.343721 315.043201 
L 277.807752 308.3904 
L 277.807752 308.3904 
L 283.387758 301.737601 
L 284.503746 300.407057 
L 288.967764 295.084803 
L 291.19974 291.758403 
L 293.431722 288.432004 
L 296.939188 281.7792 
L 297.895753 279.561601 
L 299.808878 275.126402 
L 302.678622 268.473603 
L 303.847757 261.8208 
L 304.591747 258.494398 
L 305.335736 255.167996 
L 306.823759 248.515202 
L 307.567749 241.862399 
L 307.939744 235.209605 
L 308.609335 228.556802 
L 309.278938 221.904008 
L 309.461554 215.251204 
L 309.461554 208.598401 
L 310.0703 201.945607 
L 310.0703 195.292804 
L 310.0703 188.64 
L 310.171753 181.987206 
L 310.171753 175.334413 
L 309.742502 168.681599 
L 309.742502 162.028806 
L 309.742502 155.376012 
L 309.227432 148.723198 
L 308.712363 142.070405 
L 308.418037 135.417611 
L 307.939744 128.764798 
L 307.167124 122.112004 
L 306.504892 115.45921 
L 306.026613 108.806397 
L 305.070026 102.153603 
L 304.786088 98.204066 
" clip-path="url(#p4992ed5a0e)" style="fill: none; stroke: #1e9b8a; stroke-width: 1.5"/>
    <path d="M 301.099543 66.151858 
L 300.574145 62.236802 
L 299.681357 55.584008 
L 299.151258 48.931194 
L 298.314248 42.278401 
L 297.895753 38.952004 
L 297.449358 35.625607 
L 296.556545 28.972794 
L 296.110144 22.32 
" clip-path="url(#p4992ed5a0e)" style="fill: none; stroke: #1e9b8a; stroke-width: 1.5"/>
   </g>
   <g id="PathCollection_13"/>
   <g id="PathCollection_14">
    <path d="M 283.547172 354.96 
L 284.503746 353.296805 
L 287.373454 348.3072 
L 291.199726 341.6544 
L 291.19974 341.654374 
L 294.547766 335.0016 
L 297.895742 328.348801 
L 297.895753 328.348781 
L 301.722048 321.696002 
L 304.591747 316.706381 
L 305.707721 315.043201 
L 310.171739 308.3904 
L 311.28774 306.172818 
L 313.2009 301.737601 
L 316.070612 295.084803 
L 317.983744 288.432004 
L 317.983754 288.431964 
L 319.471768 281.7792 
L 320.662151 275.126402 
L 321.331743 268.473603 
L 321.703737 261.8208 
L 322.001334 255.167996 
L 322.244837 248.515202 
L 322.244837 241.862399 
L 322.244837 235.209605 
L 322.244837 228.556802 
L 322.244837 221.904008 
L 322.244837 215.251204 
L 322.244837 208.598401 
L 321.889752 201.945607 
L 321.889752 195.292804 
L 321.331744 188.64 
L 321.331744 181.987206 
L 320.77375 175.334413 
L 320.559125 168.681599 
L 320.044056 162.028806 
L 319.528987 155.376012 
L 318.940335 148.723198 
L 317.983754 142.070444 
L 317.983748 142.070405 
L 317.468677 135.417611 
L 316.548907 128.764798 
L 315.923434 122.112004 
L 315.114036 115.45921 
L 314.378204 108.806397 
L 313.679166 102.153603 
L 312.722605 95.50081 
L 312.244324 88.847996 
L 311.28774 82.195242 
L 311.287735 82.195202 
L 310.809456 75.542389 
L 310.747422 75.110947 
" clip-path="url(#p4992ed5a0e)" style="fill: none; stroke: #2ab07f; stroke-width: 1.5"/>
    <path d="M 307.52105 49.345738 
L 307.461445 48.931194 
L 306.823739 42.278401 
L 305.930951 35.625607 
L 305.07002 28.972794 
L 304.591747 22.320079 
L 304.591741 22.32 
" clip-path="url(#p4992ed5a0e)" style="fill: none; stroke: #2ab07f; stroke-width: 1.5"/>
   </g>
   <g id="PathCollection_15"/>
   <g id="PathCollection_16">
    <path d="M 316.309756 354.96 
L 317.983754 350.524835 
L 318.940342 348.3072 
L 321.810038 341.6544 
L 324.679725 335.0016 
L 324.679748 335.001521 
L 326.592896 328.348801 
L 329.701763 321.696002 
L 331.375761 317.260837 
L 332.212778 315.043201 
L 333.886751 308.3904 
L 335.560756 301.737601 
L 336.062965 295.084803 
L 336.583758 288.432004 
L 336.732556 281.7792 
L 336.732556 275.126402 
L 336.8543 268.473603 
L 336.8543 261.8208 
L 336.8543 255.167996 
L 336.8543 248.515202 
L 336.39776 241.862399 
L 336.24558 235.209605 
L 336.24558 228.556802 
L 335.839766 221.904008 
L 335.281752 215.251204 
L 335.281752 208.598401 
L 334.723761 201.945607 
L 334.165751 195.292804 
L 333.951138 188.64 
L 333.651446 184.76917 
" clip-path="url(#p4992ed5a0e)" style="fill: none; stroke: #52c569; stroke-width: 1.5"/>
    <path d="M 330.649876 152.653229 
L 330.345607 148.723198 
L 329.830536 142.070405 
L 329.315456 135.417611 
L 328.285293 128.764798 
L 327.770222 122.112004 
L 327.071168 115.45921 
L 326.224979 108.806397 
L 325.709908 102.153603 
L 325.158045 95.50081 
L 324.679748 92.174383 
L 324.164666 88.847996 
L 323.649597 82.195202 
L 322.76662 75.542389 
L 322.104358 68.889595 
L 321.589289 62.236802 
L 320.853474 55.584008 
L 320.04405 48.931194 
L 319.418609 42.278401 
L 318.498842 35.625607 
L 317.983754 28.972952 
L 317.983743 28.972794 
L 317.468671 22.32 
" clip-path="url(#p4992ed5a0e)" style="fill: none; stroke: #52c569; stroke-width: 1.5"/>
   </g>
   <g id="PathCollection_17"/>
   <g id="PathCollection_18">
    <path d="M 344.767768 354.96 
L 346.255745 348.3072 
L 347.743744 341.6544 
L 349.231747 335.0016 
L 350.719726 328.348801 
L 351.463742 325.022381 
L 352.133351 321.696002 
L 352.133351 315.043201 
L 352.6812 308.3904 
L 352.6812 301.737601 
L 352.6812 295.084803 
L 352.133351 288.432004 
L 352.072475 281.7792 
L 352.072475 275.126402 
L 352.021748 268.473603 
L 351.463757 261.8208 
L 351.463755 255.167996 
L 351.463742 255.167837 
L 350.855003 248.515202 
L 350.855003 241.862399 
L 350.34774 235.209605 
L 350.246287 228.556802 
L 349.789749 221.904008 
L 349.231746 215.251204 
L 349.02884 208.598401 
L 348.673752 201.945607 
L 348.115742 195.292804 
L 347.557751 188.64 
L 346.999737 181.987206 
L 346.441743 175.334413 
L 346.312969 168.681599 
L 345.797899 162.028806 
L 345.28283 155.376012 
L 344.767761 148.723198 
L 344.767748 148.72304 
L 344.209737 142.070405 
L 344.179096 141.705076 
" clip-path="url(#p4992ed5a0e)" style="fill: none; stroke: #86d549; stroke-width: 1.5"/>
    <path d="M 341.728269 115.854327 
L 341.677283 115.45921 
L 341.162214 108.806397 
L 340.647145 102.153603 
L 340.132054 95.50081 
L 339.616975 88.847996 
L 339.101906 82.195202 
L 338.586836 75.542389 
L 338.071767 68.889595 
L 338.071755 68.889437 
L 337.513744 62.236802 
L 336.955753 55.584008 
L 336.011459 48.931194 
L 335.496378 42.278401 
L 334.98129 35.625607 
L 334.46622 28.972794 
L 333.951151 22.32 
" clip-path="url(#p4992ed5a0e)" style="fill: none; stroke: #86d549; stroke-width: 1.5"/>
   </g>
   <g id="PathCollection_19"/>
   <g id="PathCollection_20">
    <path d="M 366.864531 354.96 
L 367.534163 348.3072 
L 368.203754 341.6544 
L 368.57575 335.0016 
L 368.508113 328.348801 
L 368.508113 321.696002 
L 368.508113 315.043201 
L 368.508113 308.3904 
L 368.203754 301.737601 
L 367.899393 295.084803 
L 367.899393 288.432004 
L 367.899393 281.7792 
L 367.29066 275.126402 
L 367.29066 268.473603 
L 367.29066 261.8208 
L 366.681917 255.167996 
L 366.681917 248.515202 
L 366.681917 241.862399 
L 366.073197 235.209605 
L 366.073197 228.556802 
L 365.464477 221.904008 
L 365.464477 215.251204 
L 364.855756 208.598401 
L 364.855756 201.945607 
L 364.855756 195.292804 
L 364.855749 195.292724 
L 364.247036 188.64 
L 363.73974 181.987206 
L 363.638287 175.334413 
L 363.37454 171.491013 
" clip-path="url(#p4992ed5a0e)" style="fill: none; stroke: #c2df23; stroke-width: 1.5"/>
    <path d="M 361.81212 139.271182 
L 361.81212 135.417611 
L 361.2034 128.764798 
L 360.949751 122.112004 
L 360.594666 115.45921 
L 360.39176 108.806397 
L 359.985923 102.153603 
L 359.833744 95.50081 
L 359.377203 88.847996 
L 358.768483 82.195202 
L 358.717753 75.542389 
L 358.159763 68.889595 
L 358.159762 62.236802 
L 358.159756 62.236722 
L 357.601767 55.584008 
L 357.551041 48.931194 
L 357.043743 42.278401 
L 356.485751 35.625607 
L 356.333571 28.972794 
L 355.927758 22.32 
" clip-path="url(#p4992ed5a0e)" style="fill: none; stroke: #c2df23; stroke-width: 1.5"/>
   </g>
   <g id="PathCollection_21"/>
   <g id="PathCollection_22">
    <path d="M 381.595747 354.96 
L 381.595747 348.3072 
L 381.595747 341.6544 
L 381.595747 335.0016 
L 381.595747 328.348801 
L 381.595747 321.696002 
L 381.595747 315.043201 
L 381.595747 308.3904 
L 381.595747 304.56076 
" clip-path="url(#p4992ed5a0e)" style="fill: none; stroke: #fde725; stroke-width: 1.5"/>
    <path d="M 381.291387 272.29629 
L 381.291387 268.473603 
L 380.926155 261.8208 
L 380.926155 255.167996 
L 380.926155 248.515202 
L 380.926155 241.862399 
L 380.926155 235.209605 
L 380.926155 228.556802 
L 380.926155 221.904008 
L 380.682667 215.251204 
L 380.682667 208.598401 
L 380.682667 201.945607 
L 380.256564 195.292804 
L 380.256564 188.64 
L 380.256564 181.987206 
L 380.256564 175.334413 
L 380.256564 168.681599 
L 380.256564 162.028806 
L 380.073937 155.376012 
L 380.073937 148.723198 
L 380.073937 142.070405 
L 379.586965 135.417611 
L 379.586965 128.764798 
L 379.586965 122.112004 
L 379.586965 115.45921 
L 379.586965 108.806397 
L 379.46522 102.153603 
L 379.46522 95.50081 
L 379.46522 88.847996 
L 379.46522 82.195202 
L 378.917341 75.542389 
L 378.917341 68.889595 
L 378.917341 62.236802 
L 378.917341 55.584008 
L 378.856471 48.931194 
L 378.856471 42.278401 
L 378.856471 35.625607 
L 378.856471 28.972794 
L 378.247756 22.320063 
L 378.247751 22.32 
" clip-path="url(#p4992ed5a0e)" style="fill: none; stroke: #fde725; stroke-width: 1.5"/>
   </g>
   <g id="line2d_81">
    <path d="M 344.76775 354.96 
L 344.76775 22.32 
" clip-path="url(#p4992ed5a0e)" style="fill: none; stroke-dasharray: 5.55,2.4; stroke-dashoffset: 0; stroke: #ff0000; stroke-opacity: 0.75; stroke-width: 1.5"/>
   </g>
   <g id="line2d_82">
    <defs>
     <path id="m43071a8894" d="M 0 4 
C 1.060812 4 2.078319 3.578535 2.828427 2.828427 
C 3.578535 2.078319 4 1.060812 4 0 
C 4 -1.060812 3.578535 -2.078319 2.828427 -2.828427 
C 2.078319 -3.578535 1.060812 -4 0 -4 
C -1.060812 -4 -2.078319 -3.578535 -2.828427 -2.828427 
C -3.578535 -2.078319 -4 -1.060812 -4 0 
C -4 1.060812 -3.578535 2.078319 -2.828427 2.828427 
C -2.078319 3.578535 -1.060812 4 0 4 
z
" style="stroke: #ff0000; stroke-opacity: 0.75"/>
    </defs>
    <g clip-path="url(#p4992ed5a0e)">
     <use xlink:href="#m43071a8894" x="344.76775" y="22.32" style="fill: #ff0000; fill-opacity: 0.75; stroke: #ff0000; stroke-opacity: 0.75"/>
    </g>
   </g>
   <g id="patch_3">
    <path d="M 50.14375 354.96 
L 50.14375 22.32 
" style="fill: none; stroke: #000000; stroke-width: 0.8; stroke-linejoin: miter; stroke-linecap: square"/>
   </g>
   <g id="patch_4">
    <path d="M 384.94375 354.96 
L 384.94375 22.32 
" style="fill: none; stroke: #000000; stroke-width: 0.8; stroke-linejoin: miter; stroke-linecap: square"/>
   </g>
   <g id="patch_5">
    <path d="M 50.14375 354.96 
L 384.94375 354.96 
" style="fill: none; stroke: #000000; stroke-width: 0.8; stroke-linejoin: miter; stroke-linecap: square"/>
   </g>
   <g id="patch_6">
    <path d="M 50.14375 22.32 
L 384.94375 22.32 
" style="fill: none; stroke: #000000; stroke-width: 0.8; stroke-linejoin: miter; stroke-linecap: square"/>
   </g>
   <g id="text_43">
    <!-- 51% stake + 88% utility -->
    <g style="opacity: 0.8" transform="translate(66.88375 58.576344) scale(0.11 -0.11)">
     <defs>
      <path id="DejaVuSans-Bold-35" d="M 678 4666 
L 3669 4666 
L 3669 3781 
L 1638 3781 
L 1638 3059 
Q 1775 3097 1914 3117 
Q 2053 3138 2203 3138 
Q 3056 3138 3531 2711 
Q 4006 2284 4006 1522 
Q 4006 766 3489 337 
Q 2972 -91 2053 -91 
Q 1656 -91 1267 -14 
Q 878 63 494 219 
L 494 1166 
Q 875 947 1217 837 
Q 1559 728 1863 728 
Q 2300 728 2551 942 
Q 2803 1156 2803 1522 
Q 2803 1891 2551 2103 
Q 2300 2316 1863 2316 
Q 1603 2316 1309 2248 
Q 1016 2181 678 2041 
L 678 4666 
z
" transform="scale(0.015625)"/>
      <path id="DejaVuSans-Bold-31" d="M 750 831 
L 1813 831 
L 1813 3847 
L 722 3622 
L 722 4441 
L 1806 4666 
L 2950 4666 
L 2950 831 
L 4013 831 
L 4013 0 
L 750 0 
L 750 831 
z
" transform="scale(0.015625)"/>
      <path id="DejaVuSans-Bold-25" d="M 4959 1925 
Q 4738 1925 4616 1733 
Q 4494 1541 4494 1184 
Q 4494 825 4614 633 
Q 4734 441 4959 441 
Q 5184 441 5303 633 
Q 5422 825 5422 1184 
Q 5422 1541 5301 1733 
Q 5181 1925 4959 1925 
z
M 4959 2450 
Q 5541 2450 5875 2112 
Q 6209 1775 6209 1184 
Q 6209 594 5875 251 
Q 5541 -91 4959 -91 
Q 4378 -91 4042 251 
Q 3706 594 3706 1184 
Q 3706 1772 4042 2111 
Q 4378 2450 4959 2450 
z
M 2094 -91 
L 1403 -91 
L 4319 4750 
L 5013 4750 
L 2094 -91 
z
M 1453 4750 
Q 2034 4750 2367 4411 
Q 2700 4072 2700 3481 
Q 2700 2891 2367 2550 
Q 2034 2209 1453 2209 
Q 872 2209 539 2550 
Q 206 2891 206 3481 
Q 206 4072 539 4411 
Q 872 4750 1453 4750 
z
M 1453 4225 
Q 1228 4225 1106 4031 
Q 984 3838 984 3481 
Q 984 3122 1106 2926 
Q 1228 2731 1453 2731 
Q 1678 2731 1798 2926 
Q 1919 3122 1919 3481 
Q 1919 3838 1797 4031 
Q 1675 4225 1453 4225 
z
" transform="scale(0.015625)"/>
      <path id="DejaVuSans-Bold-20" transform="scale(0.015625)"/>
      <path id="DejaVuSans-Bold-73" d="M 3272 3391 
L 3272 2541 
Q 2913 2691 2578 2766 
Q 2244 2841 1947 2841 
Q 1628 2841 1473 2761 
Q 1319 2681 1319 2516 
Q 1319 2381 1436 2309 
Q 1553 2238 1856 2203 
L 2053 2175 
Q 2913 2066 3209 1816 
Q 3506 1566 3506 1031 
Q 3506 472 3093 190 
Q 2681 -91 1863 -91 
Q 1516 -91 1145 -36 
Q 775 19 384 128 
L 384 978 
Q 719 816 1070 734 
Q 1422 653 1784 653 
Q 2113 653 2278 743 
Q 2444 834 2444 1013 
Q 2444 1163 2330 1236 
Q 2216 1309 1875 1350 
L 1678 1375 
Q 931 1469 631 1722 
Q 331 1975 331 2491 
Q 331 3047 712 3315 
Q 1094 3584 1881 3584 
Q 2191 3584 2531 3537 
Q 2872 3491 3272 3391 
z
" transform="scale(0.015625)"/>
      <path id="DejaVuSans-Bold-74" d="M 1759 4494 
L 1759 3500 
L 2913 3500 
L 2913 2700 
L 1759 2700 
L 1759 1216 
Q 1759 972 1856 886 
Q 1953 800 2241 800 
L 2816 800 
L 2816 0 
L 1856 0 
Q 1194 0 917 276 
Q 641 553 641 1216 
L 641 2700 
L 84 2700 
L 84 3500 
L 641 3500 
L 641 4494 
L 1759 4494 
z
" transform="scale(0.015625)"/>
      <path id="DejaVuSans-Bold-61" d="M 2106 1575 
Q 1756 1575 1579 1456 
Q 1403 1338 1403 1106 
Q 1403 894 1545 773 
Q 1688 653 1941 653 
Q 2256 653 2472 879 
Q 2688 1106 2688 1447 
L 2688 1575 
L 2106 1575 
z
M 3816 1997 
L 3816 0 
L 2688 0 
L 2688 519 
Q 2463 200 2181 54 
Q 1900 -91 1497 -91 
Q 953 -91 614 226 
Q 275 544 275 1050 
Q 275 1666 698 1953 
Q 1122 2241 2028 2241 
L 2688 2241 
L 2688 2328 
Q 2688 2594 2478 2717 
Q 2269 2841 1825 2841 
Q 1466 2841 1156 2769 
Q 847 2697 581 2553 
L 581 3406 
Q 941 3494 1303 3539 
Q 1666 3584 2028 3584 
Q 2975 3584 3395 3211 
Q 3816 2838 3816 1997 
z
" transform="scale(0.015625)"/>
      <path id="DejaVuSans-Bold-6b" d="M 538 4863 
L 1656 4863 
L 1656 2216 
L 2944 3500 
L 4244 3500 
L 2534 1894 
L 4378 0 
L 3022 0 
L 1656 1459 
L 1656 0 
L 538 0 
L 538 4863 
z
" transform="scale(0.015625)"/>
      <path id="DejaVuSans-Bold-65" d="M 4031 1759 
L 4031 1441 
L 1416 1441 
Q 1456 1047 1700 850 
Q 1944 653 2381 653 
Q 2734 653 3104 758 
Q 3475 863 3866 1075 
L 3866 213 
Q 3469 63 3072 -14 
Q 2675 -91 2278 -91 
Q 1328 -91 801 392 
Q 275 875 275 1747 
Q 275 2603 792 3093 
Q 1309 3584 2216 3584 
Q 3041 3584 3536 3087 
Q 4031 2591 4031 1759 
z
M 2881 2131 
Q 2881 2450 2695 2645 
Q 2509 2841 2209 2841 
Q 1884 2841 1681 2658 
Q 1478 2475 1428 2131 
L 2881 2131 
z
" transform="scale(0.015625)"/>
      <path id="DejaVuSans-Bold-2b" d="M 3053 4013 
L 3053 2375 
L 4684 2375 
L 4684 1638 
L 3053 1638 
L 3053 0 
L 2309 0 
L 2309 1638 
L 678 1638 
L 678 2375 
L 2309 2375 
L 2309 4013 
L 3053 4013 
z
" transform="scale(0.015625)"/>
      <path id="DejaVuSans-Bold-38" d="M 2228 2088 
Q 1891 2088 1709 1903 
Q 1528 1719 1528 1375 
Q 1528 1031 1709 848 
Q 1891 666 2228 666 
Q 2563 666 2741 848 
Q 2919 1031 2919 1375 
Q 2919 1722 2741 1905 
Q 2563 2088 2228 2088 
z
M 1350 2484 
Q 925 2613 709 2878 
Q 494 3144 494 3541 
Q 494 4131 934 4440 
Q 1375 4750 2228 4750 
Q 3075 4750 3515 4442 
Q 3956 4134 3956 3541 
Q 3956 3144 3739 2878 
Q 3522 2613 3097 2484 
Q 3572 2353 3814 2058 
Q 4056 1763 4056 1313 
Q 4056 619 3595 264 
Q 3134 -91 2228 -91 
Q 1319 -91 855 264 
Q 391 619 391 1313 
Q 391 1763 633 2058 
Q 875 2353 1350 2484 
z
M 1631 3419 
Q 1631 3141 1786 2991 
Q 1941 2841 2228 2841 
Q 2509 2841 2662 2991 
Q 2816 3141 2816 3419 
Q 2816 3697 2662 3845 
Q 2509 3994 2228 3994 
Q 1941 3994 1786 3844 
Q 1631 3694 1631 3419 
z
" transform="scale(0.015625)"/>
      <path id="DejaVuSans-Bold-75" d="M 500 1363 
L 500 3500 
L 1625 3500 
L 1625 3150 
Q 1625 2866 1622 2436 
Q 1619 2006 1619 1863 
Q 1619 1441 1641 1255 
Q 1663 1069 1716 984 
Q 1784 875 1895 815 
Q 2006 756 2150 756 
Q 2500 756 2700 1025 
Q 2900 1294 2900 1772 
L 2900 3500 
L 4019 3500 
L 4019 0 
L 2900 0 
L 2900 506 
Q 2647 200 2364 54 
Q 2081 -91 1741 -91 
Q 1134 -91 817 281 
Q 500 653 500 1363 
z
" transform="scale(0.015625)"/>
      <path id="DejaVuSans-Bold-69" d="M 538 3500 
L 1656 3500 
L 1656 0 
L 538 0 
L 538 3500 
z
M 538 4863 
L 1656 4863 
L 1656 3950 
L 538 3950 
L 538 4863 
z
" transform="scale(0.015625)"/>
      <path id="DejaVuSans-Bold-6c" d="M 538 4863 
L 1656 4863 
L 1656 0 
L 538 0 
L 538 4863 
z
" transform="scale(0.015625)"/>
      <path id="DejaVuSans-Bold-79" d="M 78 3500 
L 1197 3500 
L 2138 1125 
L 2938 3500 
L 4056 3500 
L 2584 -331 
Q 2363 -916 2067 -1148 
Q 1772 -1381 1288 -1381 
L 641 -1381 
L 641 -647 
L 991 -647 
Q 1275 -647 1404 -556 
Q 1534 -466 1606 -231 
L 1638 -134 
L 78 3500 
z
" transform="scale(0.015625)"/>
     </defs>
     <use xlink:href="#DejaVuSans-Bold-35"/>
     <use xlink:href="#DejaVuSans-Bold-31" x="69.580078"/>
     <use xlink:href="#DejaVuSans-Bold-25" x="139.160156"/>
     <use xlink:href="#DejaVuSans-Bold-20" x="239.355469"/>
     <use xlink:href="#DejaVuSans-Bold-73" x="274.169922"/>
     <use xlink:href="#DejaVuSans-Bold-74" x="333.691406"/>
     <use xlink:href="#DejaVuSans-Bold-61" x="381.494141"/>
     <use xlink:href="#DejaVuSans-Bold-6b" x="448.974609"/>
     <use xlink:href="#DejaVuSans-Bold-65" x="512.853516"/>
     <use xlink:href="#DejaVuSans-Bold-20" x="580.675781"/>
     <use xlink:href="#DejaVuSans-Bold-2b" x="615.490234"/>
     <use xlink:href="#DejaVuSans-Bold-20" x="699.279297"/>
     <use xlink:href="#DejaVuSans-Bold-38" x="734.09375"/>
     <use xlink:href="#DejaVuSans-Bold-38" x="803.673828"/>
     <use xlink:href="#DejaVuSans-Bold-25" x="873.253906"/>
     <use xlink:href="#DejaVuSans-Bold-20" x="973.449219"/>
     <use xlink:href="#DejaVuSans-Bold-75" x="1008.263672"/>
     <use xlink:href="#DejaVuSans-Bold-74" x="1079.455078"/>
     <use xlink:href="#DejaVuSans-Bold-69" x="1127.257812"/>
     <use xlink:href="#DejaVuSans-Bold-6c" x="1161.535156"/>
     <use xlink:href="#DejaVuSans-Bold-69" x="1195.8125"/>
     <use xlink:href="#DejaVuSans-Bold-74" x="1230.089844"/>
     <use xlink:href="#DejaVuSans-Bold-79" x="1277.892578"/>
    </g>
   </g>
   <g id="text_44">
    <!-- receives 51% emission -->
    <g style="opacity: 0.8" transform="translate(66.88375 71.924912) scale(0.11 -0.11)">
     <defs>
      <path id="DejaVuSans-63" d="M 3122 3366 
L 3122 2828 
Q 2878 2963 2633 3030 
Q 2388 3097 2138 3097 
Q 1578 3097 1268 2742 
Q 959 2388 959 1747 
Q 959 1106 1268 751 
Q 1578 397 2138 397 
Q 2388 397 2633 464 
Q 2878 531 3122 666 
L 3122 134 
Q 2881 22 2623 -34 
Q 2366 -91 2075 -91 
Q 1284 -91 818 406 
Q 353 903 353 1747 
Q 353 2603 823 3093 
Q 1294 3584 2113 3584 
Q 2378 3584 2631 3529 
Q 2884 3475 3122 3366 
z
" transform="scale(0.015625)"/>
      <path id="DejaVuSans-76" d="M 191 3500 
L 800 3500 
L 1894 563 
L 2988 3500 
L 3597 3500 
L 2284 0 
L 1503 0 
L 191 3500 
z
" transform="scale(0.015625)"/>
      <path id="DejaVuSans-25" d="M 4653 2053 
Q 4381 2053 4226 1822 
Q 4072 1591 4072 1178 
Q 4072 772 4226 539 
Q 4381 306 4653 306 
Q 4919 306 5073 539 
Q 5228 772 5228 1178 
Q 5228 1588 5073 1820 
Q 4919 2053 4653 2053 
z
M 4653 2450 
Q 5147 2450 5437 2106 
Q 5728 1763 5728 1178 
Q 5728 594 5436 251 
Q 5144 -91 4653 -91 
Q 4153 -91 3862 251 
Q 3572 594 3572 1178 
Q 3572 1766 3864 2108 
Q 4156 2450 4653 2450 
z
M 1428 4353 
Q 1159 4353 1004 4120 
Q 850 3888 850 3481 
Q 850 3069 1003 2837 
Q 1156 2606 1428 2606 
Q 1700 2606 1854 2837 
Q 2009 3069 2009 3481 
Q 2009 3884 1853 4118 
Q 1697 4353 1428 4353 
z
M 4250 4750 
L 4750 4750 
L 1831 -91 
L 1331 -91 
L 4250 4750 
z
M 1428 4750 
Q 1922 4750 2215 4408 
Q 2509 4066 2509 3481 
Q 2509 2891 2217 2550 
Q 1925 2209 1428 2209 
Q 931 2209 642 2551 
Q 353 2894 353 3481 
Q 353 4063 643 4406 
Q 934 4750 1428 4750 
z
" transform="scale(0.015625)"/>
      <path id="DejaVuSans-6d" d="M 3328 2828 
Q 3544 3216 3844 3400 
Q 4144 3584 4550 3584 
Q 5097 3584 5394 3201 
Q 5691 2819 5691 2113 
L 5691 0 
L 5113 0 
L 5113 2094 
Q 5113 2597 4934 2840 
Q 4756 3084 4391 3084 
Q 3944 3084 3684 2787 
Q 3425 2491 3425 1978 
L 3425 0 
L 2847 0 
L 2847 2094 
Q 2847 2600 2669 2842 
Q 2491 3084 2119 3084 
Q 1678 3084 1418 2786 
Q 1159 2488 1159 1978 
L 1159 0 
L 581 0 
L 581 3500 
L 1159 3500 
L 1159 2956 
Q 1356 3278 1631 3431 
Q 1906 3584 2284 3584 
Q 2666 3584 2933 3390 
Q 3200 3197 3328 2828 
z
" transform="scale(0.015625)"/>
     </defs>
     <use xlink:href="#DejaVuSans-72"/>
     <use xlink:href="#DejaVuSans-65" x="38.863281"/>
     <use xlink:href="#DejaVuSans-63" x="100.386719"/>
     <use xlink:href="#DejaVuSans-65" x="155.367188"/>
     <use xlink:href="#DejaVuSans-69" x="216.890625"/>
     <use xlink:href="#DejaVuSans-76" x="244.673828"/>
     <use xlink:href="#DejaVuSans-65" x="303.853516"/>
     <use xlink:href="#DejaVuSans-73" x="365.376953"/>
     <use xlink:href="#DejaVuSans-20" x="417.476562"/>
     <use xlink:href="#DejaVuSans-35" x="449.263672"/>
     <use xlink:href="#DejaVuSans-31" x="512.886719"/>
     <use xlink:href="#DejaVuSans-25" x="576.509766"/>
     <use xlink:href="#DejaVuSans-20" x="671.529297"/>
     <use xlink:href="#DejaVuSans-65" x="703.316406"/>
     <use xlink:href="#DejaVuSans-6d" x="764.839844"/>
     <use xlink:href="#DejaVuSans-69" x="862.251953"/>
     <use xlink:href="#DejaVuSans-73" x="890.035156"/>
     <use xlink:href="#DejaVuSans-73" x="942.134766"/>
     <use xlink:href="#DejaVuSans-69" x="994.234375"/>
     <use xlink:href="#DejaVuSans-6f" x="1022.017578"/>
     <use xlink:href="#DejaVuSans-6e" x="1083.199219"/>
    </g>
   </g>
   <g id="text_45">
    <!-- retains 51% stake -->
    <g style="opacity: 0.8" transform="translate(66.88375 85.230512) scale(0.11 -0.11)">
     <defs>
      <path id="DejaVuSans-6b" d="M 581 4863 
L 1159 4863 
L 1159 1991 
L 2875 3500 
L 3609 3500 
L 1753 1863 
L 3688 0 
L 2938 0 
L 1159 1709 
L 1159 0 
L 581 0 
L 581 4863 
z
" transform="scale(0.015625)"/>
     </defs>
     <use xlink:href="#DejaVuSans-72"/>
     <use xlink:href="#DejaVuSans-65" x="38.863281"/>
     <use xlink:href="#DejaVuSans-74" x="100.386719"/>
     <use xlink:href="#DejaVuSans-61" x="139.595703"/>
     <use xlink:href="#DejaVuSans-69" x="200.875"/>
     <use xlink:href="#DejaVuSans-6e" x="228.658203"/>
     <use xlink:href="#DejaVuSans-73" x="292.037109"/>
     <use xlink:href="#DejaVuSans-20" x="344.136719"/>
     <use xlink:href="#DejaVuSans-35" x="375.923828"/>
     <use xlink:href="#DejaVuSans-31" x="439.546875"/>
     <use xlink:href="#DejaVuSans-25" x="503.169922"/>
     <use xlink:href="#DejaVuSans-20" x="598.189453"/>
     <use xlink:href="#DejaVuSans-73" x="629.976562"/>
     <use xlink:href="#DejaVuSans-74" x="682.076172"/>
     <use xlink:href="#DejaVuSans-61" x="721.285156"/>
     <use xlink:href="#DejaVuSans-6b" x="782.564453"/>
     <use xlink:href="#DejaVuSans-65" x="836.849609"/>
    </g>
   </g>
   <g id="text_46">
    <!-- [opt. cabal weight = 100%] -->
    <g style="opacity: 0.8" transform="translate(66.88375 98.536112) scale(0.11 -0.11)">
     <defs>
      <path id="DejaVuSans-5b" d="M 550 4863 
L 1875 4863 
L 1875 4416 
L 1125 4416 
L 1125 -397 
L 1875 -397 
L 1875 -844 
L 550 -844 
L 550 4863 
z
" transform="scale(0.015625)"/>
      <path id="DejaVuSans-70" d="M 1159 525 
L 1159 -1331 
L 581 -1331 
L 581 3500 
L 1159 3500 
L 1159 2969 
Q 1341 3281 1617 3432 
Q 1894 3584 2278 3584 
Q 2916 3584 3314 3078 
Q 3713 2572 3713 1747 
Q 3713 922 3314 415 
Q 2916 -91 2278 -91 
Q 1894 -91 1617 61 
Q 1341 213 1159 525 
z
M 3116 1747 
Q 3116 2381 2855 2742 
Q 2594 3103 2138 3103 
Q 1681 3103 1420 2742 
Q 1159 2381 1159 1747 
Q 1159 1113 1420 752 
Q 1681 391 2138 391 
Q 2594 391 2855 752 
Q 3116 1113 3116 1747 
z
" transform="scale(0.015625)"/>
      <path id="DejaVuSans-62" d="M 3116 1747 
Q 3116 2381 2855 2742 
Q 2594 3103 2138 3103 
Q 1681 3103 1420 2742 
Q 1159 2381 1159 1747 
Q 1159 1113 1420 752 
Q 1681 391 2138 391 
Q 2594 391 2855 752 
Q 3116 1113 3116 1747 
z
M 1159 2969 
Q 1341 3281 1617 3432 
Q 1894 3584 2278 3584 
Q 2916 3584 3314 3078 
Q 3713 2572 3713 1747 
Q 3713 922 3314 415 
Q 2916 -91 2278 -91 
Q 1894 -91 1617 61 
Q 1341 213 1159 525 
L 1159 0 
L 581 0 
L 581 4863 
L 1159 4863 
L 1159 2969 
z
" transform="scale(0.015625)"/>
      <path id="DejaVuSans-3d" d="M 678 2906 
L 4684 2906 
L 4684 2381 
L 678 2381 
L 678 2906 
z
M 678 1631 
L 4684 1631 
L 4684 1100 
L 678 1100 
L 678 1631 
z
" transform="scale(0.015625)"/>
      <path id="DejaVuSans-5d" d="M 1947 4863 
L 1947 -844 
L 622 -844 
L 622 -397 
L 1369 -397 
L 1369 4416 
L 622 4416 
L 622 4863 
L 1947 4863 
z
" transform="scale(0.015625)"/>
     </defs>
     <use xlink:href="#DejaVuSans-5b"/>
     <use xlink:href="#DejaVuSans-6f" x="39.013672"/>
     <use xlink:href="#DejaVuSans-70" x="100.195312"/>
     <use xlink:href="#DejaVuSans-74" x="163.671875"/>
     <use xlink:href="#DejaVuSans-2e" x="202.880859"/>
     <use xlink:href="#DejaVuSans-20" x="234.667969"/>
     <use xlink:href="#DejaVuSans-63" x="266.455078"/>
     <use xlink:href="#DejaVuSans-61" x="321.435547"/>
     <use xlink:href="#DejaVuSans-62" x="382.714844"/>
     <use xlink:href="#DejaVuSans-61" x="446.191406"/>
     <use xlink:href="#DejaVuSans-6c" x="507.470703"/>
     <use xlink:href="#DejaVuSans-20" x="535.253906"/>
     <use xlink:href="#DejaVuSans-77" x="567.041016"/>
     <use xlink:href="#DejaVuSans-65" x="648.828125"/>
     <use xlink:href="#DejaVuSans-69" x="710.351562"/>
     <use xlink:href="#DejaVuSans-67" x="738.134766"/>
     <use xlink:href="#DejaVuSans-68" x="801.611328"/>
     <use xlink:href="#DejaVuSans-74" x="864.990234"/>
     <use xlink:href="#DejaVuSans-20" x="904.199219"/>
     <use xlink:href="#DejaVuSans-3d" x="935.986328"/>
     <use xlink:href="#DejaVuSans-20" x="1019.775391"/>
     <use xlink:href="#DejaVuSans-31" x="1051.5625"/>
     <use xlink:href="#DejaVuSans-30" x="1115.185547"/>
     <use xlink:href="#DejaVuSans-30" x="1178.808594"/>
     <use xlink:href="#DejaVuSans-25" x="1242.431641"/>
     <use xlink:href="#DejaVuSans-5d" x="1337.451172"/>
    </g>
   </g>
   <g id="text_47">
    <!-- kappa = 50% -->
    <g style="opacity: 0.8" transform="translate(66.88375 125.147312) scale(0.11 -0.11)">
     <use xlink:href="#DejaVuSans-6b"/>
     <use xlink:href="#DejaVuSans-61" x="56.160156"/>
     <use xlink:href="#DejaVuSans-70" x="117.439453"/>
     <use xlink:href="#DejaVuSans-70" x="180.916016"/>
     <use xlink:href="#DejaVuSans-61" x="244.392578"/>
     <use xlink:href="#DejaVuSans-20" x="305.671875"/>
     <use xlink:href="#DejaVuSans-3d" x="337.458984"/>
     <use xlink:href="#DejaVuSans-20" x="421.248047"/>
     <use xlink:href="#DejaVuSans-35" x="453.035156"/>
     <use xlink:href="#DejaVuSans-30" x="516.658203"/>
     <use xlink:href="#DejaVuSans-25" x="580.28125"/>
    </g>
   </g>
   <g id="text_48">
    <!-- stake=emission=51% -->
    <g style="fill: #43236f; opacity: 0.8" transform="translate(174.015692 231.828555) rotate(-46) scale(0.12 -0.12)">
     <use xlink:href="#DejaVuSans-73"/>
     <use xlink:href="#DejaVuSans-74" x="52.099609"/>
     <use xlink:href="#DejaVuSans-61" x="91.308594"/>
     <use xlink:href="#DejaVuSans-6b" x="152.587891"/>
     <use xlink:href="#DejaVuSans-65" x="206.873047"/>
     <use xlink:href="#DejaVuSans-3d" x="268.396484"/>
     <use xlink:href="#DejaVuSans-65" x="352.185547"/>
     <use xlink:href="#DejaVuSans-6d" x="413.708984"/>
     <use xlink:href="#DejaVuSans-69" x="511.121094"/>
     <use xlink:href="#DejaVuSans-73" x="538.904297"/>
     <use xlink:href="#DejaVuSans-73" x="591.003906"/>
     <use xlink:href="#DejaVuSans-69" x="643.103516"/>
     <use xlink:href="#DejaVuSans-6f" x="670.886719"/>
     <use xlink:href="#DejaVuSans-6e" x="732.068359"/>
     <use xlink:href="#DejaVuSans-3d" x="795.447266"/>
     <use xlink:href="#DejaVuSans-35" x="879.236328"/>
     <use xlink:href="#DejaVuSans-31" x="942.859375"/>
     <use xlink:href="#DejaVuSans-25" x="1006.482422"/>
    </g>
   </g>
   <g id="text_49">
    <!-- Major emission [$S_{maj}=E_{maj}$] [$\kappa=0.5$] -->
    <g transform="translate(107.80375 16.32) scale(0.12 -0.12)">
     <defs>
      <path id="DejaVuSans-Oblique-53" d="M 3859 4513 
L 3738 3897 
Q 3422 4066 3111 4152 
Q 2800 4238 2509 4238 
Q 1944 4238 1609 3991 
Q 1275 3744 1275 3334 
Q 1275 3109 1398 2989 
Q 1522 2869 2034 2731 
L 2413 2638 
Q 3053 2472 3303 2217 
Q 3553 1963 3553 1503 
Q 3553 797 2998 353 
Q 2444 -91 1538 -91 
Q 1166 -91 791 -17 
Q 416 56 38 206 
L 166 856 
Q 513 641 861 531 
Q 1209 422 1556 422 
Q 2147 422 2503 684 
Q 2859 947 2859 1369 
Q 2859 1650 2717 1795 
Q 2575 1941 2106 2059 
L 1728 2156 
Q 1081 2325 845 2545 
Q 609 2766 609 3163 
Q 609 3859 1145 4304 
Q 1681 4750 2541 4750 
Q 2875 4750 3203 4690 
Q 3531 4631 3859 4513 
z
" transform="scale(0.015625)"/>
      <path id="DejaVuSans-Oblique-6d" d="M 5747 2113 
L 5338 0 
L 4763 0 
L 5166 2094 
Q 5191 2228 5203 2325 
Q 5216 2422 5216 2491 
Q 5216 2772 5059 2928 
Q 4903 3084 4622 3084 
Q 4203 3084 3875 2770 
Q 3547 2456 3450 1953 
L 3066 0 
L 2491 0 
L 2900 2094 
Q 2925 2209 2937 2307 
Q 2950 2406 2950 2484 
Q 2950 2769 2794 2926 
Q 2638 3084 2363 3084 
Q 1938 3084 1609 2770 
Q 1281 2456 1184 1953 
L 800 0 
L 225 0 
L 909 3500 
L 1484 3500 
L 1375 2956 
Q 1609 3263 1923 3423 
Q 2238 3584 2597 3584 
Q 2978 3584 3223 3384 
Q 3469 3184 3519 2828 
Q 3781 3197 4126 3390 
Q 4472 3584 4856 3584 
Q 5306 3584 5551 3325 
Q 5797 3066 5797 2591 
Q 5797 2488 5784 2364 
Q 5772 2241 5747 2113 
z
" transform="scale(0.015625)"/>
      <path id="DejaVuSans-Oblique-61" d="M 3438 1997 
L 3047 0 
L 2472 0 
L 2578 531 
Q 2325 219 2001 64 
Q 1678 -91 1281 -91 
Q 834 -91 548 182 
Q 263 456 263 884 
Q 263 1497 752 1853 
Q 1241 2209 2100 2209 
L 2900 2209 
L 2931 2363 
Q 2938 2388 2941 2417 
Q 2944 2447 2944 2509 
Q 2944 2788 2717 2942 
Q 2491 3097 2081 3097 
Q 1800 3097 1504 3025 
Q 1209 2953 897 2809 
L 997 3341 
Q 1322 3463 1633 3523 
Q 1944 3584 2234 3584 
Q 2853 3584 3176 3315 
Q 3500 3047 3500 2534 
Q 3500 2431 3484 2292 
Q 3469 2153 3438 1997 
z
M 2816 1759 
L 2241 1759 
Q 1534 1759 1195 1570 
Q 856 1381 856 984 
Q 856 709 1029 553 
Q 1203 397 1509 397 
Q 1978 397 2328 733 
Q 2678 1069 2791 1631 
L 2816 1759 
z
" transform="scale(0.015625)"/>
      <path id="DejaVuSans-Oblique-6a" d="M 928 3500 
L 1503 3500 
L 813 -63 
L 809 -78 
Q 694 -675 544 -897 
Q 403 -1106 132 -1218 
Q -138 -1331 -506 -1331 
L -722 -1331 
L -628 -844 
L -481 -844 
Q -144 -844 -1 -703 
Q 141 -563 238 -63 
L 928 3500 
z
M 1197 4863 
L 1772 4863 
L 1631 4134 
L 1056 4134 
L 1197 4863 
z
" transform="scale(0.015625)"/>
      <path id="DejaVuSans-Oblique-45" d="M 1081 4666 
L 4031 4666 
L 3928 4134 
L 1606 4134 
L 1338 2753 
L 3566 2753 
L 3463 2222 
L 1234 2222 
L 909 531 
L 3284 531 
L 3181 0 
L 172 0 
L 1081 4666 
z
" transform="scale(0.015625)"/>
      <path id="DejaVuSans-Oblique-3ba" d="M 938 3500 
L 1531 3500 
L 1247 2047 
L 3041 3500 
L 3741 3500 
L 2106 2181 
L 3275 0 
L 2572 0 
L 1628 1806 
L 1122 1403 
L 850 0 
L 256 0 
L 938 3500 
z
" transform="scale(0.015625)"/>
     </defs>
     <use xlink:href="#DejaVuSans-4d" transform="translate(0 0.015625)"/>
     <use xlink:href="#DejaVuSans-61" transform="translate(86.279297 0.015625)"/>
     <use xlink:href="#DejaVuSans-6a" transform="translate(147.558594 0.015625)"/>
     <use xlink:href="#DejaVuSans-6f" transform="translate(175.341797 0.015625)"/>
     <use xlink:href="#DejaVuSans-72" transform="translate(236.523438 0.015625)"/>
     <use xlink:href="#DejaVuSans-20" transform="translate(277.636719 0.015625)"/>
     <use xlink:href="#DejaVuSans-65" transform="translate(309.423828 0.015625)"/>
     <use xlink:href="#DejaVuSans-6d" transform="translate(370.947266 0.015625)"/>
     <use xlink:href="#DejaVuSans-69" transform="translate(468.359375 0.015625)"/>
     <use xlink:href="#DejaVuSans-73" transform="translate(496.142578 0.015625)"/>
     <use xlink:href="#DejaVuSans-73" transform="translate(548.242188 0.015625)"/>
     <use xlink:href="#DejaVuSans-69" transform="translate(600.341797 0.015625)"/>
     <use xlink:href="#DejaVuSans-6f" transform="translate(628.125 0.015625)"/>
     <use xlink:href="#DejaVuSans-6e" transform="translate(689.306641 0.015625)"/>
     <use xlink:href="#DejaVuSans-20" transform="translate(752.685547 0.015625)"/>
     <use xlink:href="#DejaVuSans-5b" transform="translate(784.472656 0.015625)"/>
     <use xlink:href="#DejaVuSans-Oblique-53" transform="translate(823.486328 0.015625)"/>
     <use xlink:href="#DejaVuSans-Oblique-6d" transform="translate(886.962891 -16.390625) scale(0.7)"/>
     <use xlink:href="#DejaVuSans-Oblique-61" transform="translate(955.151367 -16.390625) scale(0.7)"/>
     <use xlink:href="#DejaVuSans-Oblique-6a" transform="translate(998.046875 -16.390625) scale(0.7)"/>
     <use xlink:href="#DejaVuSans-3d" transform="translate(1039.711914 0.015625)"/>
     <use xlink:href="#DejaVuSans-Oblique-45" transform="translate(1142.983398 0.015625)"/>
     <use xlink:href="#DejaVuSans-Oblique-6d" transform="translate(1206.166992 -16.390625) scale(0.7)"/>
     <use xlink:href="#DejaVuSans-Oblique-61" transform="translate(1274.355469 -16.390625) scale(0.7)"/>
     <use xlink:href="#DejaVuSans-Oblique-6a" transform="translate(1317.250977 -16.390625) scale(0.7)"/>
     <use xlink:href="#DejaVuSans-5d" transform="translate(1339.433594 0.015625)"/>
     <use xlink:href="#DejaVuSans-20" transform="translate(1378.447266 0.015625)"/>
     <use xlink:href="#DejaVuSans-5b" transform="translate(1410.234375 0.015625)"/>
     <use xlink:href="#DejaVuSans-Oblique-3ba" transform="translate(1449.248047 0.015625)"/>
     <use xlink:href="#DejaVuSans-3d" transform="translate(1527.666016 0.015625)"/>
     <use xlink:href="#DejaVuSans-30" transform="translate(1630.9375 0.015625)"/>
     <use xlink:href="#DejaVuSans-2e" transform="translate(1694.560547 0.015625)"/>
     <use xlink:href="#DejaVuSans-35" transform="translate(1726.347656 0.015625)"/>
     <use xlink:href="#DejaVuSans-5d" transform="translate(1789.970703 0.015625)"/>
    </g>
   </g>
   <g id="text_50">
    <g clip-path="url(#p4992ed5a0e)">
     <!-- 0.51 -->
     <g style="fill: #482173" transform="translate(80.56547 331.3564) rotate(-43.458235) scale(0.1 -0.1)">
      <use xlink:href="#DejaVuSans-30"/>
      <use xlink:href="#DejaVuSans-2e" x="63.623047"/>
      <use xlink:href="#DejaVuSans-35" x="95.410156"/>
      <use xlink:href="#DejaVuSans-31" x="159.033203"/>
     </g>
    </g>
   </g>
   <g id="text_51">
    <g clip-path="url(#p4992ed5a0e)">
     <!-- 0.55 -->
     <g style="fill: #433e85" transform="translate(97.16338 332.775812) rotate(-41.26424) scale(0.1 -0.1)">
      <use xlink:href="#DejaVuSans-30"/>
      <use xlink:href="#DejaVuSans-2e" x="63.623047"/>
      <use xlink:href="#DejaVuSans-35" x="95.410156"/>
      <use xlink:href="#DejaVuSans-35" x="159.033203"/>
     </g>
    </g>
   </g>
   <g id="text_52">
    <g clip-path="url(#p4992ed5a0e)">
     <!-- 0.6 -->
     <g style="fill: #38588c" transform="translate(126.362324 339.376671) rotate(-41.449426) scale(0.1 -0.1)">
      <use xlink:href="#DejaVuSans-30"/>
      <use xlink:href="#DejaVuSans-2e" x="63.623047"/>
      <use xlink:href="#DejaVuSans-36" x="95.410156"/>
     </g>
    </g>
   </g>
   <g id="text_53">
    <g clip-path="url(#p4992ed5a0e)">
     <!-- 0.65 -->
     <g style="fill: #2d708e" transform="translate(178.830914 331.248271) rotate(-42.46953) scale(0.1 -0.1)">
      <use xlink:href="#DejaVuSans-30"/>
      <use xlink:href="#DejaVuSans-2e" x="63.623047"/>
      <use xlink:href="#DejaVuSans-36" x="95.410156"/>
      <use xlink:href="#DejaVuSans-35" x="159.033203"/>
     </g>
    </g>
   </g>
   <g id="text_54">
    <g clip-path="url(#p4992ed5a0e)">
     <!-- 0.7 -->
     <g style="fill: #25858e" transform="translate(219.774516 336.070459) rotate(-47.413363) scale(0.1 -0.1)">
      <use xlink:href="#DejaVuSans-30"/>
      <use xlink:href="#DejaVuSans-2e" x="63.623047"/>
      <use xlink:href="#DejaVuSans-37" x="95.410156"/>
     </g>
    </g>
   </g>
   <g id="text_55">
    <g clip-path="url(#p4992ed5a0e)">
     <!-- 0.75 -->
     <g style="fill: #1e9b8a" transform="translate(298.789798 71.451709) rotate(-276.576975) scale(0.1 -0.1)">
      <use xlink:href="#DejaVuSans-30"/>
      <use xlink:href="#DejaVuSans-2e" x="63.623047"/>
      <use xlink:href="#DejaVuSans-37" x="95.410156"/>
      <use xlink:href="#DejaVuSans-35" x="159.033203"/>
     </g>
    </g>
   </g>
   <g id="text_56">
    <g clip-path="url(#p4992ed5a0e)">
     <!-- 0.8 -->
     <g style="fill: #2ab07f" transform="translate(305.420256 54.645703) rotate(-276.452453) scale(0.1 -0.1)">
      <use xlink:href="#DejaVuSans-30"/>
      <use xlink:href="#DejaVuSans-2e" x="63.623047"/>
      <use xlink:href="#DejaVuSans-38" x="95.410156"/>
     </g>
    </g>
   </g>
   <g id="text_57">
    <g clip-path="url(#p4992ed5a0e)">
     <!-- 0.85 -->
     <g style="fill: #52c569" transform="translate(328.632569 157.850371) rotate(-275.286386) scale(0.1 -0.1)">
      <use xlink:href="#DejaVuSans-30"/>
      <use xlink:href="#DejaVuSans-2e" x="63.623047"/>
      <use xlink:href="#DejaVuSans-38" x="95.410156"/>
      <use xlink:href="#DejaVuSans-35" x="159.033203"/>
     </g>
    </g>
   </g>
   <g id="text_58">
    <g clip-path="url(#p4992ed5a0e)">
     <!-- 0.9 -->
     <g style="fill: #86d549" transform="translate(339.653915 121.083066) rotate(-274.984638) scale(0.1 -0.1)">
      <use xlink:href="#DejaVuSans-30"/>
      <use xlink:href="#DejaVuSans-2e" x="63.623047"/>
      <use xlink:href="#DejaVuSans-39" x="95.410156"/>
     </g>
    </g>
   </g>
   <g id="text_59">
    <g clip-path="url(#p4992ed5a0e)">
     <!-- 0.95 -->
     <g style="fill: #c2df23" transform="translate(359.309226 144.395687) rotate(-272.876249) scale(0.1 -0.1)">
      <use xlink:href="#DejaVuSans-30"/>
      <use xlink:href="#DejaVuSans-2e" x="63.623047"/>
      <use xlink:href="#DejaVuSans-39" x="95.410156"/>
      <use xlink:href="#DejaVuSans-35" x="159.033203"/>
     </g>
    </g>
   </g>
   <g id="text_60">
    <g clip-path="url(#p4992ed5a0e)">
     <!-- 0.99 -->
     <g style="fill: #fde725" transform="translate(378.378126 277.338467) rotate(-270.793375) scale(0.1 -0.1)">
      <use xlink:href="#DejaVuSans-30"/>
      <use xlink:href="#DejaVuSans-2e" x="63.623047"/>
      <use xlink:href="#DejaVuSans-39" x="95.410156"/>
      <use xlink:href="#DejaVuSans-39" x="159.033203"/>
     </g>
    </g>
   </g>
   <g id="patch_7">
    <path d="M 345.43735 230.88528 
C 347.83468 230.88528 350.134144 229.938956 351.829312 228.254724 
C 353.524481 226.570492 354.47695 224.285863 354.47695 221.904 
C 354.47695 219.522137 353.524481 217.237508 351.829312 215.553276 
C 350.134144 213.869044 347.83468 212.92272 345.43735 212.92272 
C 343.04002 212.92272 340.740556 213.869044 339.045388 215.553276 
C 337.350219 217.237508 336.39775 219.522137 336.39775 221.904 
C 336.39775 224.285863 337.350219 226.570492 339.045388 228.254724 
C 340.740556 229.938956 343.04002 230.88528 345.43735 230.88528 
z
" clip-path="url(#p4992ed5a0e)" style="opacity: 0.8; stroke: #ffffff; stroke-width: 2; stroke-linejoin: miter"/>
   </g>
   <g id="text_61">
    <!-- 2 -->
    <g style="fill: #ffffff" transform="translate(341.155563 225.88053) scale(0.12 -0.12)">
     <defs>
      <path id="DejaVuSansMono-Bold-32" d="M 1356 813 
L 3322 813 
L 3322 0 
L 359 0 
L 359 788 
L 859 1319 
Q 1750 2266 1941 2484 
Q 2175 2753 2278 2961 
Q 2381 3169 2381 3372 
Q 2381 3684 2192 3854 
Q 2003 4025 1656 4025 
Q 1409 4025 1101 3926 
Q 794 3828 459 3641 
L 459 4500 
Q 794 4622 1114 4686 
Q 1434 4750 1728 4750 
Q 2469 4750 2892 4404 
Q 3316 4059 3316 3463 
Q 3316 3188 3223 2947 
Q 3131 2706 2906 2413 
Q 2741 2200 1997 1456 
Q 1594 1053 1356 813 
z
" transform="scale(0.015625)"/>
     </defs>
     <use xlink:href="#DejaVuSansMono-Bold-32"/>
    </g>
   </g>
  </g>
 </g>
 <defs>
  <clipPath id="p4992ed5a0e">
   <rect x="50.14375" y="22.32" width="334.8" height="332.64"/>
  </clipPath>
 </defs>
</svg>
